<svg width="141" height="161" viewBox="0 0 141 161" fill="none" xmlns="http://www.w3.org/2000/svg">
<g clip-path="url(#clip0_0_1)">
<path d="M121.5 37.9823C117.843 37.9823 114.268 36.8898 111.227 34.8428C108.187 32.7958 105.817 29.8864 104.417 26.4824C103.018 23.0784 102.652 19.3328 103.365 15.7192C104.079 12.1055 105.84 8.78617 108.425 6.18088C111.011 3.57559 114.306 1.80136 117.893 1.08257C121.479 0.363768 125.197 0.732681 128.576 2.14265C131.955 3.55263 134.842 5.94034 136.874 9.00383C138.906 12.0673 139.99 15.669 139.99 19.3535C139.984 24.2923 138.034 29.0271 134.568 32.5194C131.102 36.0117 126.402 37.9763 121.5 37.9823ZM121.5 1.04967C117.907 1.04967 114.394 2.12317 111.407 4.13442C108.419 6.14567 106.09 9.00433 104.715 12.3489C103.34 15.6935 102.981 19.3738 103.682 22.9244C104.383 26.475 106.113 29.7364 108.654 32.2962C111.194 34.856 114.432 36.5993 117.956 37.3056C121.48 38.0118 125.133 37.6494 128.452 36.264C131.772 34.8786 134.609 32.5326 136.606 29.5225C138.602 26.5125 139.668 22.9736 139.668 19.3535C139.662 14.5006 137.747 9.84794 134.341 6.41643C130.935 2.98492 126.317 1.05483 121.5 1.04967Z" fill="#46B0EE"/>
<path d="M107.846 33.3796C105.993 31.5521 104.522 29.3699 103.518 26.9612C102.514 24.5525 101.998 21.9659 102 19.3535H103.291C103.282 22.1812 103.93 24.9717 105.181 27.5026C106.088 29.342 107.294 31.0154 108.75 32.4532L107.846 33.3796Z" fill="#46B0EE"/>
<path d="M121.5 39.0057V37.7055C126 37.7107 130.34 36.0309 133.679 32.9922L134.544 33.9674C130.967 37.2194 126.318 39.0152 121.5 39.0057Z" fill="#46B0EE"/>
<path d="M141 19.3528H139.709C139.71 18.3841 139.636 17.4169 139.487 16.4598C139.413 15.9982 139.322 15.5334 139.216 15.0816L140.471 14.7793C140.584 15.2669 140.684 15.7545 140.761 16.2583C140.92 17.282 141 18.3166 141 19.3528Z" fill="#46B0EE"/>
<path d="M134.705 6.71887C133.874 5.83891 132.958 5.04306 131.973 4.34272C129.791 2.78541 127.29 1.73923 124.655 1.28071L124.878 0C127.701 0.493287 130.379 1.61367 132.718 3.2798C133.773 4.0293 134.752 4.88182 135.641 5.82497L134.705 6.71887Z" fill="#46B0EE"/>
<path d="M121.5 36.8261C118.07 36.8261 114.717 35.8014 111.866 33.8816C109.014 31.9618 106.791 29.2331 105.478 26.0406C104.166 22.8481 103.822 19.3351 104.492 15.9459C105.161 12.5568 106.812 9.44361 109.238 7.00015C111.663 4.5567 114.753 2.89268 118.117 2.21853C121.481 1.54439 124.968 1.89038 128.136 3.21277C131.305 4.53516 134.013 6.77455 135.919 9.64775C137.824 12.5209 138.842 15.8989 138.842 19.3545C138.836 23.9867 137.008 28.4277 133.757 31.7031C130.506 34.9786 126.098 36.821 121.5 36.8261ZM121.5 1.95108C118.086 1.95108 114.749 2.97101 111.91 4.88189C109.072 6.79277 106.859 9.50878 105.553 12.6865C104.247 15.8641 103.905 19.3608 104.571 22.7342C105.237 26.1076 106.881 29.2063 109.295 31.6383C111.709 34.0704 114.784 35.7267 118.133 36.3977C121.481 37.0687 124.951 36.7243 128.105 35.4081C131.259 34.0919 133.955 31.8629 135.852 29.0031C137.749 26.1432 138.761 22.781 138.761 19.3415C138.756 14.7308 136.936 10.3105 133.7 7.05031C130.464 3.7901 126.076 1.95624 121.5 1.95108Z" fill="#46B0EE"/>
<path d="M121.5 32.746V32.6648C124.118 32.668 126.677 31.8887 128.855 30.4255C131.033 28.9623 132.731 26.8811 133.734 24.4452C134.737 22.0093 135.001 19.3283 134.491 16.7415C133.981 14.1548 132.721 11.7786 130.87 9.91381C129.019 8.04898 126.66 6.77936 124.093 6.26564C121.525 5.75192 118.864 6.01722 116.447 7.02794C114.029 8.03866 111.963 9.74936 110.511 11.9435C109.058 14.1376 108.285 16.7166 108.288 19.3538H108.207C108.207 16.7042 108.986 14.1138 110.447 11.9105C111.908 9.70709 113.984 7.98965 116.414 6.97538C118.843 5.9611 121.517 5.69555 124.096 6.21232C126.676 6.72908 129.045 8.00494 130.905 9.87853C132.764 11.7521 134.031 14.1393 134.544 16.738C135.057 19.3368 134.793 22.0305 133.786 24.4783C132.78 26.9261 131.075 29.0182 128.888 30.4899C126.701 31.9615 124.13 32.7467 121.5 32.746Z" fill="#46B0EE"/>
<path d="M121.5 31.9754C118.179 31.9711 114.995 30.6398 112.647 28.2736C110.299 25.9073 108.979 22.6994 108.975 19.3535H109.621C109.624 22.527 110.877 25.5696 113.104 27.8139C115.331 30.0582 118.35 31.321 121.5 31.3253V31.9754Z" fill="#46B0EE"/>
<g style="mix-blend-mode:screen" opacity="0.04">
<path d="M121.5 19.3532H137.509C137.51 22.0446 136.843 24.6936 135.568 27.0587C134.292 29.4237 132.45 31.4297 130.209 32.8938C127.967 34.3579 125.397 35.2336 122.734 35.441C120.07 35.6484 117.398 35.181 114.959 34.0814C112.521 32.9818 110.395 31.2849 108.774 29.1454C107.153 27.0059 106.09 24.4917 105.68 21.8321C105.271 19.1724 105.528 16.4518 106.43 13.9181C107.331 11.3845 108.847 9.11831 110.84 7.32617L121.5 19.3532Z" fill="#46B0EE"/>
</g>
<g style="mix-blend-mode:screen" opacity="0.08">
<path d="M121.5 35.6459C118.302 35.6459 115.175 34.6904 112.516 32.9003C109.857 31.1101 107.784 28.5657 106.56 25.5888C105.337 22.6119 105.016 19.3361 105.64 16.1759C106.264 13.0156 107.804 10.1127 110.066 7.83424C112.327 5.5558 115.209 4.00417 118.345 3.37555C121.482 2.74693 124.733 3.06956 127.688 4.30264C130.643 5.53572 133.168 7.62387 134.945 10.303C136.722 12.9822 137.67 16.132 137.67 19.3542C137.665 23.6735 135.96 27.8143 132.929 30.8685C129.897 33.9227 125.787 35.6408 121.5 35.6459ZM121.5 3.38756C118.366 3.38756 115.302 4.32399 112.695 6.07843C110.089 7.83287 108.058 10.3265 106.859 13.244C105.659 16.1616 105.345 19.3719 105.957 22.4692C106.568 25.5664 108.078 28.4114 110.294 30.6444C112.51 32.8773 115.334 34.398 118.408 35.0141C121.482 35.6302 124.669 35.314 127.565 34.1055C130.461 32.897 132.936 30.8505 134.677 28.2248C136.418 25.5991 137.348 22.5121 137.348 19.3542C137.343 15.1212 135.671 11.063 132.7 8.06979C129.73 5.07658 125.702 3.39272 121.5 3.38756Z" fill="#46B0EE"/>
</g>
<path d="M121.542 1.92188H121.461V4.52556H121.542V1.92188Z" fill="#46B0EE"/>
<path d="M121.542 34.1797H121.461V36.7834H121.542V34.1797Z" fill="#46B0EE"/>
<path d="M120.177 4.58676L119.951 1.99283L120.032 1.98633L120.258 4.58026L120.177 4.58676Z" fill="#46B0EE"/>
<path d="M122.968 36.7215L122.742 34.1276L122.823 34.1211L123.049 36.715L122.968 36.7215Z" fill="#46B0EE"/>
<path d="M118.906 4.75932L118.458 2.19464L118.535 2.18164L118.983 4.74632L118.906 4.75932Z" fill="#46B0EE"/>
<path d="M124.465 36.5269L124.017 33.9622L124.094 33.9492L124.546 36.5139L124.465 36.5269Z" fill="#46B0EE"/>
<path d="M117.654 5.04128L116.983 2.52536L117.061 2.50586L117.732 5.02178L117.654 5.04128Z" fill="#46B0EE"/>
<path d="M125.939 36.2014L125.272 33.6855L125.349 33.666L126.017 36.1819L125.939 36.2014Z" fill="#46B0EE"/>
<path d="M116.428 5.43394L115.544 2.98629L115.622 2.95703L116.506 5.40469L116.428 5.43394Z" fill="#46B0EE"/>
<path d="M127.382 35.7471L126.498 33.2994L126.572 33.2734L127.456 35.7211L127.382 35.7471Z" fill="#46B0EE"/>
<path d="M114.225 3.53792L114.152 3.57227L115.245 5.932L115.318 5.89766L114.225 3.53792Z" fill="#46B0EE"/>
<path d="M127.757 32.7723L127.684 32.8066L128.776 35.1664L128.849 35.132L127.757 32.7723Z" fill="#46B0EE"/>
<path d="M112.885 4.23476L112.815 4.27539L114.108 6.53025L114.177 6.48961L112.885 4.23476Z" fill="#46B0EE"/>
<path d="M128.895 32.1723L128.825 32.2129L130.117 34.4677L130.187 34.4271L128.895 32.1723Z" fill="#46B0EE"/>
<path d="M111.612 5.05105L111.546 5.09766L113.029 7.23047L113.095 7.18386L111.612 5.05105Z" fill="#46B0EE"/>
<path d="M131.392 33.6557L129.908 31.5201L129.976 31.4746L131.456 33.607L131.392 33.6557Z" fill="#46B0EE"/>
<path d="M112.011 8.02245L110.35 6.02662L110.411 5.97461L112.073 7.97044L112.011 8.02245Z" fill="#46B0EE"/>
<path d="M132.592 32.7334L130.931 30.7376L130.992 30.6855L132.653 32.6814L132.592 32.7334Z" fill="#46B0EE"/>
<path d="M106.836 18.1018L104.262 17.8742L104.268 17.793L106.843 18.0205L106.836 18.1018Z" fill="#46B0EE"/>
<path d="M138.732 20.9143L136.157 20.6867L136.164 20.6055L138.742 20.833L138.732 20.9143Z" fill="#46B0EE"/>
<path d="M106.785 19.3105H104.2V19.3918H106.785V19.3105Z" fill="#46B0EE"/>
<path d="M138.803 19.3105H136.219V19.3918H138.803V19.3105Z" fill="#46B0EE"/>
<path d="M121.5 33.5556C117.762 33.5556 114.176 32.0593 111.533 29.396C108.889 26.7327 107.404 23.1205 107.404 19.354C107.404 15.5875 108.889 11.9752 111.533 9.3119C114.176 6.64858 117.762 5.15234 121.5 5.15234V5.31487C118.744 5.31487 116.05 6.13825 113.758 7.68088C111.467 9.22352 109.681 11.4161 108.626 13.9814C107.571 16.5467 107.296 19.3695 107.833 22.0929C108.371 24.8162 109.698 27.3177 111.647 29.2811C113.596 31.2445 116.078 32.5816 118.781 33.1233C121.485 33.665 124.286 33.387 126.833 32.3244C129.379 31.2618 131.555 29.4624 133.086 27.1537C134.617 24.8449 135.435 22.1306 135.435 19.354H135.596C135.592 23.1191 134.105 26.7289 131.463 29.3913C128.82 32.0537 125.237 33.5513 121.5 33.5556Z" fill="#46B0EE"/>
</g>
<path d="M0 160H41.1687L122 20" stroke="#46B0EE" stroke-width="2"/>
<defs>
<clipPath id="clip0_0_1">
<rect x="102" width="39" height="39" rx="19.5" fill="white"/>
</clipPath>
</defs>
</svg>
