<svg width="128" height="205" viewBox="0 0 128 205" fill="none" xmlns="http://www.w3.org/2000/svg">
<g clip-path="url(#clip0_0_1)">
<path d="M19.5 203.982C15.843 203.982 12.2681 202.89 9.22741 200.843C6.18672 198.796 3.81679 195.886 2.41731 192.482C1.01784 189.078 0.651671 185.333 1.36512 181.719C2.07856 178.106 3.83958 174.786 6.42548 172.181C9.01137 169.576 12.306 167.801 15.8927 167.083C19.4795 166.364 23.1972 166.733 26.5759 168.143C29.9545 169.553 32.8423 171.94 34.874 175.004C36.9057 178.067 37.9902 181.669 37.9902 185.353C37.9842 190.292 36.0342 195.027 32.5679 198.519C29.1016 202.012 24.4021 203.976 19.5 203.982ZM19.5 167.05C15.9068 167.05 12.3943 168.123 9.40666 170.134C6.41902 172.146 4.09045 175.004 2.71539 178.349C1.34033 181.693 0.980555 185.374 1.68155 188.924C2.38255 192.475 4.11284 195.736 6.65361 198.296C9.19439 200.856 12.4315 202.599 15.9557 203.306C19.4798 204.012 23.1327 203.649 26.4524 202.264C29.7721 200.879 32.6095 198.533 34.6057 195.523C36.602 192.512 37.6675 188.974 37.6675 185.353C37.6624 180.501 35.7467 175.848 32.3407 172.416C28.9347 168.985 24.3167 167.055 19.5 167.05Z" fill="#46B0EE"/>
<path d="M5.84614 199.38C3.99324 197.552 2.52158 195.37 1.51763 192.961C0.513685 190.552 -0.00229566 187.966 7.67763e-06 185.354H1.29054C1.28212 188.181 1.92954 190.972 3.18118 193.503C4.08783 195.342 5.29397 197.015 6.74951 198.453L5.84614 199.38Z" fill="#46B0EE"/>
<path d="M19.5 205.006V203.705C23.9995 203.711 28.3404 202.031 31.6794 198.992L32.5441 199.967C28.9673 203.219 24.3179 205.015 19.5 205.006Z" fill="#46B0EE"/>
<path d="M39 185.353H37.7094C37.71 184.384 37.6356 183.417 37.4868 182.46C37.4126 181.998 37.3223 181.533 37.2158 181.082L38.4709 180.779C38.5838 181.267 38.6838 181.754 38.7612 182.258C38.9203 183.282 39.0001 184.317 39 185.353Z" fill="#46B0EE"/>
<path d="M32.7054 172.719C31.8736 171.839 30.9584 171.043 29.9727 170.343C27.7906 168.785 25.2905 167.739 22.6554 167.281L22.878 166C25.7006 166.493 28.3787 167.614 30.718 169.28C31.773 170.029 32.7521 170.882 33.6411 171.825L32.7054 172.719Z" fill="#46B0EE"/>
<path d="M19.5 202.826C16.0702 202.826 12.7173 201.801 9.86554 199.882C7.01373 197.962 4.79102 195.233 3.47847 192.041C2.16593 188.848 1.82251 185.335 2.49164 181.946C3.16077 178.557 4.81239 175.444 7.23766 173C9.66292 170.557 12.7529 168.893 16.1168 168.219C19.4808 167.544 22.9676 167.89 26.1363 169.213C29.3051 170.535 32.0135 172.775 33.919 175.648C35.8245 178.521 36.8416 181.899 36.8416 185.354C36.8365 189.987 35.0078 194.428 31.7567 197.703C28.5056 200.979 24.0977 202.821 19.5 202.826ZM19.5 167.951C16.0861 167.951 12.7489 168.971 9.91035 170.882C7.07181 172.793 4.85943 175.509 3.55299 178.686C2.24655 181.864 1.90473 185.361 2.57075 188.734C3.23676 192.108 4.88071 195.206 7.29469 197.638C9.70867 200.07 12.7843 201.727 16.1326 202.398C19.4809 203.069 22.9515 202.724 26.1055 201.408C29.2595 200.092 31.9553 197.863 33.8519 195.003C35.7486 192.143 36.7609 188.781 36.7609 185.341C36.7558 180.731 34.9356 176.311 31.6997 173.05C28.4637 169.79 24.0763 167.956 19.5 167.951Z" fill="#46B0EE"/>
<path d="M19.5 198.746V198.665C22.1176 198.668 24.6774 197.889 26.8552 196.426C29.033 194.962 30.7309 192.881 31.7341 190.445C32.7373 188.009 33.0006 185.328 32.4907 182.742C31.9809 180.155 30.7207 177.779 28.8697 175.914C27.0188 174.049 24.6603 172.779 22.0928 172.266C19.5254 171.752 16.8643 172.017 14.4466 173.028C12.0288 174.039 9.96303 175.749 8.51074 177.943C7.05846 180.138 6.28496 182.717 6.28815 185.354H6.20749C6.20685 182.704 6.98617 180.114 8.44688 177.91C9.90759 175.707 11.9841 173.99 14.4137 172.975C16.8433 171.961 19.5169 171.696 22.0963 172.212C24.6757 172.729 27.0451 174.005 28.9047 175.879C30.7644 177.752 32.0308 180.139 32.5437 182.738C33.0566 185.337 32.793 188.03 31.7863 190.478C30.7796 192.926 29.0749 195.018 26.8879 196.49C24.701 197.962 22.1299 198.747 19.5 198.746Z" fill="#46B0EE"/>
<path d="M19.5 197.975C16.179 197.971 12.9953 196.64 10.6473 194.274C8.29931 191.907 6.97876 188.699 6.97534 185.354H7.62061C7.62402 188.527 8.87659 191.57 11.1036 193.814C13.3306 196.058 16.3501 197.321 19.5 197.325V197.975Z" fill="#46B0EE"/>
<g style="mix-blend-mode:screen" opacity="0.04">
<path d="M19.5 185.353H35.5091C35.5102 188.045 34.8428 190.694 33.5676 193.059C32.2925 195.424 30.4502 197.43 28.2086 198.894C25.967 200.358 23.3974 201.234 20.7339 201.441C18.0704 201.648 15.3977 201.181 12.9594 200.081C10.5211 198.982 8.39469 197.285 6.77392 195.145C5.15316 193.006 4.08958 190.492 3.6801 187.832C3.27061 185.172 3.52825 182.452 4.42954 179.918C5.33082 177.384 6.84709 175.118 8.84018 173.326L19.5 185.353Z" fill="#46B0EE"/>
</g>
<g style="mix-blend-mode:screen" opacity="0.08">
<path d="M19.5 201.646C16.3018 201.646 13.1754 200.69 10.5162 198.9C7.857 197.11 5.7844 194.566 4.5605 191.589C3.3366 188.612 3.01637 185.336 3.64031 182.176C4.26425 179.016 5.80433 176.113 8.0658 173.834C10.3273 171.556 13.2086 170.004 16.3453 169.376C19.4821 168.747 22.7334 169.07 25.6882 170.303C28.6429 171.536 31.1684 173.624 32.9452 176.303C34.7221 178.982 35.6704 182.132 35.6704 185.354C35.6653 189.673 33.96 193.814 30.9286 196.869C27.8971 199.923 23.7871 201.641 19.5 201.646ZM19.5 169.388C16.3656 169.388 13.3016 170.324 10.6955 172.078C8.0893 173.833 6.05805 176.327 4.85857 179.244C3.65909 182.162 3.34525 185.372 3.95674 188.469C4.56823 191.566 6.07759 194.411 8.29394 196.644C10.5103 198.877 13.3341 200.398 16.4083 201.014C19.4824 201.63 22.6689 201.314 25.5647 200.105C28.4605 198.897 30.9356 196.851 32.677 194.225C34.4183 191.599 35.3478 188.512 35.3478 185.354C35.3427 181.121 33.6714 177.063 30.7004 174.07C27.7295 171.077 23.7015 169.393 19.5 169.388Z" fill="#46B0EE"/>
</g>
<path d="M19.5419 167.922H19.4613V170.526H19.5419V167.922Z" fill="#46B0EE"/>
<path d="M19.5419 200.18H19.4613V202.783H19.5419V200.18Z" fill="#46B0EE"/>
<path d="M18.1772 170.587L17.9514 167.993L18.032 167.986L18.2579 170.58L18.1772 170.587Z" fill="#46B0EE"/>
<path d="M20.968 202.722L20.7421 200.128L20.8228 200.121L21.0486 202.715L20.968 202.722Z" fill="#46B0EE"/>
<path d="M16.906 170.759L16.4576 168.195L16.535 168.182L16.9834 170.746L16.906 170.759Z" fill="#46B0EE"/>
<path d="M22.465 202.527L22.0165 199.962L22.094 199.949L22.5457 202.514L22.465 202.527Z" fill="#46B0EE"/>
<path d="M15.6542 171.041L14.9831 168.525L15.0606 168.506L15.7316 171.022L15.6542 171.041Z" fill="#46B0EE"/>
<path d="M23.9395 202.201L23.2716 199.686L23.349 199.666L24.0169 202.182L23.9395 202.201Z" fill="#46B0EE"/>
<path d="M14.4282 171.434L13.5442 168.986L13.6216 168.957L14.5056 171.405L14.4282 171.434Z" fill="#46B0EE"/>
<path d="M25.3816 201.747L24.4976 199.299L24.5718 199.273L25.4558 201.721L25.3816 201.747Z" fill="#46B0EE"/>
<path d="M12.2254 169.538L12.1523 169.572L13.2445 171.932L13.3176 171.898L12.2254 169.538Z" fill="#46B0EE"/>
<path d="M25.757 198.772L25.6839 198.807L26.7761 201.166L26.8492 201.132L25.757 198.772Z" fill="#46B0EE"/>
<path d="M10.8854 170.235L10.8155 170.275L12.1077 172.53L12.1775 172.49L10.8854 170.235Z" fill="#46B0EE"/>
<path d="M26.8952 198.172L26.8253 198.213L28.1175 200.468L28.1873 200.427L26.8952 198.172Z" fill="#46B0EE"/>
<path d="M9.6124 171.051L9.54633 171.098L11.0286 173.23L11.0947 173.184L9.6124 171.051Z" fill="#46B0EE"/>
<path d="M29.392 199.656L27.9078 197.52L27.9756 197.475L29.4565 199.607L29.392 199.656Z" fill="#46B0EE"/>
<path d="M10.0113 174.022L8.34976 172.027L8.41106 171.975L10.0726 173.97L10.0113 174.022Z" fill="#46B0EE"/>
<path d="M30.5922 198.733L28.9306 196.738L28.9919 196.686L30.6535 198.681L30.5922 198.733Z" fill="#46B0EE"/>
<path d="M4.83628 184.102L2.26166 183.874L2.26811 183.793L4.84273 184.021L4.83628 184.102Z" fill="#46B0EE"/>
<path d="M36.7319 186.914L34.1573 186.687L34.1637 186.605L36.7416 186.833L36.7319 186.914Z" fill="#46B0EE"/>
<path d="M4.78468 185.311H2.20038V185.392H4.78468V185.311Z" fill="#46B0EE"/>
<path d="M36.8029 185.311H34.2186V185.392H36.8029V185.311Z" fill="#46B0EE"/>
<path d="M19.5 199.556C15.7615 199.556 12.1762 198.059 9.5327 195.396C6.88921 192.733 5.40411 189.12 5.40411 185.354C5.40411 181.587 6.88921 177.975 9.5327 175.312C12.1762 172.649 15.7615 171.152 19.5 171.152V171.315C16.744 171.315 14.0499 172.138 11.7584 173.681C9.46684 175.224 7.68081 177.416 6.62614 179.981C5.57146 182.547 5.29551 185.37 5.83318 188.093C6.37085 190.816 7.69799 193.318 9.64677 195.281C11.5956 197.244 14.0785 198.582 16.7815 199.123C19.4845 199.665 22.2863 199.387 24.8325 198.324C27.3787 197.262 29.555 195.462 31.0862 193.154C32.6173 190.845 33.4346 188.131 33.4346 185.354H33.5959C33.5916 189.119 32.1051 192.729 29.4626 195.391C26.82 198.054 23.2371 199.551 19.5 199.556Z" fill="#46B0EE"/>
</g>
<path d="M24.9999 184L91.5 1H127.198" stroke="#46B0EE" stroke-width="2"/>
<defs>
<clipPath id="clip0_0_1">
<rect y="166" width="39" height="39" rx="19.5" fill="white"/>
</clipPath>
</defs>
</svg>
