<svg width="534" height="125" viewBox="0 0 534 125" fill="none" xmlns="http://www.w3.org/2000/svg">
<g clip-path="url(#clip0_1197_9469)">
<path d="M7.12289 35.3516V89.6487L0 93.7582V31.2422L7.12289 35.3516Z" fill="white"/>
<path d="M108.392 31.242L101.269 35.3515L54.186 8.21887V0L108.392 31.242Z" fill="white"/>
<path d="M108.392 93.76L54.1859 125.002V116.783L101.268 89.6504L108.392 93.76Z" fill="white"/>
<g opacity="0.3">
<path opacity="0.3" d="M54.186 116.783V125.002L0 93.76L7.12289 89.6504L54.186 116.783Z" fill="white"/>
</g>
<g opacity="0.3">
<path opacity="0.3" d="M108.392 31.2422V93.7582L101.268 89.6487V35.3516L108.392 31.2422Z" fill="white"/>
</g>
<g opacity="0.3">
<path opacity="0.3" d="M54.186 0V8.21887L7.12289 35.3515L0 31.242L54.186 0Z" fill="white"/>
</g>
<path fill-rule="evenodd" clip-rule="evenodd" d="M54.1739 34.5332L72.8368 40.1608C73.1059 40.2763 73.3232 40.4866 73.4471 40.7517C73.571 41.0167 73.5931 41.3181 73.5093 41.5984C73.425 41.8787 73.241 42.1182 72.9916 42.2716C72.7421 42.4249 72.4446 42.4816 72.1564 42.4303L54.1739 37.0052L36.2433 42.4303C35.9543 42.4832 35.6559 42.4282 35.4051 42.2753C35.1543 42.1224 34.9688 41.8824 34.884 41.6015C34.7993 41.3205 34.8213 41.0182 34.9458 40.7523C35.0703 40.4865 35.2886 40.2759 35.5588 40.1608L54.1739 34.5332Z" fill="white"/>
<path fill-rule="evenodd" clip-rule="evenodd" d="M81.0896 43.4719C81.0467 43.2194 80.9248 42.9865 80.7417 42.8069C80.5585 42.6273 80.3237 42.5098 80.07 42.471C79.8164 42.4323 79.5569 42.4744 79.3287 42.5915C79.1001 42.7081 78.9144 42.894 78.7976 43.1219L67.982 64.186H40.4096L29.6059 43.1219C29.4931 42.9077 29.32 42.731 29.1079 42.6135C28.8957 42.4965 28.6538 42.444 28.4121 42.4623C28.1412 42.484 27.8851 42.5948 27.6841 42.7773C27.4831 42.9602 27.3487 43.2044 27.3019 43.4719C26.3203 50.2885 26.6771 57.231 28.3524 63.9119C31.0066 74.4515 37.7037 86.6727 53.6566 94.4423L54.1781 94.6927L54.695 94.4423C70.6362 86.6727 77.3771 74.4515 80.0075 63.9235C81.6962 57.2415 82.0638 50.2944 81.0896 43.4719ZM30.6564 63.3435C29.3895 58.1977 28.9106 52.8902 29.2358 47.601L38.6348 65.9027L51.3684 90.5635C38.5433 83.1673 32.9724 72.5835 30.6564 63.3435ZM54.1781 90.8019L41.6392 66.5585H66.7605L54.1781 90.8019ZM77.7154 63.3435C75.3833 72.5719 69.7968 83.1552 56.9795 90.5556L69.7647 65.9148L79.1597 47.6327C79.4739 52.9127 78.987 58.2094 77.7154 63.3435Z" fill="white"/>
<path fill-rule="evenodd" clip-rule="evenodd" d="M145.705 67.3614C146.427 68.1039 147.294 68.6906 148.253 69.0843C149.211 69.4781 150.24 69.671 151.276 69.6506H190.456V64.3531H151.28C150.598 64.361 149.939 64.1047 149.442 63.6376C148.975 63.1401 148.716 62.4835 148.718 61.8014V30.3845C148.712 30.0561 148.773 29.7299 148.898 29.4258C149.022 29.1218 149.207 28.8462 149.442 28.6159C149.678 28.3651 149.963 28.1652 150.278 28.0285C150.595 27.8918 150.935 27.8212 151.28 27.8211H190.46V22.5353H151.28C150.246 22.53 149.222 22.7294 148.265 23.1219C147.309 23.5144 146.44 24.0922 145.709 24.822C144.977 25.5518 144.397 26.4192 144.004 27.3739C143.61 28.3286 143.409 29.3519 143.413 30.3845V61.8014C143.395 62.836 143.59 63.863 143.984 64.8201C144.378 65.7768 144.964 66.6431 145.705 67.3656V67.3614ZM220.814 22.5353V69.6547H263.87V64.3531H226.126V48.7776H256.461V43.4243H226.126V27.8449H263.87V22.5353H220.814ZM294.176 69.6547V22.5948H333.499C335.578 22.6186 337.566 23.4541 339.036 24.9224C340.506 26.3908 341.342 28.3756 341.366 30.4521V44.2589C341.377 45.2922 341.18 46.3176 340.786 47.2735C340.392 48.2293 339.81 49.0964 339.074 49.8231C338.35 50.5631 337.483 51.1476 336.525 51.5414C335.567 51.9347 334.539 52.1293 333.503 52.1122H326.285L341.096 69.5989V69.6547H334.08L319.357 52.1201L299.5 52.0526V69.6547H294.176ZM302.043 46.7547H333.499C333.827 46.7614 334.153 46.7006 334.456 46.5764C334.76 46.4518 335.034 46.2664 335.262 46.0314C335.498 45.8022 335.685 45.5272 335.809 45.2226C335.934 44.9185 335.994 44.5914 335.987 44.2626V30.4521C335.994 30.1233 335.934 29.7965 335.809 29.4922C335.685 29.1878 335.498 28.9125 335.262 28.6835C335.044 28.4311 334.773 28.2293 334.468 28.092C334.164 27.9548 333.833 27.8853 333.499 27.8886H302.043C301.699 27.8903 301.358 27.9617 301.042 28.0983C300.727 28.2349 300.442 28.434 300.205 28.6835C299.971 28.9142 299.787 29.19 299.664 29.4941C299.541 29.7982 299.481 30.1241 299.488 30.4521V44.2589C299.479 44.5868 299.538 44.9135 299.662 45.2176C299.785 45.5222 299.97 45.7976 300.205 46.0272C300.703 46.4939 301.36 46.7526 302.043 46.7506V46.7547ZM390.311 27.833V69.6547H395.624V27.833H416.531V22.5353H369.353V27.833H390.311ZM444.555 22.5353H449.928V69.6547H444.555V22.5353ZM482.29 22.5353V69.6547H487.659V48.7776H502.861L520.433 69.6547H527.312V69.5951L507.525 46.0989L527.246 22.5988V22.5392H520.433L502.865 43.4243H487.663V22.5353H482.29Z" fill="white"/>
<path d="M450.033 69.7558H444.463V22.4337H450.033V69.7558ZM444.659 69.557H449.833V22.6324H444.659V69.557ZM527.429 69.7479H520.408L520.375 69.712L502.836 48.875H487.763V69.7479H482.194V22.4536H487.763V43.3308H502.82L520.387 22.4536H527.342V22.6483L527.317 22.6761L507.651 46.1246L527.409 69.5729L527.429 69.7479ZM520.496 69.5491H527.167L507.413 46.1008L507.467 46.037L527.1 22.6403H520.496L502.924 43.5096H487.567V22.6324H482.394V69.5491H487.567V48.6762H502.924L502.953 48.7116L520.496 69.5491ZM395.747 69.7479H390.232V27.9222H369.273V22.4337H416.654V27.9222H395.747V69.7479ZM390.431 69.5491H395.548V27.7315H416.455V22.6324H369.452V27.7315H390.411L390.431 69.5491ZM341.215 69.7479H334.053L334.021 69.712L319.298 52.225L299.584 52.1654V69.7679H294.077V22.4933H333.499C335.604 22.514 337.616 23.3581 339.104 24.8443C340.592 26.3305 341.437 28.3402 341.458 30.4419V44.2566C341.467 45.3029 341.267 46.3408 340.869 47.3087C340.47 48.2766 339.882 49.155 339.138 49.8921C338.405 50.6412 337.527 51.2329 336.558 51.632C335.588 52.0312 334.548 52.2287 333.499 52.2133H326.5L341.195 69.5533L341.215 69.7479ZM334.148 69.5491H340.952L326.09 52.0145H333.519C334.535 52.0245 335.542 51.8291 336.48 51.4408C337.418 51.052 338.268 50.4779 338.979 49.7533C339.704 49.0337 340.278 48.177 340.667 47.2333C341.056 46.2891 341.252 45.2775 341.243 44.2566V30.4499C341.224 28.3995 340.401 26.4383 338.95 24.9876C337.499 23.537 335.537 22.7128 333.484 22.692H294.276V69.5491H299.389V51.9471L319.393 52.0145L319.421 52.0504L334.148 69.5491ZM263.989 69.7479H220.715V22.4536H263.97V27.9222H226.226V43.3029H256.56V48.8666H226.226V64.2433H263.97L263.989 69.7479ZM220.934 69.5491H263.771V64.45H226.027V48.6762H256.361V43.5096H226.027V27.7315H263.771V22.6324H220.914L220.934 69.5491ZM190.58 69.7479H151.28C150.231 69.7654 149.189 69.5691 148.218 69.1708C147.247 68.7725 146.368 68.1804 145.634 67.4308C144.885 66.6979 144.294 65.8212 143.895 64.8529C143.496 63.885 143.298 62.8458 143.314 61.7991V30.3823C143.309 29.3372 143.512 28.3014 143.91 27.3349C144.308 26.3684 144.894 25.4903 145.635 24.7512C146.374 24.0122 147.254 23.4269 148.221 23.0291C149.189 22.6313 150.226 22.429 151.272 22.4337H190.552V27.9222H151.28C150.95 27.9213 150.623 27.9878 150.319 28.1177C150.015 28.2476 149.741 28.438 149.514 28.6773C149.288 28.8978 149.11 29.1621 148.99 29.454C148.87 29.7458 148.811 30.059 148.817 30.3744V61.7912C148.808 62.1166 148.865 62.4404 148.986 62.7425C149.106 63.045 149.287 63.3191 149.518 63.5491C149.749 63.7787 150.025 63.9587 150.327 64.0783C150.63 64.1975 150.955 64.2537 151.28 64.2433H190.552L190.58 69.7479ZM145.797 67.2916C146.512 68.0221 147.369 68.5987 148.316 68.9871C149.262 69.3754 150.277 69.5666 151.3 69.5491H190.381V64.45H151.28C150.573 64.4566 149.89 64.1904 149.374 63.707C148.888 63.1904 148.618 62.5083 148.618 61.7991V30.3823C148.612 30.0409 148.676 29.7018 148.806 29.3861C148.936 29.0703 149.129 28.7844 149.374 28.5462C149.621 28.2912 149.918 28.0891 150.245 27.9525C150.573 27.8158 150.925 27.7473 151.28 27.7513H190.361V22.6324H151.28C150.26 22.6277 149.248 22.8248 148.304 23.2125C147.36 23.6003 146.502 24.1708 145.78 24.8913C145.058 25.6118 144.486 26.4679 144.097 27.4103C143.708 28.3528 143.509 29.3629 143.513 30.3823V61.7991C143.498 62.8204 143.69 63.8337 144.08 64.7779C144.469 65.722 145.046 66.5775 145.777 67.2916H145.797ZM333.519 46.8479H302.043C301.337 46.8475 300.657 46.5791 300.141 46.0966C299.896 45.8579 299.703 45.5712 299.574 45.2545C299.444 44.9383 299.381 44.5983 299.389 44.2566V30.4499C299.382 30.1091 299.444 29.7703 299.573 29.4546C299.702 29.1388 299.894 28.8527 300.137 28.6138C300.383 28.3563 300.679 28.1513 301.007 28.0112C301.334 27.8712 301.687 27.799 302.043 27.799H333.499C333.846 27.7936 334.19 27.8638 334.507 28.0044C334.824 28.1451 335.106 28.3531 335.334 28.6138C335.579 28.8515 335.773 29.1373 335.902 29.4533C336.032 29.7693 336.094 30.1086 336.086 30.4499V44.2566C336.089 44.597 336.023 44.9345 335.895 45.2495C335.766 45.5645 335.575 45.8508 335.335 46.0921C335.094 46.3329 334.808 46.5241 334.493 46.6537C334.178 46.7833 333.84 46.8496 333.499 46.8479H333.519ZM302.063 27.9977C301.733 27.9985 301.406 28.0657 301.103 28.1955C300.799 28.3252 300.525 28.5148 300.296 28.7528C300.072 28.974 299.895 29.2386 299.777 29.5304C299.658 29.8222 299.601 30.1351 299.608 30.4499V44.2566C299.601 44.5716 299.658 44.8846 299.777 45.1762C299.895 45.4679 300.072 45.7325 300.296 45.9537C300.775 46.4021 301.407 46.6512 302.063 46.6491H333.519C333.834 46.6541 334.146 46.595 334.437 46.4754C334.728 46.3558 334.991 46.1783 335.211 45.9537C335.439 45.735 335.619 45.4712 335.739 45.1787C335.859 44.8866 335.916 44.5725 335.907 44.2566V30.4499C335.915 30.1343 335.857 29.8204 335.737 29.5283C335.617 29.2361 335.438 28.9721 335.211 28.7528C335 28.5124 334.74 28.3203 334.448 28.19C334.156 28.0596 333.839 27.9941 333.519 27.9977H302.063Z" fill="white"/>
<path d="M159.079 99.1859H157.32V98.5775C157.317 98.3555 157.227 98.1434 157.069 97.9863C156.912 97.8292 156.7 97.7392 156.477 97.735H146.071C145.849 97.7392 145.637 97.8292 145.479 97.9863C145.322 98.1434 145.232 98.3555 145.227 98.5775V102.063C145.232 102.283 145.323 102.493 145.481 102.647C145.638 102.801 145.851 102.887 146.071 102.886H156.477C156.819 102.885 157.158 102.952 157.474 103.083C157.789 103.213 158.077 103.405 158.318 103.646C158.56 103.888 158.752 104.174 158.882 104.49C159.013 104.805 159.08 105.143 159.079 105.485V108.97C159.082 109.313 159.017 109.652 158.887 109.968C158.757 110.285 158.565 110.573 158.323 110.814C158.081 111.056 157.793 111.248 157.476 111.377C157.159 111.507 156.819 111.572 156.477 111.57H146.071C145.729 111.572 145.389 111.507 145.073 111.377C144.756 111.248 144.469 111.056 144.227 110.814C143.985 110.572 143.794 110.285 143.664 109.968C143.535 109.651 143.469 109.312 143.473 108.97V108.363H145.227V108.97C145.232 109.193 145.322 109.405 145.479 109.562C145.637 109.719 145.849 109.809 146.071 109.813H156.477C156.7 109.809 156.912 109.719 157.069 109.562C157.227 109.405 157.317 109.193 157.32 108.97V105.485C157.315 105.265 157.224 105.056 157.067 104.902C156.909 104.748 156.697 104.662 156.477 104.662H146.071C145.729 104.663 145.391 104.597 145.075 104.467C144.759 104.336 144.472 104.145 144.23 103.903C143.988 103.661 143.797 103.375 143.667 103.059C143.537 102.743 143.471 102.405 143.473 102.063V98.5775C143.47 98.2359 143.535 97.8975 143.665 97.5813C143.795 97.2655 143.986 96.978 144.228 96.7367C144.47 96.495 144.757 96.3042 145.074 96.1746C145.39 96.045 145.729 95.9796 146.071 95.9825H156.477C156.819 95.9792 157.159 96.0442 157.476 96.1734C157.793 96.3025 158.081 96.4938 158.323 96.735C158.565 96.9767 158.757 97.2642 158.887 97.5805C159.017 97.8967 159.082 98.2359 159.079 98.5775V99.1859Z" fill="white"/>
<path d="M156.477 111.679H146.071C145.714 111.683 145.36 111.615 145.03 111.481C144.699 111.346 144.399 111.147 144.146 110.894C143.894 110.643 143.695 110.343 143.56 110.013C143.425 109.683 143.358 109.329 143.361 108.972V108.257H145.351V108.972C145.357 109.166 145.436 109.349 145.573 109.486C145.71 109.622 145.894 109.702 146.087 109.708H156.493C156.686 109.702 156.87 109.622 157.007 109.486C157.144 109.349 157.223 109.166 157.229 108.972V105.487C157.223 105.296 157.143 105.114 157.005 104.981C156.868 104.848 156.684 104.773 156.493 104.772H146.071C145.353 104.771 144.664 104.485 144.156 103.978C143.648 103.471 143.362 102.783 143.361 102.065V98.5799C143.358 98.2232 143.425 97.8699 143.56 97.5394C143.695 97.2094 143.894 96.9099 144.146 96.6578C144.399 96.4057 144.699 96.2065 145.03 96.0715C145.36 95.937 145.714 95.8694 146.071 95.8732H156.477C156.834 95.8694 157.188 95.937 157.518 96.0715C157.849 96.2065 158.149 96.4057 158.401 96.6578C158.654 96.9099 158.853 97.2094 158.988 97.5394C159.123 97.8699 159.191 98.2232 159.187 98.5799V99.2953H157.197V98.5799C157.191 98.3865 157.112 98.2032 156.975 98.0665C156.838 97.9299 156.654 97.8503 156.461 97.8444H146.071C145.878 97.8503 145.694 97.9299 145.557 98.0665C145.421 98.2032 145.341 98.3865 145.335 98.5799V102.065C145.34 102.257 145.42 102.439 145.557 102.572C145.695 102.706 145.879 102.781 146.071 102.781H156.477C157.196 102.781 157.885 103.066 158.393 103.573C158.901 104.081 159.187 104.769 159.187 105.487V108.972C159.191 109.329 159.123 109.683 158.988 110.013C158.853 110.343 158.654 110.643 158.401 110.894C158.149 111.147 157.849 111.346 157.518 111.481C157.188 111.615 156.834 111.683 156.477 111.679ZM143.596 108.476V108.972C143.592 109.3 143.654 109.626 143.778 109.929C143.902 110.232 144.085 110.508 144.318 110.74C144.55 110.972 144.826 111.155 145.129 111.279C145.434 111.402 145.759 111.464 146.087 111.46H156.493C156.821 111.464 157.146 111.402 157.451 111.279C157.754 111.155 158.03 110.972 158.262 110.74C158.495 110.508 158.678 110.232 158.802 109.929C158.926 109.626 158.988 109.3 158.984 108.972V105.487C158.983 104.828 158.72 104.195 158.253 103.729C157.786 103.263 157.153 103 156.493 102.999H146.071C145.822 102.998 145.582 102.9 145.404 102.726C145.226 102.552 145.122 102.314 145.116 102.065V98.5799C145.119 98.3278 145.221 98.0869 145.399 97.9086C145.578 97.7307 145.819 97.629 146.071 97.6261H156.477C156.729 97.629 156.97 97.7307 157.149 97.9086C157.327 98.0869 157.429 98.3278 157.432 98.5799V99.0645H158.968V98.5678C158.972 98.2399 158.91 97.9149 158.786 97.6115C158.662 97.3078 158.479 97.0319 158.247 96.8003C158.015 96.5686 157.738 96.3853 157.435 96.2615C157.131 96.1378 156.805 96.0761 156.477 96.0799H146.071C145.743 96.0761 145.417 96.1378 145.114 96.2615C144.809 96.3853 144.534 96.5686 144.301 96.8003C144.069 97.0319 143.886 97.3078 143.762 97.6115C143.638 97.9149 143.576 98.2399 143.58 98.5678V102.053C143.58 102.713 143.842 103.346 144.31 103.812C144.777 104.279 145.411 104.541 146.071 104.541H156.477C156.726 104.542 156.966 104.64 157.144 104.814C157.323 104.989 157.426 105.226 157.432 105.475V108.961C157.429 109.213 157.327 109.454 157.149 109.632C156.97 109.81 156.729 109.912 156.477 109.914H146.071C145.819 109.912 145.578 109.81 145.399 109.632C145.221 109.454 145.119 109.213 145.116 108.961V108.464L143.596 108.476Z" fill="white"/>
<path d="M156.477 111.626H146.071C145.721 111.63 145.374 111.563 145.05 111.431C144.727 111.299 144.432 111.103 144.185 110.856C143.937 110.609 143.742 110.315 143.609 109.991C143.477 109.668 143.41 109.321 143.413 108.972V108.308H145.283V108.972C145.283 109.182 145.367 109.385 145.516 109.534C145.666 109.683 145.868 109.766 146.079 109.766H156.485C156.696 109.766 156.898 109.683 157.048 109.534C157.197 109.385 157.281 109.182 157.281 108.972V105.486C157.274 105.28 157.187 105.085 157.038 104.942C156.89 104.799 156.691 104.719 156.485 104.719H146.071C145.366 104.718 144.691 104.438 144.193 103.94C143.694 103.443 143.414 102.768 143.413 102.064V98.579C143.41 98.2294 143.477 97.8827 143.609 97.559C143.742 97.2357 143.937 96.9419 144.185 96.6944C144.432 96.4473 144.727 96.2519 145.05 96.1198C145.374 95.9873 145.721 95.9211 146.071 95.924H156.477C156.827 95.9202 157.175 95.9865 157.499 96.1186C157.823 96.2506 158.117 96.4461 158.365 96.6931C158.613 96.9406 158.808 97.2348 158.941 97.5586C159.073 97.8823 159.139 98.2294 159.135 98.579V99.2427H157.265V98.579C157.265 98.3681 157.181 98.1661 157.032 98.0169C156.883 97.8677 156.68 97.784 156.469 97.784H146.071C145.86 97.784 145.658 97.8677 145.508 98.0169C145.359 98.1661 145.276 98.3681 145.276 98.579V102.064C145.283 102.27 145.37 102.465 145.518 102.609C145.666 102.751 145.865 102.831 146.071 102.831H156.477C157.182 102.832 157.857 103.112 158.356 103.61C158.854 104.108 159.134 104.782 159.135 105.486V108.972C159.139 109.321 159.073 109.668 158.941 109.992C158.808 110.316 158.613 110.61 158.365 110.857C158.117 111.104 157.823 111.3 157.499 111.432C157.175 111.564 156.827 111.63 156.477 111.626ZM143.528 108.423V108.972C143.525 109.306 143.588 109.638 143.714 109.948C143.841 110.258 144.028 110.539 144.265 110.776C144.502 111.012 144.784 111.199 145.094 111.326C145.404 111.452 145.736 111.515 146.071 111.511H156.477C156.812 111.516 157.145 111.453 157.455 111.326C157.766 111.201 158.048 111.014 158.285 110.777C158.522 110.54 158.709 110.259 158.835 109.949C158.961 109.639 159.024 109.306 159.02 108.972V105.486C159.019 104.813 158.751 104.168 158.274 103.691C157.797 103.216 157.151 102.948 156.477 102.946H146.071C145.836 102.946 145.61 102.853 145.442 102.688C145.274 102.523 145.177 102.299 145.172 102.064V98.579C145.174 98.3411 145.269 98.1131 145.437 97.9448C145.606 97.7761 145.833 97.6798 146.071 97.6769H156.477C156.716 97.6798 156.943 97.7756 157.112 97.9444C157.281 98.1127 157.377 98.3406 157.38 98.579V99.1315H159.02V98.579C159.024 98.2444 158.961 97.9123 158.834 97.6027C158.707 97.2927 158.52 97.0115 158.283 96.7748C158.046 96.5381 157.765 96.3515 157.454 96.2248C157.145 96.0986 156.812 96.0356 156.477 96.0394H146.071C145.737 96.0361 145.404 96.0998 145.094 96.2261C144.785 96.3527 144.503 96.5394 144.266 96.7761C144.029 97.0123 143.842 97.2936 143.716 97.6031C143.589 97.9127 143.525 98.2444 143.528 98.579V102.064C143.528 102.738 143.796 103.385 144.273 103.861C144.75 104.339 145.397 104.607 146.071 104.608H156.477C156.713 104.608 156.939 104.699 157.107 104.864C157.276 105.028 157.374 105.251 157.38 105.486V108.972C157.377 109.21 157.281 109.438 157.112 109.606C156.943 109.775 156.716 109.871 156.477 109.874H146.071C145.833 109.871 145.606 109.774 145.437 109.606C145.269 109.437 145.174 109.21 145.172 108.972V108.423H143.528Z" fill="white"/>
<path d="M156.477 111.734H146.072C145.705 111.741 145.341 111.675 145.002 111.539C144.662 111.402 144.353 111.199 144.093 110.942C143.833 110.684 143.628 110.377 143.49 110.039C143.351 109.7 143.281 109.338 143.286 108.972V108.205H145.375V108.976C145.377 109.155 145.449 109.326 145.575 109.453C145.701 109.58 145.873 109.653 146.052 109.656H156.457C156.637 109.653 156.808 109.58 156.935 109.453C157.062 109.326 157.135 109.155 157.138 108.976V105.491C157.132 105.314 157.059 105.147 156.931 105.024C156.804 104.901 156.634 104.834 156.457 104.835H146.072C145.333 104.835 144.624 104.542 144.102 104.02C143.579 103.498 143.286 102.791 143.286 102.053V98.5673C143.281 98.2019 143.351 97.8389 143.49 97.5006C143.628 97.1623 143.833 96.8552 144.093 96.5973C144.353 96.3398 144.662 96.1369 145.002 96.001C145.341 95.8648 145.705 95.7981 146.072 95.8052H156.477C156.843 95.7989 157.207 95.8656 157.546 96.0019C157.885 96.1381 158.194 96.341 158.454 96.5985C158.714 96.856 158.919 97.1631 159.058 97.501C159.197 97.8394 159.266 98.2019 159.263 98.5673V99.3623H157.174V98.5673C157.17 98.3885 157.098 98.2177 156.971 98.0914C156.844 97.9656 156.672 97.8935 156.493 97.8914H146.072C145.893 97.8935 145.722 97.9656 145.595 98.0919C145.469 98.2181 145.397 98.3889 145.395 98.5673V102.053C145.4 102.229 145.474 102.395 145.6 102.518C145.726 102.64 145.895 102.709 146.072 102.709H156.477C157.216 102.709 157.924 103.001 158.447 103.524C158.969 104.045 159.263 104.753 159.263 105.491V108.976C159.266 109.341 159.196 109.703 159.057 110.041C158.918 110.379 158.712 110.685 158.452 110.942C158.193 111.199 157.884 111.402 157.545 111.538C157.206 111.674 156.843 111.741 156.477 111.734ZM143.636 108.531V108.972C143.633 109.292 143.694 109.61 143.815 109.906C143.936 110.203 144.115 110.473 144.342 110.699C144.569 110.926 144.839 111.104 145.136 111.226C145.432 111.347 145.751 111.408 146.072 111.404H156.477C156.798 111.408 157.116 111.347 157.413 111.226C157.71 111.104 157.98 110.926 158.206 110.699C158.433 110.473 158.612 110.203 158.734 109.906C158.855 109.61 158.915 109.292 158.913 108.972V105.486C158.911 104.842 158.654 104.224 158.198 103.768C157.742 103.312 157.123 103.055 156.477 103.054H146.072C145.807 103.054 145.553 102.949 145.365 102.764C145.176 102.58 145.067 102.329 145.061 102.065V98.5794C145.065 98.3127 145.173 98.0585 145.361 97.8698C145.55 97.6814 145.805 97.5739 146.072 97.5698H156.477C156.744 97.5739 156.999 97.6814 157.187 97.8698C157.376 98.0585 157.484 98.3127 157.488 98.5794V99.0202H158.913V98.5794C158.918 98.2585 158.86 97.9398 158.739 97.6419C158.619 97.3444 158.439 97.0744 158.212 96.8473C157.985 96.6206 157.714 96.4423 157.416 96.3227C157.118 96.2027 156.798 96.1444 156.477 96.151H146.072C145.75 96.1444 145.431 96.2027 145.133 96.3227C144.835 96.4423 144.564 96.6206 144.336 96.8473C144.109 97.0744 143.93 97.3444 143.81 97.6419C143.689 97.9398 143.63 98.2585 143.636 98.5794V102.065C143.637 102.709 143.894 103.328 144.351 103.784C144.807 104.239 145.426 104.496 146.072 104.497H156.477C156.742 104.498 156.995 104.602 157.184 104.787C157.373 104.971 157.482 105.223 157.488 105.486V108.972C157.485 109.239 157.377 109.494 157.188 109.682C157 109.871 156.744 109.979 156.477 109.981H146.072C145.804 109.979 145.549 109.871 145.36 109.682C145.171 109.494 145.064 109.239 145.061 108.972V108.531H143.636Z" fill="white"/>
<path d="M178.936 97.7353H166.449V102.902H176.485V104.678H166.449V109.845H178.936V111.602H164.686V95.9824H178.928L178.936 97.7353Z" fill="white"/>
<path d="M179.044 111.679H164.587V95.8848H179.044V97.8718H166.561V102.808H176.597V104.795H166.561V109.731H179.044V111.679ZM164.806 111.46H178.825V109.926H166.342V104.553H176.378V102.999H166.342V97.6256H178.825V96.0914H164.806V111.46Z" fill="white"/>
<path d="M179.012 111.626H164.638V95.9238H179.012V97.7917H166.509V102.831H176.545V104.719H166.509V109.758H179.012V111.626ZM164.774 111.511H178.9V109.873H166.394V104.628H176.429V102.966H166.394V97.6763H178.88V96.0388H164.754L164.774 111.511Z" fill="white"/>
<path d="M179.103 111.733H164.527V95.8164H179.103V97.9031H166.616V102.72H176.652V104.83H166.616V109.651H179.103V111.733ZM164.861 111.403H178.769V109.981H166.278V104.496H176.317V103.038H166.278V97.5531H178.765V96.1343H164.861V111.403Z" fill="white"/>
<path d="M187.109 97.735C186.887 97.7392 186.675 97.8292 186.517 97.9863C186.36 98.1434 186.27 98.3554 186.266 98.5775V108.97C186.27 109.193 186.36 109.405 186.517 109.562C186.675 109.719 186.887 109.809 187.109 109.813H200.074V111.57H187.109C186.767 111.572 186.428 111.507 186.111 111.377C185.794 111.248 185.507 111.056 185.265 110.814C185.023 110.572 184.832 110.285 184.702 109.968C184.573 109.651 184.508 109.312 184.511 108.97V98.5775C184.509 98.2358 184.574 97.8975 184.703 97.5813C184.833 97.2654 185.024 96.9779 185.266 96.7367C185.508 96.495 185.796 96.3042 186.112 96.1746C186.429 96.045 186.768 95.9796 187.109 95.9825H200.074V97.735H187.109Z" fill="white"/>
<path d="M200.181 111.679H187.11C186.753 111.683 186.398 111.615 186.068 111.481C185.738 111.346 185.438 111.147 185.185 110.894C184.933 110.643 184.733 110.343 184.598 110.013C184.463 109.683 184.396 109.329 184.4 108.972V98.5799C184.396 98.2232 184.463 97.8699 184.598 97.5394C184.733 97.2094 184.933 96.9099 185.185 96.6578C185.438 96.4057 185.738 96.2065 186.068 96.0715C186.398 95.937 186.753 95.8694 187.11 95.8732H200.181V97.8603H187.11C186.916 97.8665 186.733 97.9457 186.596 98.0824C186.459 98.219 186.379 98.4024 186.373 98.5957V108.989C186.379 109.182 186.459 109.365 186.596 109.502C186.733 109.638 186.916 109.718 187.11 109.724H200.181V111.679ZM187.11 96.0919C186.781 96.0882 186.456 96.1499 186.152 96.2736C185.848 96.3974 185.572 96.5803 185.34 96.8124C185.108 97.044 184.924 97.3199 184.801 97.6232C184.677 97.9269 184.615 98.2519 184.619 98.5799V108.972C184.615 109.3 184.677 109.626 184.801 109.929C184.924 110.232 185.108 110.508 185.34 110.74C185.572 110.972 185.848 111.155 186.152 111.279C186.456 111.402 186.781 111.464 187.11 111.46H199.962V109.927H187.11C186.857 109.923 186.616 109.822 186.438 109.644C186.259 109.465 186.158 109.224 186.154 108.972V98.5799C186.158 98.3278 186.259 98.0869 186.438 97.9086C186.616 97.7307 186.857 97.629 187.11 97.6261H199.962V96.0919H187.11Z" fill="white"/>
<path d="M200.13 111.626H187.109C186.76 111.63 186.413 111.563 186.089 111.431C185.765 111.299 185.47 111.103 185.223 110.856C184.976 110.609 184.78 110.315 184.647 109.991C184.515 109.668 184.448 109.321 184.452 108.971V98.579C184.448 98.2294 184.515 97.8827 184.647 97.559C184.78 97.2356 184.976 96.9414 185.223 96.6944C185.47 96.4473 185.765 96.2519 186.089 96.1194C186.413 95.9873 186.76 95.9206 187.109 95.9239H200.13V97.7919H187.109C186.899 97.7919 186.696 97.8756 186.547 98.0248C186.398 98.174 186.314 98.376 186.314 98.5869V108.98C186.314 109.19 186.398 109.393 186.547 109.541C186.696 109.691 186.899 109.774 187.109 109.774H200.13V111.626ZM187.109 96.0394C186.775 96.036 186.443 96.0994 186.133 96.226C185.823 96.3527 185.541 96.5394 185.305 96.776C185.068 97.0123 184.881 97.2935 184.754 97.6031C184.627 97.9127 184.564 98.2444 184.567 98.579V108.971C184.563 109.306 184.626 109.638 184.753 109.948C184.879 110.258 185.066 110.539 185.303 110.776C185.54 111.012 185.822 111.199 186.132 111.326C186.442 111.452 186.775 111.515 187.109 111.511H200.014V109.874H187.109C186.871 109.871 186.644 109.774 186.476 109.606C186.308 109.437 186.212 109.21 186.21 108.971V98.579C186.212 98.341 186.308 98.1131 186.476 97.9444C186.644 97.776 186.871 97.6798 187.109 97.6765H200.014V96.0394H187.109Z" fill="white"/>
<path d="M200.237 111.732H187.106C186.739 111.739 186.376 111.672 186.036 111.537C185.696 111.4 185.387 111.197 185.127 110.94C184.868 110.682 184.662 110.375 184.524 110.037C184.385 109.698 184.316 109.336 184.32 108.97V98.577C184.316 98.2116 184.385 97.8487 184.524 97.5103C184.662 97.172 184.868 96.8649 185.127 96.6074C185.387 96.3495 185.696 96.147 186.036 96.0107C186.376 95.8745 186.739 95.8082 187.106 95.8149H200.237V97.9016H187.106C186.927 97.9037 186.756 97.9753 186.63 98.1016C186.503 98.2278 186.431 98.3987 186.429 98.577V108.97C186.431 109.149 186.503 109.32 186.629 109.447C186.756 109.574 186.926 109.647 187.106 109.65H200.237V111.732ZM187.106 96.1487C186.784 96.1424 186.465 96.2007 186.167 96.3203C185.869 96.4399 185.598 96.6187 185.371 96.8453C185.143 97.072 184.964 97.3424 184.844 97.6399C184.723 97.9374 184.664 98.2562 184.67 98.577V108.97C184.667 109.29 184.728 109.608 184.849 109.905C184.971 110.201 185.149 110.47 185.376 110.697C185.603 110.923 185.873 111.102 186.17 111.224C186.467 111.344 186.785 111.405 187.106 111.402H199.903V109.979H187.109C186.842 109.976 186.587 109.869 186.398 109.68C186.21 109.492 186.102 109.237 186.099 108.97V98.577C186.103 98.3107 186.211 98.0562 186.399 97.8678C186.588 97.6795 186.843 97.5716 187.109 97.5678H199.907V96.1487H187.106Z" fill="white"/>
<path d="M219.389 95.9824H221.144V108.971C221.147 109.313 221.081 109.652 220.951 109.968C220.822 110.285 220.63 110.572 220.388 110.815C220.145 111.056 219.858 111.248 219.541 111.377C219.224 111.507 218.884 111.572 218.542 111.57H208.14C207.798 111.572 207.458 111.507 207.141 111.377C206.824 111.248 206.536 111.056 206.294 110.815C206.052 110.572 205.86 110.285 205.73 109.968C205.6 109.652 205.535 109.313 205.538 108.971V95.9824H207.292V108.971C207.297 109.194 207.387 109.406 207.545 109.563C207.704 109.72 207.917 109.81 208.14 109.813H218.542C218.765 109.81 218.978 109.72 219.136 109.563C219.294 109.406 219.385 109.194 219.389 108.971V95.9824Z" fill="white"/>
<path d="M218.542 111.679H208.14C207.783 111.683 207.428 111.616 207.097 111.481C206.766 111.347 206.466 111.148 206.213 110.896C205.96 110.644 205.76 110.344 205.625 110.013C205.49 109.683 205.422 109.329 205.426 108.972V95.8848H207.416V109C207.421 109.194 207.5 109.378 207.637 109.514C207.774 109.651 207.958 109.73 208.152 109.735H218.554C218.747 109.73 218.932 109.651 219.069 109.514C219.206 109.378 219.285 109.194 219.29 109V95.8848H221.279V109C221.279 109.356 221.208 109.709 221.07 110.038C220.932 110.367 220.73 110.665 220.474 110.914C220.219 111.164 219.917 111.36 219.585 111.491C219.253 111.622 218.898 111.686 218.542 111.679ZM205.649 96.0914V108.972C205.645 109.3 205.707 109.625 205.831 109.929C205.955 110.232 206.138 110.508 206.37 110.74C206.602 110.971 206.878 111.155 207.182 111.279C207.486 111.402 207.812 111.464 208.14 111.46H218.542C218.87 111.464 219.196 111.402 219.499 111.279C219.803 111.155 220.08 110.971 220.311 110.74C220.543 110.508 220.727 110.232 220.851 109.929C220.975 109.625 221.037 109.3 221.033 108.972V96.0914H219.497V108.972C219.494 109.224 219.392 109.465 219.213 109.643C219.035 109.821 218.794 109.923 218.542 109.926H208.14C207.887 109.923 207.646 109.821 207.467 109.644C207.288 109.466 207.185 109.225 207.181 108.972V96.0914H205.649Z" fill="white"/>
<path d="M218.542 111.626H208.14C207.79 111.63 207.443 111.564 207.119 111.432C206.794 111.3 206.5 111.104 206.252 110.857C206.005 110.61 205.809 110.316 205.677 109.992C205.545 109.668 205.478 109.321 205.482 108.971V95.9238H207.348V108.971C207.348 109.182 207.432 109.384 207.581 109.533C207.731 109.683 207.933 109.766 208.144 109.766H218.546C218.757 109.766 218.959 109.683 219.109 109.533C219.258 109.384 219.342 109.182 219.342 108.971V95.9238H221.192V108.971C221.196 109.32 221.13 109.667 220.998 109.99C220.866 110.313 220.671 110.607 220.425 110.854C220.178 111.101 219.885 111.297 219.561 111.429C219.238 111.562 218.891 111.629 218.542 111.626ZM205.593 96.0388V108.971C205.59 109.306 205.653 109.638 205.78 109.948C205.906 110.259 206.094 110.54 206.331 110.777C206.568 111.013 206.851 111.201 207.162 111.326C207.472 111.453 207.805 111.515 208.14 111.511H218.542C218.877 111.515 219.21 111.453 219.521 111.326C219.831 111.201 220.114 111.013 220.351 110.777C220.588 110.54 220.776 110.259 220.902 109.948C221.029 109.638 221.092 109.306 221.089 108.971V96.0388H219.445V108.971C219.442 109.21 219.346 109.438 219.177 109.606C219.008 109.774 218.781 109.871 218.542 109.873H208.14C207.902 109.871 207.673 109.774 207.505 109.606C207.336 109.438 207.24 109.21 207.237 108.971V96.0388H205.593Z" fill="white"/>
<path d="M218.542 111.733H208.14C207.774 111.74 207.41 111.673 207.071 111.537C206.732 111.401 206.423 111.198 206.163 110.94C205.904 110.683 205.698 110.376 205.559 110.038C205.42 109.699 205.351 109.337 205.354 108.971V95.8164H207.443V108.971C207.448 109.15 207.522 109.32 207.648 109.446C207.775 109.573 207.945 109.646 208.124 109.651H218.526C218.705 109.648 218.876 109.575 219.004 109.448C219.13 109.322 219.203 109.151 219.206 108.971V95.8164H221.295V108.971C221.299 109.334 221.231 109.694 221.094 110.03C220.956 110.366 220.754 110.671 220.498 110.928C220.241 111.186 219.936 111.389 219.601 111.527C219.265 111.666 218.905 111.736 218.542 111.733ZM205.705 96.1502V108.971C205.701 109.292 205.761 109.61 205.882 109.906C206.003 110.203 206.183 110.473 206.41 110.7C206.637 110.926 206.906 111.105 207.203 111.226C207.5 111.347 207.819 111.407 208.14 111.403H218.542C218.862 111.407 219.18 111.346 219.478 111.225C219.774 111.104 220.044 110.925 220.271 110.698C220.498 110.472 220.677 110.203 220.798 109.906C220.919 109.609 220.98 109.292 220.977 108.971V96.1502H219.553V108.971C219.549 109.238 219.442 109.493 219.253 109.682C219.064 109.871 218.809 109.978 218.542 109.981H208.14C207.872 109.978 207.616 109.871 207.427 109.682C207.238 109.493 207.129 109.238 207.125 108.971V96.1502H205.705Z" fill="white"/>
<path d="M242.366 103.168C242.368 103.509 242.301 103.847 242.172 104.163C242.042 104.479 241.85 104.766 241.609 105.008C241.367 105.249 241.08 105.441 240.764 105.571C240.448 105.702 240.11 105.768 239.767 105.767H237.38L242.283 111.569H239.963L235.084 105.767H229.362C229.079 105.754 228.798 105.725 228.518 105.679V111.569H226.763V96.002H239.772C240.113 96.0011 240.452 96.0674 240.768 96.1978C241.084 96.3282 241.371 96.5195 241.613 96.7611C241.854 97.0028 242.046 97.2899 242.175 97.6057C242.306 97.9215 242.372 98.2599 242.37 98.6011L242.366 103.168ZM239.767 103.99C239.876 103.99 239.983 103.969 240.083 103.928C240.183 103.887 240.274 103.826 240.35 103.749C240.427 103.673 240.487 103.582 240.528 103.482C240.57 103.383 240.591 103.276 240.591 103.168V98.6011C240.592 98.3807 240.507 98.1682 240.353 98.0099C240.199 97.8515 239.989 97.7599 239.767 97.7549H229.362C229.139 97.759 228.926 97.8495 228.768 98.0074C228.611 98.1653 228.521 98.3782 228.518 98.6011V103.168C228.523 103.388 228.614 103.597 228.772 103.751C228.93 103.904 229.141 103.99 229.362 103.99H239.767Z" fill="white"/>
<path d="M242.517 111.679H239.895L235.016 105.876H229.362C229.115 105.868 228.869 105.844 228.625 105.805V111.679H226.636V95.8848H239.767C240.486 95.886 241.174 96.1714 241.683 96.6785C242.19 97.186 242.476 97.8739 242.477 98.5914V103.158C242.476 103.875 242.19 104.563 241.683 105.071C241.174 105.578 240.486 105.863 239.767 105.864H237.619L242.517 111.679ZM240.014 111.46H242.048L237.145 105.658H239.767C240.428 105.656 241.061 105.394 241.528 104.928C241.995 104.461 242.257 103.829 242.258 103.17V98.6031C242.258 97.9435 241.996 97.3106 241.529 96.8439C241.062 96.3773 240.428 96.1152 239.767 96.1152H226.871V111.46H228.406V105.558L228.641 105.586C228.879 105.625 229.12 105.649 229.362 105.658H235.12L240.014 111.46ZM239.767 104.104H229.362C229.112 104.103 228.873 104.005 228.694 103.83C228.516 103.656 228.413 103.419 228.406 103.17V98.6031C228.41 98.351 228.511 98.1106 228.69 97.9323C228.868 97.7539 229.109 97.6527 229.362 97.6493H239.767C240.017 97.6556 240.253 97.7589 240.427 97.9373C240.601 98.1152 240.699 98.3543 240.698 98.6031V103.17C240.698 103.417 240.601 103.654 240.426 103.829C240.252 104.004 240.015 104.103 239.767 104.104ZM229.362 97.8718C229.168 97.8768 228.984 97.956 228.847 98.0927C228.71 98.2298 228.63 98.4139 228.625 98.6073V103.174C228.632 103.364 228.712 103.546 228.849 103.678C228.987 103.811 229.17 103.885 229.362 103.885H239.767C239.956 103.885 240.137 103.81 240.271 103.677C240.405 103.544 240.48 103.362 240.48 103.174V98.6031C240.481 98.4118 240.407 98.2281 240.274 98.0906C240.141 97.9531 239.959 97.8731 239.767 97.8681L229.362 97.8718Z" fill="white"/>
<path d="M242.405 111.626H239.934V111.606L235.056 105.82H229.362C229.112 105.809 228.864 105.786 228.617 105.748H228.573V111.63H226.703V95.9473H239.767C240.472 95.9485 241.148 96.2285 241.646 96.726C242.144 97.2239 242.424 97.8985 242.425 98.6023V103.169C242.424 103.873 242.144 104.547 241.646 105.045C241.148 105.543 240.472 105.823 239.767 105.824H237.507L242.405 111.626ZM239.99 111.511H242.159L237.26 105.709H239.767C240.441 105.707 241.087 105.439 241.564 104.964C242.041 104.487 242.309 103.842 242.31 103.169V98.6023C242.31 97.9285 242.042 97.2819 241.566 96.8052C241.089 96.3281 240.442 96.0598 239.767 96.0585H226.819V111.511H228.462V105.617L228.633 105.637C228.874 105.676 229.117 105.7 229.362 105.709H235.12L239.99 111.511ZM239.767 104.047H229.362C229.126 104.047 228.901 103.955 228.732 103.791C228.564 103.627 228.467 103.404 228.462 103.169V98.6023C228.464 98.3644 228.559 98.1369 228.727 97.9681C228.896 97.7994 229.123 97.7031 229.362 97.7002H239.767C240.003 97.7064 240.226 97.8039 240.39 97.9727C240.555 98.141 240.647 98.3673 240.646 98.6023V103.169C240.646 103.284 240.624 103.398 240.58 103.505C240.535 103.611 240.471 103.708 240.389 103.79C240.307 103.871 240.211 103.936 240.104 103.98C239.997 104.024 239.883 104.047 239.767 104.047ZM229.362 97.8152C229.15 97.8152 228.948 97.8989 228.799 98.0481C228.649 98.1973 228.566 98.3994 228.566 98.6102V103.177C228.573 103.383 228.66 103.578 228.808 103.721C228.957 103.864 229.155 103.944 229.362 103.944H239.767C239.971 103.943 240.165 103.861 240.309 103.718C240.453 103.574 240.534 103.38 240.535 103.177V98.6023C240.535 98.396 240.455 98.1981 240.312 98.0498C240.169 97.9014 239.974 97.8148 239.767 97.8073L229.362 97.8152Z" fill="white"/>
<path d="M242.64 111.731H239.894L235.02 105.929H229.362C229.135 105.923 228.909 105.903 228.685 105.869V111.731H226.596V95.834H239.767C240.506 95.834 241.214 96.1269 241.737 96.6486C242.259 97.1707 242.553 97.8782 242.553 98.6161V103.182C242.548 103.917 242.252 104.619 241.73 105.137C241.208 105.654 240.503 105.944 239.767 105.944H237.742L242.64 111.731ZM240.038 111.401H241.924L237.025 105.599H239.767C240.413 105.598 241.032 105.341 241.488 104.885C241.944 104.429 242.201 103.811 242.203 103.166V98.5998C242.201 97.9552 241.944 97.3373 241.488 96.8815C241.032 96.4252 240.413 96.169 239.767 96.1677H226.926V111.401H228.355V105.487L228.649 105.527C228.886 105.564 229.125 105.588 229.365 105.599H235.167L235.199 105.639L240.038 111.401ZM239.767 104.156H229.362C229.097 104.155 228.843 104.051 228.655 103.866C228.466 103.681 228.357 103.431 228.351 103.166V98.5998C228.355 98.3336 228.463 98.079 228.651 97.8907C228.84 97.7023 229.095 97.5948 229.362 97.5907H239.767C240.032 97.5969 240.283 97.7057 240.468 97.8944C240.653 98.0827 240.757 98.3361 240.758 98.5998V103.166C240.757 103.429 240.652 103.68 240.467 103.865C240.281 104.051 240.03 104.155 239.767 104.156ZM229.362 97.9202C229.182 97.9236 229.012 97.9961 228.885 98.1232C228.759 98.2498 228.687 98.4211 228.685 98.5998V103.166C228.69 103.342 228.764 103.509 228.89 103.631C229.016 103.754 229.186 103.822 229.362 103.822H239.767C239.941 103.822 240.108 103.753 240.231 103.63C240.354 103.507 240.424 103.34 240.424 103.166V98.5998C240.425 98.4236 240.357 98.2536 240.234 98.1265C240.111 97.9998 239.944 97.9257 239.767 97.9202H229.362Z" fill="white"/>
<path d="M247.941 95.9824H249.696V111.57H247.941V95.9824Z" fill="white"/>
<path d="M249.807 111.679H247.818V95.8848H249.807V111.679ZM248.052 111.46H249.588V96.0914H248.052V111.46Z" fill="white"/>
<path d="M249.756 111.626H247.885V95.9238H249.756V111.626ZM248 111.511H249.64V96.0388H248V111.511Z" fill="white"/>
<path d="M249.863 111.733H247.774V95.8164H249.863V111.733ZM248.108 111.403H249.532V96.1502H248.108V111.403Z" fill="white"/>
<path d="M270.766 95.9824V97.7353H263.854V111.57H262.095V97.7353H255.159V95.9824H270.766Z" fill="white"/>
<path d="M263.961 111.679H261.972V97.8445H255.052V95.8574H270.877V97.8445H263.961V111.679ZM262.207 111.46H263.743V97.6258H270.658V96.0916H255.271V97.6258H262.207V111.46Z" fill="white"/>
<path d="M263.909 111.626H262.04V97.7917H255.103V95.9238H270.826V97.7917H263.909V111.626ZM262.155 111.511H263.794V97.6763H270.71V96.0388H255.219V97.6763H262.155V111.511Z" fill="white"/>
<path d="M264.017 111.733H261.932V97.9031H254.992V95.8164H270.933V97.9031H264.017V111.733ZM262.263 111.403H263.687V97.5689H270.603V96.1502H255.326V97.5689H262.263V111.403Z" fill="white"/>
<path d="M290.905 95.9824L283.742 105.7V111.57H281.987V105.7C279.668 102.52 277.177 99.162 274.825 95.9824H276.842L282.871 103.601C284.753 101.177 286.946 98.407 288.84 95.9824H290.905Z" fill="white"/>
<path d="M283.842 111.679H281.852V105.737C279.556 102.59 277.113 99.3026 274.753 96.1235L274.566 95.873H276.854L282.871 103.436C284.339 101.548 285.967 99.4856 287.538 97.4747L288.804 95.8847H291.132L291.004 96.0597L283.842 105.749V111.679ZM282.087 111.46H283.623V105.666L283.643 105.638L290.69 96.0993H288.899L287.706 97.6256C286.114 99.6564 284.447 101.763 282.954 103.678L282.871 103.79L276.77 96.0993H275.024C277.367 99.2789 279.799 102.522 282.067 105.638L282.091 105.666L282.087 111.46Z" fill="white"/>
<path d="M283.79 111.627H281.92V105.721C279.62 102.565 277.169 99.2667 274.801 96.0792L274.69 95.9242H276.846V95.9479L282.851 103.499C284.327 101.6 285.967 99.525 287.554 97.5021L288.804 95.9121H291.005L290.937 96.0038L283.774 105.709L283.79 111.627ZM282.031 111.511H283.667V105.685L290.774 96.0554H288.856L287.646 97.5854C286.054 99.6204 284.387 101.723 282.899 103.638L282.855 103.694L282.807 103.638L276.779 96.0396H274.912C277.276 99.2188 279.723 102.518 282.019 105.669L282.031 111.511Z" fill="white"/>
<path d="M283.898 111.731H281.808V105.77C279.588 102.722 277.28 99.6138 274.713 96.1559L274.47 95.8301H276.902L276.938 95.8738L282.867 103.345C284.18 101.656 285.629 99.8205 287.029 98.0438L288.772 95.8301H291.227L283.889 105.766L283.898 111.731ZM282.142 111.401H283.567V105.643V105.615L290.559 96.148H288.907L287.714 97.6505C285.966 99.868 284.403 101.851 282.966 103.703L282.835 103.87L282.704 103.703L276.707 96.1522H275.115C277.324 99.1209 279.807 102.467 282.095 105.607V105.635V105.686L282.142 111.401Z" fill="white"/>
<path d="M305.553 95.959H307.308V109.813H321.155V111.57H305.553V95.959Z" fill="white"/>
<path d="M321.259 111.675H305.433V95.8496H307.423V109.704H321.275L321.259 111.675ZM305.652 111.457H321.04V109.923H307.188V96.0684H305.652V111.457Z" fill="white"/>
<path d="M321.207 111.627H305.485V95.9043H307.355V109.759H321.207V111.627ZM305.601 111.511H321.092V109.874H307.24V96.0155H305.601V111.511Z" fill="white"/>
<path d="M321.315 111.734H305.378V95.793H307.463V109.652H321.315V111.734ZM305.708 111.404H320.984V109.981H307.144V96.1271H305.72L305.708 111.404Z" fill="white"/>
<path d="M339.946 97.7353H327.459V102.902H337.494V104.678H327.459V109.845H339.946V111.602H325.704V95.9824H339.946V97.7353Z" fill="white"/>
<path d="M340.053 111.679H325.592V95.8848H340.053V97.8718H327.57V102.808H337.606V104.795H327.57V109.731H340.053V111.679ZM325.811 111.46H339.834V109.926H327.351V104.553H337.387V102.999H327.351V97.6256H339.834V96.0914H325.811V111.46Z" fill="white"/>
<path d="M340.002 111.626H325.648V95.9238H340.002V97.7917H327.514V102.831H337.554V104.719H327.514V109.758H340.002V111.626ZM325.76 111.511H339.886V109.873H327.403V104.628H337.439V102.966H327.403V97.6763H339.886V96.0388H325.76V111.511Z" fill="white"/>
<path d="M340.113 111.733H325.537V95.8164H340.113V97.9031H327.626V102.72H337.661V104.83H327.626V109.651H340.113V111.733ZM325.871 111.403H339.798V109.981H327.291V104.496H337.327V103.038H327.291V97.5531H339.774V96.1343H325.847L325.871 111.403Z" fill="white"/>
<path d="M358.565 95.9825C358.907 95.9792 359.247 96.0442 359.564 96.1734C359.881 96.3025 360.169 96.4938 360.411 96.735C360.653 96.9767 360.845 97.2642 360.975 97.5805C361.104 97.8967 361.17 98.2359 361.167 98.5775V111.57H359.413V105.875H347.336V111.57H345.58V98.5775C345.578 98.2359 345.643 97.8967 345.773 97.5805C345.903 97.2642 346.095 96.9767 346.337 96.735C346.579 96.4938 346.867 96.3025 347.184 96.1734C347.501 96.0442 347.841 95.9792 348.183 95.9825H358.565ZM359.413 104.122V98.5575C359.408 98.335 359.318 98.1225 359.159 97.965C359.001 97.808 358.788 97.7184 358.565 97.715H348.163C347.94 97.7184 347.727 97.808 347.569 97.965C347.41 98.1225 347.32 98.335 347.315 98.5575V104.122H359.413Z" fill="white"/>
<path d="M361.263 111.675H359.273V105.984H347.427V111.675H345.437V98.5604C345.433 98.2033 345.501 97.8495 345.636 97.5191C345.771 97.1887 345.971 96.8887 346.224 96.6366C346.477 96.3845 346.777 96.1854 347.108 96.0512C347.439 95.9166 347.794 95.8495 348.151 95.8537H358.553C358.91 95.8495 359.264 95.9166 359.596 96.0512C359.926 96.1854 360.227 96.3845 360.48 96.6366C360.733 96.8887 360.933 97.1887 361.067 97.5191C361.203 97.8495 361.271 98.2033 361.267 98.5604L361.263 111.675ZM359.504 111.457H361.044V98.5762C361.047 98.2483 360.985 97.9229 360.86 97.6195C360.736 97.3158 360.552 97.0399 360.32 96.8083C360.087 96.5766 359.811 96.3937 359.507 96.27C359.203 96.1462 358.877 96.0845 358.549 96.0883H348.163C347.835 96.0845 347.509 96.1462 347.205 96.27C346.901 96.3937 346.625 96.577 346.393 96.8087C346.161 97.0404 345.978 97.3162 345.854 97.6195C345.73 97.9233 345.668 98.2483 345.672 98.5762V111.457H347.208V105.766H359.52L359.504 111.457ZM359.504 104.227H347.208V98.5762C347.211 98.3241 347.313 98.0833 347.491 97.905C347.669 97.727 347.911 97.6254 348.163 97.6225H358.565C358.817 97.6254 359.058 97.727 359.237 97.905C359.415 98.0833 359.517 98.3241 359.52 98.5762L359.504 104.227ZM347.411 104.009H359.285V98.5762C359.28 98.3829 359.201 98.1987 359.064 98.062C358.927 97.9249 358.742 97.8458 358.549 97.8408H348.163C347.969 97.8458 347.785 97.9249 347.648 98.062C347.511 98.1987 347.432 98.3829 347.427 98.5762L347.411 104.009Z" fill="white"/>
<path d="M361.227 111.626H359.357V105.931H347.375V111.626H345.505V98.579C345.501 98.2294 345.567 97.8823 345.7 97.5586C345.832 97.2348 346.027 96.9406 346.275 96.6931C346.523 96.4461 346.817 96.2506 347.141 96.1186C347.465 95.9865 347.813 95.9202 348.163 95.924H358.565C358.915 95.9202 359.263 95.9865 359.587 96.1186C359.911 96.2506 360.206 96.4461 360.454 96.6931C360.702 96.9402 360.898 97.2344 361.031 97.5582C361.163 97.8819 361.23 98.229 361.227 98.579V111.626ZM359.468 111.511H361.112V98.579C361.115 98.244 361.051 97.9123 360.924 97.6023C360.797 97.2923 360.61 97.0111 360.372 96.7744C360.135 96.5381 359.853 96.3511 359.543 96.2248C359.233 96.0986 358.9 96.0356 358.565 96.0394H348.163C347.828 96.0356 347.495 96.0986 347.185 96.2248C346.875 96.3511 346.592 96.5381 346.355 96.7744C346.118 97.0111 345.931 97.2923 345.804 97.6023C345.677 97.9123 345.613 98.244 345.616 98.579V111.511H347.26V105.82H359.468V111.511ZM359.468 104.179H347.26V98.579C347.263 98.3406 347.359 98.1127 347.528 97.9444C347.697 97.7756 347.924 97.6798 348.163 97.6769H358.565C358.803 97.6798 359.032 97.7756 359.2 97.9444C359.369 98.1127 359.465 98.3406 359.468 98.579V104.179ZM347.375 104.067H359.357V98.579C359.357 98.3681 359.273 98.1661 359.124 98.0169C358.974 97.8677 358.772 97.784 358.561 97.784H348.163C347.952 97.784 347.75 97.8677 347.6 98.0169C347.451 98.1661 347.367 98.3681 347.367 98.579L347.375 104.067Z" fill="white"/>
<path d="M361.335 111.734H359.245V106.043H347.483V111.734H345.393V98.5789C345.39 98.2135 345.459 97.851 345.598 97.5131C345.737 97.1747 345.942 96.8676 346.202 96.6101C346.462 96.3526 346.771 96.1501 347.11 96.0135C347.45 95.8772 347.813 95.8106 348.179 95.8168H358.581C358.947 95.8106 359.31 95.8772 359.65 96.0135C359.989 96.1501 360.298 96.3526 360.558 96.6101C360.817 96.8676 361.022 97.1747 361.161 97.5131C361.3 97.851 361.37 98.2135 361.366 98.5789L361.335 111.734ZM359.579 111.404H361V98.5789C361.006 98.2581 360.947 97.9393 360.827 97.6418C360.707 97.3443 360.527 97.0739 360.3 96.8472C360.073 96.6206 359.802 96.4418 359.504 96.3222C359.205 96.2026 358.886 96.1443 358.565 96.1506H348.163C347.842 96.1443 347.522 96.2026 347.224 96.3222C346.926 96.4418 346.655 96.6206 346.428 96.8472C346.201 97.0739 346.021 97.3443 345.901 97.6418C345.781 97.9393 345.722 98.2581 345.728 98.5789V111.404H347.152V105.709H359.579V111.404ZM359.579 104.29H347.152V98.5789C347.156 98.3126 347.264 98.0581 347.453 97.8697C347.642 97.6814 347.896 97.5735 348.163 97.5693H358.565C358.832 97.5735 359.087 97.681 359.277 97.8693C359.466 98.0576 359.574 98.3122 359.579 98.5789V104.29ZM347.483 103.956H359.245V98.5789C359.242 98.4001 359.169 98.2293 359.043 98.1031C358.915 97.9772 358.744 97.9056 358.565 97.9035H348.163C347.984 97.9056 347.813 97.9772 347.685 98.1031C347.559 98.2293 347.486 98.4001 347.483 98.5789V103.956Z" fill="white"/>
<path d="M379.942 95.9825C380.284 95.9792 380.623 96.0442 380.94 96.1734C381.257 96.3025 381.545 96.4938 381.788 96.735C382.03 96.9767 382.222 97.2642 382.351 97.5805C382.481 97.8967 382.547 98.2359 382.544 98.5775V108.97C382.547 109.313 382.481 109.652 382.351 109.968C382.222 110.285 382.03 110.573 381.788 110.814C381.546 111.056 381.257 111.248 380.941 111.377C380.624 111.507 380.284 111.572 379.942 111.57H366.937V95.9825H379.942ZM380.789 98.5775C380.785 98.3546 380.694 98.1421 380.536 97.985C380.378 97.8275 380.165 97.738 379.942 97.735H369.54C369.317 97.738 369.103 97.8275 368.945 97.985C368.787 98.1421 368.696 98.3546 368.692 98.5775V108.97C368.696 109.193 368.787 109.406 368.945 109.563C369.103 109.72 369.317 109.81 369.54 109.813H379.942C380.165 109.81 380.378 109.72 380.536 109.563C380.694 109.406 380.785 109.193 380.789 108.97V98.5775Z" fill="white"/>
<path d="M379.941 111.679H366.81V95.885H379.941C380.298 95.8804 380.653 95.9475 380.984 96.0821C381.315 96.2167 381.616 96.4158 381.868 96.6679C382.121 96.92 382.321 97.22 382.456 97.5504C382.591 97.8804 382.659 98.2346 382.655 98.5912V108.984C382.657 109.34 382.588 109.692 382.453 110.022C382.317 110.35 382.117 110.649 381.864 110.9C381.611 111.151 381.311 111.349 380.981 111.482C380.651 111.616 380.298 111.683 379.941 111.679ZM367.044 111.46H379.941C380.27 111.464 380.596 111.402 380.9 111.278C381.204 111.155 381.48 110.972 381.713 110.74C381.945 110.508 382.129 110.232 382.253 109.929C382.377 109.625 382.439 109.3 382.437 108.972V98.5796C382.439 98.2512 382.377 97.9262 382.253 97.6225C382.129 97.3192 381.945 97.0433 381.713 96.8117C381.48 96.58 381.204 96.3967 380.9 96.2733C380.596 96.1496 380.27 96.0879 379.941 96.0917H367.044V111.46ZM379.941 109.926H369.54C369.287 109.923 369.046 109.822 368.868 109.643C368.689 109.465 368.588 109.224 368.585 108.972V98.5796C368.588 98.3275 368.689 98.0867 368.868 97.9083C369.046 97.73 369.287 97.6287 369.54 97.6254H379.941C380.194 97.6287 380.435 97.73 380.613 97.9083C380.792 98.0867 380.893 98.3275 380.896 98.5796V108.972C380.893 109.224 380.792 109.465 380.613 109.643C380.435 109.822 380.194 109.923 379.941 109.926ZM369.54 97.8442C369.346 97.8492 369.162 97.9283 369.025 98.065C368.888 98.2021 368.808 98.3858 368.803 98.5796V108.972C368.808 109.166 368.888 109.35 369.025 109.487C369.162 109.623 369.346 109.702 369.54 109.707H379.941C380.135 109.702 380.319 109.623 380.457 109.487C380.593 109.35 380.673 109.166 380.678 108.972V98.5796C380.673 98.3858 380.593 98.2021 380.457 98.065C380.319 97.9283 380.135 97.8492 379.941 97.8442H369.54Z" fill="white"/>
<path d="M379.941 111.626H366.881V95.924H379.941C380.291 95.9202 380.639 95.9865 380.963 96.1186C381.287 96.2506 381.582 96.4461 381.829 96.6931C382.077 96.9406 382.273 97.2348 382.405 97.5586C382.537 97.8823 382.603 98.2294 382.6 98.579V108.972C382.603 109.321 382.537 109.668 382.405 109.992C382.273 110.316 382.077 110.61 381.829 110.857C381.582 111.104 381.287 111.3 380.963 111.432C380.639 111.564 380.291 111.63 379.941 111.626ZM366.993 111.511H379.941C380.277 111.516 380.609 111.453 380.92 111.327C381.231 111.201 381.513 111.014 381.75 110.777C381.988 110.541 382.175 110.259 382.302 109.949C382.429 109.639 382.492 109.306 382.488 108.972V98.579C382.491 98.244 382.428 97.9123 382.301 97.6023C382.174 97.2923 381.986 97.0111 381.749 96.7744C381.512 96.5381 381.23 96.3511 380.919 96.2248C380.609 96.0986 380.276 96.0356 379.941 96.0394H366.993V111.511ZM379.941 109.874H369.54C369.301 109.871 369.073 109.775 368.904 109.606C368.736 109.438 368.639 109.21 368.636 108.972V98.579C368.639 98.3406 368.736 98.1127 368.904 97.9444C369.073 97.7756 369.301 97.6798 369.54 97.6769H379.941C380.18 97.6798 380.408 97.7756 380.577 97.9444C380.745 98.1127 380.842 98.3406 380.845 98.579V108.972C380.842 109.21 380.745 109.438 380.577 109.606C380.408 109.775 380.18 109.871 379.941 109.874ZM369.54 97.7919C369.329 97.7919 369.126 97.8756 368.977 98.0248C368.828 98.174 368.744 98.3761 368.744 98.5869V108.98C368.744 109.191 368.828 109.393 368.977 109.542C369.126 109.691 369.329 109.774 369.54 109.774H379.941C380.152 109.774 380.355 109.691 380.504 109.542C380.654 109.393 380.737 109.191 380.737 108.98V98.579C380.737 98.3681 380.654 98.1661 380.504 98.0169C380.355 97.8677 380.152 97.784 379.941 97.784L369.54 97.7919Z" fill="white"/>
<path d="M379.941 111.734H366.77V95.8168H379.941C380.307 95.8106 380.67 95.8772 381.01 96.0135C381.35 96.1501 381.658 96.3526 381.918 96.6101C382.178 96.8676 382.383 97.1747 382.522 97.5131C382.661 97.851 382.731 98.2135 382.727 98.5789V108.972C382.731 109.337 382.661 109.7 382.522 110.038C382.383 110.376 382.178 110.683 381.918 110.941C381.658 111.198 381.35 111.401 381.01 111.537C380.67 111.673 380.307 111.74 379.941 111.734ZM367.104 111.404H379.941C380.262 111.407 380.58 111.346 380.877 111.226C381.174 111.104 381.443 110.925 381.67 110.699C381.897 110.472 382.076 110.203 382.198 109.906C382.319 109.61 382.38 109.292 382.377 108.972V98.5789C382.383 98.2581 382.323 97.9393 382.203 97.6418C382.083 97.3443 381.904 97.0739 381.676 96.8472C381.449 96.6206 381.178 96.4418 380.88 96.3222C380.582 96.2026 380.262 96.1443 379.941 96.1506H367.104V111.404ZM379.941 109.981H369.539C369.272 109.978 369.016 109.871 368.826 109.682C368.637 109.494 368.529 109.239 368.525 108.972V98.5789C368.53 98.3122 368.638 98.0576 368.828 97.8693C369.017 97.681 369.272 97.5735 369.539 97.5693H379.941C380.208 97.5735 380.464 97.681 380.653 97.8693C380.842 98.0576 380.951 98.3122 380.956 98.5789V108.972C380.952 109.239 380.844 109.494 380.654 109.682C380.464 109.871 380.209 109.978 379.941 109.981ZM369.539 97.9035C369.36 97.9056 369.189 97.9772 369.062 98.1031C368.935 98.2293 368.862 98.4001 368.859 98.5789V108.972C368.862 109.151 368.935 109.322 369.062 109.449C369.189 109.576 369.36 109.648 369.539 109.651H379.941C380.121 109.648 380.292 109.576 380.419 109.449C380.546 109.322 380.619 109.151 380.622 108.972V98.5789C380.619 98.4001 380.546 98.2293 380.419 98.1031C380.292 97.9772 380.12 97.9056 379.941 97.9035H369.539Z" fill="white"/>
<path d="M402.508 97.7353H390.025V102.902H400.061V104.678H390.025V109.845H402.508V111.602H388.27V95.9824H402.508V97.7353Z" fill="white"/>
<path d="M402.619 111.679H388.159V95.8848H402.619V97.8718H390.133V102.808H400.168V104.795H390.133V109.731H402.619V111.679ZM388.377 111.46H402.4V109.926H389.914V104.553H399.949V102.999H389.914V97.6256H402.4V96.0914H388.377V111.46Z" fill="white"/>
<path d="M402.568 111.626H388.21V95.9238H402.568V97.7917H390.081V102.831H400.117V104.719H390.081V109.758H402.568V111.626ZM388.326 111.511H402.452V109.873H389.969V104.628H400.005V102.966H389.969V97.6763H402.452V96.0388H388.322L388.326 111.511Z" fill="white"/>
<path d="M402.675 111.733H388.103V95.8164H402.675V97.9031H390.192V102.72H400.228V104.83H390.192V109.651H402.675V111.733ZM388.433 111.403H402.36V109.981H389.874V104.496H399.909V103.038H389.874V97.5531H402.36V96.1343H388.433V111.403Z" fill="white"/>
<path d="M423.671 103.168C423.671 103.509 423.604 103.848 423.475 104.164C423.345 104.479 423.153 104.767 422.911 105.008C422.669 105.249 422.382 105.441 422.065 105.571C421.747 105.702 421.41 105.768 421.067 105.767H418.681L423.579 111.569H421.259L416.38 105.767H410.657C410.375 105.754 410.093 105.725 409.814 105.679V111.569H408.059V96.002H421.063C421.405 96.0011 421.743 96.0674 422.06 96.1978C422.377 96.3282 422.665 96.5195 422.907 96.7611C423.149 97.0024 423.341 97.2895 423.47 97.6053C423.6 97.9211 423.667 98.2595 423.667 98.6011L423.671 103.168ZM421.067 103.99C421.284 103.99 421.497 103.904 421.651 103.749C421.806 103.595 421.889 103.386 421.889 103.168V98.6011C421.893 98.3807 421.806 98.1682 421.651 98.0099C421.497 97.8515 421.289 97.7599 421.067 97.7549H410.662C410.438 97.759 410.226 97.8495 410.068 98.0074C409.911 98.1653 409.821 98.3782 409.818 98.6011V103.168C409.823 103.388 409.914 103.597 410.072 103.751C410.23 103.904 410.441 103.99 410.662 103.99H421.067Z" fill="white"/>
<path d="M423.817 111.679H421.209L416.336 105.876H410.662C410.416 105.869 410.172 105.844 409.929 105.805V111.679H407.94V95.8848H421.072C421.789 95.8848 422.478 96.1698 422.987 96.6777C423.496 97.1852 423.783 97.8735 423.783 98.5914V103.158C423.783 103.876 423.496 104.564 422.987 105.071C422.478 105.579 421.789 105.864 421.072 105.864H418.923L423.817 111.679ZM421.314 111.46H423.341L418.439 105.658H421.059C421.718 105.656 422.352 105.394 422.82 104.928C423.287 104.461 423.55 103.829 423.55 103.17V98.6031C423.55 97.9435 423.287 97.3106 422.82 96.8439C422.352 96.3773 421.718 96.1152 421.059 96.1152H408.163V111.46H409.702V105.558L409.926 105.586C410.167 105.624 410.41 105.647 410.654 105.658H416.428L421.314 111.46ZM421.068 104.104H410.662C410.413 104.103 410.173 104.004 409.996 103.83C409.818 103.656 409.716 103.419 409.711 103.17V98.6031C409.713 98.3514 409.813 98.1106 409.991 97.9323C410.169 97.7539 410.41 97.6527 410.662 97.6493H421.068C421.318 97.6556 421.556 97.7585 421.731 97.9369C421.902 98.1148 422.002 98.3539 422.002 98.6031V103.17C422.002 103.417 421.902 103.654 421.727 103.829C421.551 104.004 421.314 104.103 421.068 104.104ZM410.662 97.8718C410.468 97.8768 410.284 97.9564 410.148 98.0931C410.012 98.2302 409.934 98.4143 409.929 98.6073V103.174C409.935 103.364 410.014 103.545 410.151 103.678C410.288 103.811 410.471 103.885 410.662 103.885H421.068C421.255 103.885 421.439 103.81 421.572 103.677C421.706 103.544 421.781 103.362 421.781 103.174V98.6031C421.781 98.4118 421.706 98.2281 421.572 98.0906C421.439 97.9531 421.259 97.8731 421.068 97.8681L410.662 97.8718Z" fill="white"/>
<path d="M423.704 111.626H421.234V111.606L416.36 105.82H410.661C410.411 105.809 410.161 105.786 409.913 105.748H409.873V111.63H408.003V95.9473H421.067C421.772 95.9485 422.448 96.2285 422.944 96.726C423.445 97.2239 423.725 97.8985 423.725 98.6023V103.169C423.725 103.873 423.445 104.547 422.944 105.045C422.448 105.543 421.772 105.823 421.067 105.824H418.806L423.704 111.626ZM421.288 111.511H423.458L418.564 105.709H421.071C421.747 105.709 422.394 105.441 422.869 104.964C423.345 104.488 423.612 103.842 423.612 103.169V98.6023C423.612 97.9285 423.345 97.2819 422.869 96.8052C422.394 96.3281 421.747 96.0598 421.071 96.0585H408.123V111.511H409.766V105.617L409.929 105.637C410.173 105.674 410.419 105.698 410.665 105.709H416.415L421.288 111.511ZM421.067 104.047H410.661C410.426 104.047 410.2 103.955 410.032 103.791C409.864 103.627 409.767 103.404 409.762 103.169V98.6023C409.764 98.3644 409.859 98.1369 410.028 97.9681C410.196 97.7994 410.423 97.7031 410.661 97.7002H421.067C421.301 97.7064 421.526 97.8039 421.689 97.9727C421.856 98.141 421.947 98.3673 421.947 98.6023V103.169C421.947 103.284 421.922 103.398 421.881 103.505C421.835 103.611 421.772 103.708 421.689 103.79C421.605 103.871 421.509 103.936 421.405 103.98C421.297 104.024 421.184 104.047 421.067 104.047ZM410.661 97.8152C410.45 97.8152 410.248 97.8989 410.098 98.0481C409.949 98.1973 409.865 98.3994 409.865 98.6102V103.177C409.873 103.383 409.96 103.578 410.108 103.721C410.257 103.864 410.455 103.944 410.661 103.944H421.067C421.272 103.943 421.463 103.861 421.609 103.718C421.751 103.574 421.835 103.38 421.835 103.177V98.6023C421.835 98.396 421.755 98.1981 421.614 98.0498C421.468 97.9014 421.272 97.8148 421.067 97.8073L410.661 97.8152Z" fill="white"/>
<path d="M423.942 111.731H421.188L416.308 105.929H410.661C410.435 105.921 410.209 105.901 409.985 105.869V111.731H407.896V95.834H421.067C421.806 95.834 422.515 96.1269 423.036 96.6486C423.558 97.1707 423.854 97.8782 423.854 98.6161V103.182C423.846 103.917 423.554 104.619 423.028 105.137C422.507 105.654 421.801 105.944 421.067 105.944H419.04L423.942 111.731ZM421.343 111.401H423.224L418.326 105.599H421.067C421.714 105.598 422.331 105.341 422.786 104.885C423.245 104.429 423.499 103.811 423.504 103.166V98.5998C423.499 97.9552 423.245 97.3373 422.786 96.8815C422.331 96.4252 421.714 96.169 421.067 96.1677H408.218V111.401H409.639V105.491L409.929 105.527C410.168 105.564 410.408 105.587 410.649 105.599H416.451L416.483 105.639L421.343 111.401ZM421.067 104.156H410.661C410.397 104.155 410.144 104.051 409.955 103.866C409.766 103.681 409.657 103.431 409.65 103.166V98.5998C409.655 98.3336 409.762 98.079 409.951 97.8907C410.14 97.7023 410.395 97.5948 410.661 97.5907H421.067C421.33 97.5969 421.585 97.7057 421.768 97.8944C421.952 98.0827 422.056 98.3361 422.056 98.5998V103.166C422.056 103.429 421.952 103.68 421.768 103.865C421.58 104.051 421.33 104.155 421.067 104.156ZM410.661 97.9202C410.483 97.9257 410.313 97.999 410.187 98.1252C410.061 98.2519 409.989 98.4219 409.985 98.5998V103.166C409.99 103.342 410.063 103.509 410.19 103.631C410.316 103.754 410.485 103.822 410.661 103.822H421.067C421.242 103.822 421.409 103.753 421.53 103.63C421.655 103.507 421.722 103.34 421.722 103.166V98.5998C421.726 98.4236 421.655 98.2536 421.534 98.1265C421.409 97.9998 421.242 97.9257 421.067 97.9202H410.661Z" fill="white"/>
<path d="M444.033 103.406C444.3 103.652 444.513 103.949 444.663 104.281C444.813 104.612 444.893 104.97 444.897 105.334V108.97C444.901 109.312 444.834 109.651 444.705 109.967C444.576 110.283 444.384 110.571 444.146 110.813C443.904 111.055 443.616 111.246 443.299 111.376C442.982 111.506 442.644 111.572 442.302 111.57H429.294V95.9825H441.626C441.968 95.9796 442.31 96.045 442.627 96.1746C442.94 96.3042 443.228 96.495 443.47 96.7367C443.712 96.9779 443.904 97.2654 444.033 97.5813C444.163 97.8975 444.229 98.2358 444.225 98.5775V101.892C444.225 102.29 444.125 102.683 443.946 103.037L444.033 103.406ZM431.893 97.735C431.672 97.7392 431.459 97.8292 431.301 97.9858C431.142 98.1429 431.05 98.355 431.046 98.5775V101.892C431.05 102.115 431.142 102.327 431.301 102.484C431.459 102.641 431.672 102.73 431.893 102.735H441.626C441.847 102.73 442.056 102.638 442.21 102.481C442.365 102.323 442.452 102.112 442.452 101.892V98.5775C442.452 98.3575 442.365 98.1463 442.21 97.9888C442.056 97.8313 441.847 97.74 441.626 97.735H431.893ZM443.145 105.334C443.14 105.111 443.053 104.898 442.894 104.74C442.736 104.582 442.523 104.491 442.302 104.488H431.893C431.672 104.491 431.459 104.582 431.301 104.74C431.142 104.898 431.05 105.111 431.046 105.334V108.97C431.05 109.193 431.142 109.405 431.301 109.562C431.459 109.719 431.672 109.809 431.893 109.813H442.302C442.523 109.809 442.736 109.719 442.894 109.562C443.049 109.405 443.14 109.193 443.145 108.97V105.334Z" fill="white"/>
<path d="M442.294 111.679H429.161V95.8849H441.606C441.96 95.8816 442.315 95.9486 442.644 96.0836C442.978 96.2182 443.278 96.4174 443.529 96.6695C443.779 96.9215 443.979 97.2216 444.117 97.5516C444.251 97.8816 444.317 98.2353 444.313 98.5916V101.906C444.309 102.309 444.217 102.706 444.038 103.067L444.109 103.365C444.38 103.62 444.597 103.928 444.751 104.269C444.901 104.61 444.981 104.979 444.985 105.352V108.988C444.989 109.342 444.918 109.693 444.785 110.02C444.651 110.347 444.451 110.644 444.2 110.894C443.95 111.144 443.654 111.343 443.324 111.477C442.999 111.612 442.649 111.681 442.294 111.679ZM429.394 111.46H442.294C442.619 111.464 442.945 111.402 443.249 111.279C443.554 111.155 443.829 110.972 444.063 110.74C444.296 110.508 444.48 110.232 444.601 109.929C444.726 109.625 444.789 109.3 444.785 108.972V105.336C444.78 104.987 444.701 104.644 444.559 104.326C444.417 104.008 444.209 103.723 443.95 103.488L443.925 103.468L443.821 103.027V102.991C443.996 102.652 444.088 102.276 444.092 101.894V98.5795C444.096 98.252 444.034 97.9265 443.908 97.6232C443.787 97.3195 443.604 97.044 443.37 96.812C443.137 96.5803 442.861 96.3974 442.557 96.2736C442.252 96.1499 441.927 96.0878 441.601 96.0916H429.378L429.394 111.46ZM442.294 109.926H431.885C431.635 109.923 431.393 109.822 431.213 109.644C431.038 109.465 430.934 109.224 430.934 108.972V105.336C430.934 105.084 431.038 104.843 431.213 104.665C431.393 104.487 431.635 104.385 431.885 104.382H442.294C442.544 104.385 442.786 104.487 442.961 104.665C443.141 104.844 443.241 105.084 443.245 105.336V108.972C443.241 109.224 443.141 109.465 442.961 109.643C442.786 109.822 442.544 109.923 442.294 109.926ZM431.885 104.601C431.693 104.605 431.51 104.684 431.372 104.821C431.234 104.957 431.155 105.142 431.151 105.336V108.972C431.155 109.166 431.234 109.35 431.372 109.487C431.51 109.624 431.693 109.703 431.885 109.708H442.294C442.486 109.702 442.669 109.622 442.807 109.485C442.941 109.349 443.02 109.165 443.024 108.972V105.336C443.02 105.143 442.941 104.959 442.807 104.822C442.669 104.685 442.486 104.606 442.294 104.601H431.885ZM441.622 102.848H431.885C431.635 102.845 431.393 102.744 431.213 102.565C431.038 102.387 430.934 102.146 430.934 101.894V98.5795C430.934 98.3278 431.038 98.087 431.213 97.9086C431.393 97.7303 431.635 97.629 431.885 97.6257H441.622C441.868 97.632 442.106 97.7353 442.281 97.9136C442.452 98.0916 442.553 98.3307 442.553 98.5795V101.894C442.553 102.143 442.452 102.382 442.281 102.56C442.106 102.739 441.868 102.842 441.622 102.848ZM431.885 97.8445C431.693 97.8495 431.51 97.9286 431.372 98.0653C431.234 98.202 431.155 98.3861 431.151 98.5795V101.894C431.155 102.088 431.234 102.272 431.372 102.409C431.51 102.545 431.693 102.624 431.885 102.629H441.622C441.81 102.623 441.994 102.543 442.127 102.406C442.256 102.269 442.331 102.085 442.331 101.894V98.5795C442.331 98.3886 442.256 98.2053 442.127 98.0678C441.994 97.9307 441.81 97.8507 441.622 97.8445H431.885Z" fill="white"/>
<path d="M442.294 111.626H429.228V95.9239H441.622C441.968 95.9206 442.319 95.9873 442.64 96.1194C442.966 96.2519 443.258 96.4473 443.508 96.6944C443.754 96.9414 443.95 97.2356 444.084 97.559C444.217 97.8827 444.28 98.2294 444.28 98.579V101.894C444.275 102.294 444.18 102.688 444 103.046L444.075 103.376C444.346 103.626 444.563 103.929 444.714 104.266C444.864 104.603 444.943 104.966 444.947 105.335V108.971C444.951 109.321 444.885 109.668 444.751 109.991C444.622 110.314 444.426 110.609 444.179 110.856C443.929 111.103 443.637 111.299 443.312 111.431C442.991 111.563 442.644 111.63 442.294 111.626ZM429.34 111.511H442.294C442.628 111.515 442.961 111.452 443.27 111.326C443.579 111.199 443.862 111.012 444.1 110.776C444.338 110.539 444.522 110.258 444.651 109.948C444.776 109.638 444.839 109.306 444.835 108.971V105.335C444.83 104.98 444.751 104.629 444.605 104.305C444.459 103.981 444.246 103.69 443.983 103.451V103.436L443.892 103.038V103.018C444.071 102.671 444.163 102.287 444.167 101.897V98.5827C444.171 98.2485 444.109 97.9169 443.979 97.6073C443.854 97.2977 443.666 97.0164 443.429 96.7798C443.191 96.5435 442.911 96.3564 442.603 96.2302C442.29 96.1035 441.96 96.0402 441.626 96.0431H429.344L429.34 111.511ZM442.294 109.874H431.885C431.647 109.871 431.422 109.775 431.251 109.606C431.084 109.438 430.988 109.21 430.984 108.971V105.335C430.988 105.097 431.084 104.869 431.251 104.701C431.422 104.532 431.647 104.436 431.885 104.433H442.294C442.532 104.436 442.757 104.532 442.928 104.701C443.095 104.869 443.191 105.097 443.191 105.335V108.971C443.191 109.21 443.095 109.437 442.928 109.606C442.757 109.774 442.532 109.871 442.294 109.874ZM431.885 104.548C431.676 104.548 431.472 104.632 431.326 104.781C431.176 104.93 431.092 105.132 431.092 105.343V108.98C431.092 109.19 431.176 109.393 431.326 109.541C431.472 109.691 431.676 109.774 431.885 109.774H442.294C442.502 109.774 442.707 109.691 442.857 109.541C443.003 109.393 443.091 109.19 443.091 108.98V105.343C443.091 105.132 443.003 104.93 442.857 104.781C442.707 104.632 442.502 104.548 442.294 104.548H431.885ZM441.622 102.791H431.885C431.647 102.789 431.422 102.694 431.251 102.526C431.084 102.359 430.988 102.131 430.984 101.894V98.579C430.988 98.3406 431.084 98.1127 431.251 97.9444C431.422 97.7756 431.647 97.6798 431.885 97.6765H441.622C441.856 97.6827 442.081 97.7806 442.244 97.9494C442.406 98.1177 442.498 98.3435 442.498 98.579V101.894C442.498 102.128 442.406 102.354 442.244 102.521C442.081 102.689 441.856 102.786 441.622 102.791ZM431.885 97.7919C431.676 97.7919 431.472 97.8756 431.326 98.0248C431.176 98.174 431.092 98.376 431.092 98.5869V101.901C431.092 102.112 431.176 102.314 431.326 102.464C431.472 102.612 431.676 102.696 431.885 102.696H441.622C441.827 102.688 442.018 102.601 442.164 102.452C442.306 102.304 442.386 102.107 442.386 101.901V98.5869C442.386 98.3815 442.306 98.184 442.164 98.0356C442.018 97.8873 441.827 97.8002 441.622 97.7919H431.885Z" fill="white"/>
<path d="M442.294 111.732H429.119V95.8149H441.622C441.985 95.8082 442.348 95.8745 442.69 96.0107C443.028 96.147 443.337 96.3495 443.6 96.6074C443.858 96.8649 444.063 97.172 444.2 97.5103C444.342 97.8487 444.409 98.2116 444.405 98.577V101.892C444.405 102.295 444.313 102.693 444.134 103.056L444.196 103.319C444.467 103.579 444.688 103.891 444.839 104.237C444.993 104.583 445.072 104.956 445.076 105.334V108.97C445.081 109.335 445.014 109.698 444.872 110.036C444.734 110.374 444.53 110.681 444.271 110.939C444.008 111.196 443.7 111.399 443.362 111.535C443.024 111.672 442.657 111.739 442.294 111.732ZM429.453 111.402H442.294C442.615 111.408 442.932 111.349 443.233 111.229C443.529 111.109 443.8 110.93 444.025 110.703C444.255 110.476 444.434 110.205 444.551 109.907C444.672 109.609 444.73 109.291 444.726 108.97V105.334C444.722 104.994 444.651 104.659 444.513 104.349C444.376 104.039 444.175 103.76 443.929 103.529L443.904 103.505L443.883 103.462L443.775 103.017V102.984C443.95 102.647 444.046 102.272 444.046 101.892V98.577C444.054 98.2566 443.996 97.9382 443.875 97.6407C443.754 97.3437 443.575 97.0737 443.349 96.847C443.12 96.6203 442.853 96.4416 442.552 96.3216C442.256 96.2016 441.935 96.1428 441.618 96.1487H429.449L429.453 111.402ZM442.294 109.979H431.885C431.618 109.977 431.364 109.869 431.176 109.681C430.984 109.492 430.875 109.237 430.871 108.97V105.334C430.875 105.066 430.984 104.812 431.176 104.623C431.364 104.434 431.618 104.327 431.885 104.324H442.294C442.561 104.328 442.815 104.436 443.003 104.624C443.191 104.813 443.299 105.067 443.303 105.334V108.97C443.299 109.237 443.191 109.491 443.003 109.679C442.815 109.868 442.561 109.975 442.294 109.979ZM431.885 104.654C431.71 104.659 431.539 104.732 431.409 104.859C431.284 104.985 431.213 105.155 431.205 105.334V108.97C431.213 109.149 431.284 109.319 431.409 109.445C431.539 109.571 431.71 109.645 431.885 109.65H442.294C442.473 109.647 442.644 109.574 442.769 109.447C442.895 109.32 442.966 109.149 442.97 108.97V105.334C442.966 105.155 442.895 104.985 442.765 104.859C442.64 104.732 442.473 104.659 442.294 104.654H431.885ZM441.622 102.901H431.885C431.618 102.897 431.364 102.789 431.176 102.601C430.984 102.413 430.875 102.159 430.871 101.892V98.577C430.875 98.3103 430.984 98.0557 431.176 97.8674C431.364 97.6791 431.618 97.5716 431.885 97.5678H441.622C441.885 97.5741 442.135 97.6828 442.319 97.8716C442.502 98.0603 442.607 98.3137 442.607 98.577V101.892C442.607 102.155 442.502 102.409 442.319 102.597C442.135 102.786 441.885 102.895 441.622 102.901ZM431.885 97.9016C431.71 97.9053 431.539 97.9778 431.414 98.1037C431.284 98.2295 431.213 98.3991 431.205 98.577V101.892C431.213 102.07 431.284 102.239 431.414 102.365C431.539 102.491 431.71 102.563 431.885 102.567H441.622C441.797 102.562 441.964 102.489 442.085 102.362C442.206 102.237 442.277 102.067 442.277 101.892V98.577C442.277 98.4012 442.206 98.2324 442.085 98.1062C441.964 97.9803 441.797 97.9066 441.622 97.9016H431.885Z" fill="white"/>
<path d="M463.47 95.9825C463.812 95.9792 464.15 96.0442 464.467 96.1734C464.784 96.3025 465.072 96.4938 465.314 96.735C465.56 96.9767 465.748 97.2642 465.882 97.5805C466.011 97.8967 466.074 98.2359 466.074 98.5775V108.97C466.074 109.313 466.011 109.652 465.882 109.968C465.752 110.285 465.56 110.573 465.318 110.814C465.072 111.056 464.784 111.248 464.467 111.377C464.154 111.507 463.812 111.572 463.47 111.57H453.066C452.724 111.572 452.381 111.507 452.064 111.377C451.747 111.248 451.459 111.056 451.217 110.814C450.975 110.573 450.784 110.285 450.654 109.968C450.525 109.652 450.458 109.313 450.462 108.97V98.5775C450.458 98.2359 450.525 97.8967 450.654 97.5805C450.784 97.2642 450.975 96.9767 451.217 96.735C451.459 96.4938 451.747 96.3025 452.064 96.1734C452.381 96.0442 452.724 95.9792 453.066 95.9825H463.47ZM463.47 109.813C463.691 109.809 463.904 109.719 464.063 109.562C464.221 109.405 464.309 109.193 464.313 108.97V98.5775C464.309 98.3555 464.221 98.1434 464.063 97.9863C463.904 97.8292 463.691 97.7392 463.47 97.735H453.066C452.84 97.7392 452.632 97.8292 452.473 97.9863C452.315 98.1434 452.227 98.3555 452.223 98.5775V108.97C452.227 109.193 452.315 109.405 452.473 109.562C452.632 109.719 452.84 109.809 453.066 109.813H463.47Z" fill="white"/>
<path d="M463.47 111.679H453.066C452.707 111.683 452.352 111.615 452.023 111.481C451.693 111.346 451.393 111.147 451.138 110.894C450.888 110.643 450.688 110.343 450.554 110.013C450.416 109.683 450.35 109.329 450.354 108.972V98.5799C450.35 98.2232 450.416 97.8699 450.554 97.5394C450.688 97.2094 450.888 96.9099 451.138 96.6578C451.393 96.4057 451.693 96.2065 452.023 96.0715C452.352 95.937 452.707 95.8694 453.066 95.8732H463.47C463.829 95.8694 464.179 95.937 464.513 96.0715C464.843 96.2065 465.143 96.4057 465.393 96.6578C465.648 96.9099 465.848 97.2094 465.982 97.5394C466.115 97.8699 466.182 98.2232 466.182 98.5799V108.972C466.182 109.329 466.115 109.683 465.982 110.013C465.848 110.343 465.648 110.643 465.393 110.894C465.143 111.147 464.843 111.346 464.513 111.481C464.179 111.615 463.829 111.683 463.47 111.679ZM453.066 96.0919C452.736 96.0882 452.411 96.1499 452.106 96.2736C451.801 96.3974 451.526 96.5803 451.297 96.8124C451.063 97.044 450.879 97.3199 450.754 97.6232C450.633 97.9269 450.571 98.2519 450.575 98.5799V108.972C450.571 109.3 450.633 109.626 450.754 109.929C450.879 110.232 451.063 110.508 451.297 110.74C451.526 110.972 451.801 111.155 452.106 111.279C452.411 111.402 452.736 111.464 453.066 111.46H463.47C463.8 111.464 464.125 111.402 464.43 111.279C464.73 111.155 465.01 110.972 465.239 110.74C465.473 110.508 465.656 110.232 465.777 109.929C465.902 109.626 465.965 109.3 465.961 108.972V98.5799C465.965 98.2519 465.902 97.9269 465.777 97.6232C465.656 97.3199 465.473 97.044 465.239 96.8124C465.01 96.5803 464.73 96.3974 464.43 96.2736C464.125 96.1499 463.8 96.0882 463.47 96.0919H453.066ZM463.47 109.927H453.066C452.811 109.923 452.569 109.822 452.394 109.644C452.214 109.465 452.114 109.224 452.11 108.972V98.5799C452.114 98.3278 452.214 98.0869 452.394 97.9086C452.569 97.7307 452.811 97.629 453.066 97.6261H463.47C463.72 97.629 463.962 97.7307 464.142 97.9086C464.321 98.0869 464.421 98.3278 464.426 98.5799V108.972C464.421 109.224 464.321 109.465 464.142 109.644C463.962 109.822 463.72 109.923 463.47 109.927ZM453.066 97.8444C452.869 97.8503 452.686 97.9299 452.552 98.0665C452.415 98.2032 452.335 98.3865 452.327 98.5799V108.972C452.335 109.166 452.415 109.349 452.552 109.486C452.686 109.622 452.869 109.702 453.066 109.708H463.47C463.662 109.702 463.846 109.622 463.983 109.486C464.121 109.349 464.2 109.166 464.204 108.972V98.5799C464.2 98.3865 464.121 98.2032 463.983 98.0665C463.846 97.9299 463.662 97.8503 463.47 97.8444H453.066Z" fill="white"/>
<path d="M463.47 111.626H453.066C452.715 111.63 452.369 111.563 452.044 111.431C451.718 111.299 451.426 111.103 451.18 110.856C450.93 110.609 450.734 110.315 450.604 109.991C450.471 109.668 450.404 109.321 450.408 108.972V98.579C450.404 98.2294 450.471 97.8827 450.604 97.559C450.734 97.2357 450.93 96.9419 451.18 96.6944C451.426 96.4473 451.718 96.2519 452.044 96.1198C452.369 95.9873 452.715 95.9211 453.066 95.924H463.47C463.821 95.9202 464.167 95.9865 464.492 96.1186C464.818 96.2506 465.11 96.4461 465.36 96.6931C465.606 96.9406 465.802 97.2348 465.936 97.5586C466.065 97.8823 466.132 98.2294 466.128 98.579V108.972C466.132 109.321 466.065 109.668 465.936 109.992C465.802 110.316 465.606 110.61 465.36 110.857C465.11 111.104 464.818 111.3 464.492 111.432C464.167 111.564 463.821 111.63 463.47 111.626ZM453.066 96.0394C452.732 96.0361 452.398 96.0998 452.089 96.2261C451.777 96.3527 451.497 96.5394 451.259 96.7761C451.021 97.0123 450.834 97.2936 450.709 97.6031C450.583 97.9127 450.521 98.2444 450.521 98.579V108.972C450.517 109.306 450.583 109.638 450.709 109.948C450.834 110.258 451.021 110.539 451.259 110.776C451.497 111.012 451.777 111.199 452.085 111.326C452.398 111.452 452.728 111.515 453.066 111.511H463.47C463.804 111.516 464.138 111.453 464.451 111.326C464.759 111.201 465.043 111.014 465.277 110.777C465.515 110.54 465.702 110.259 465.827 109.949C465.957 109.639 466.019 109.306 466.015 108.972V98.579C466.015 98.2444 465.953 97.9123 465.827 97.6027C465.702 97.2927 465.515 97.0115 465.277 96.7748C465.039 96.5381 464.759 96.3515 464.447 96.2248C464.138 96.0986 463.804 96.0356 463.47 96.0394H453.066ZM463.47 109.874H453.066C452.828 109.871 452.598 109.774 452.431 109.606C452.265 109.437 452.169 109.21 452.164 108.972V98.579C452.169 98.3411 452.265 98.1131 452.431 97.9448C452.598 97.7761 452.828 97.6798 453.066 97.6769H463.47C463.708 97.6798 463.938 97.7756 464.104 97.9444C464.275 98.1127 464.371 98.3406 464.376 98.579V108.972C464.371 109.21 464.275 109.438 464.104 109.606C463.938 109.775 463.708 109.871 463.47 109.874ZM453.066 97.7919C452.853 97.7919 452.653 97.8756 452.502 98.0248C452.352 98.174 452.269 98.3761 452.269 98.5869V108.98C452.269 109.191 452.352 109.393 452.502 109.542C452.653 109.691 452.853 109.774 453.066 109.774H463.47C463.683 109.774 463.883 109.691 464.034 109.542C464.184 109.393 464.267 109.191 464.267 108.98V98.579C464.267 98.3681 464.184 98.1661 464.034 98.0169C463.883 97.8677 463.683 97.784 463.47 97.784L453.066 97.7919Z" fill="white"/>
<path d="M463.47 111.732H453.066C452.699 111.739 452.336 111.672 451.994 111.537C451.656 111.4 451.347 111.197 451.088 110.94C450.825 110.682 450.621 110.375 450.483 110.037C450.346 109.698 450.275 109.336 450.279 108.97V98.577C450.275 98.2116 450.346 97.8487 450.483 97.5103C450.621 97.172 450.825 96.8649 451.088 96.6074C451.347 96.3495 451.656 96.147 451.994 96.0107C452.336 95.8745 452.699 95.8082 453.066 95.8149H463.47C463.837 95.8082 464.2 95.8745 464.538 96.0107C464.88 96.147 465.189 96.3495 465.448 96.6074C465.706 96.8649 465.915 97.172 466.053 97.5103C466.19 97.8487 466.261 98.2116 466.257 98.577V108.97C466.261 109.336 466.19 109.698 466.053 110.037C465.915 110.375 465.706 110.682 465.448 110.94C465.189 111.197 464.88 111.4 464.538 111.537C464.2 111.672 463.837 111.739 463.47 111.732ZM453.066 96.1487C452.744 96.1424 452.423 96.2007 452.127 96.3203C451.827 96.4399 451.555 96.6187 451.33 96.8453C451.101 97.072 450.921 97.3424 450.804 97.6399C450.684 97.9374 450.625 98.2562 450.629 98.577V108.97C450.625 109.29 450.688 109.608 450.809 109.905C450.93 110.201 451.109 110.47 451.334 110.697C451.564 110.923 451.831 111.102 452.127 111.224C452.427 111.344 452.744 111.405 453.066 111.402H463.47C463.792 111.405 464.109 111.344 464.405 111.224C464.705 111.102 464.972 110.923 465.202 110.697C465.427 110.47 465.606 110.201 465.727 109.905C465.848 109.608 465.911 109.29 465.907 108.97V98.577C465.911 98.2562 465.852 97.9374 465.731 97.6399C465.61 97.3424 465.431 97.072 465.206 96.8453C464.976 96.6187 464.709 96.4399 464.409 96.3203C464.113 96.2007 463.792 96.1424 463.47 96.1487H453.066ZM463.47 109.979H453.066C452.799 109.975 452.544 109.868 452.356 109.679C452.165 109.491 452.056 109.237 452.052 108.97V98.577C452.056 98.3107 452.165 98.0562 452.356 97.8678C452.544 97.6795 452.799 97.5716 453.066 97.5678H463.47C463.737 97.5716 463.992 97.6795 464.18 97.8678C464.367 98.0562 464.476 98.3107 464.48 98.577V108.97C464.48 109.237 464.371 109.492 464.184 109.68C463.992 109.869 463.737 109.976 463.47 109.979ZM453.066 97.9016C452.886 97.9037 452.715 97.9753 452.59 98.1016C452.461 98.2278 452.39 98.3987 452.39 98.577V108.97C452.39 109.149 452.461 109.32 452.59 109.447C452.715 109.574 452.886 109.647 453.066 109.65H463.47C463.65 109.647 463.821 109.574 463.95 109.447C464.075 109.32 464.146 109.149 464.15 108.97V98.577C464.146 98.3982 464.075 98.2274 463.946 98.1016C463.821 97.9753 463.65 97.9037 463.47 97.9016H453.066Z" fill="white"/>
<path d="M484.76 95.9825C485.102 95.9792 485.44 96.0442 485.757 96.1734C486.074 96.3025 486.362 96.4938 486.608 96.735C486.85 96.9767 487.042 97.2642 487.171 97.5805C487.3 97.8967 487.367 98.2359 487.363 98.5775V111.57H485.602V105.875H473.512V111.57H471.752V98.5775C471.747 98.2359 471.814 97.8967 471.944 97.5805C472.073 97.2642 472.265 96.9767 472.507 96.735C472.749 96.4938 473.037 96.3025 473.354 96.1734C473.671 96.0442 474.013 95.9792 474.355 95.9825H484.76ZM485.602 104.122V98.5575C485.598 98.3355 485.51 98.1238 485.352 97.9663C485.193 97.8092 484.981 97.7192 484.76 97.715H474.355C474.13 97.7192 473.921 97.8092 473.762 97.9663C473.604 98.1238 473.516 98.3355 473.512 98.5575V104.122H485.602Z" fill="white"/>
<path d="M487.471 111.675H485.481V105.984H473.604V111.675H471.614V98.5603C471.61 98.2037 471.677 97.8499 471.81 97.5199C471.948 97.1899 472.144 96.8903 472.398 96.6383C472.649 96.3862 472.949 96.187 473.283 96.052C473.612 95.9174 473.967 95.8499 474.321 95.8537H484.726C485.085 95.8499 485.44 95.9174 485.769 96.052C486.099 96.187 486.399 96.3862 486.654 96.6383C486.904 96.8903 487.104 97.1899 487.238 97.5199C487.375 97.8499 487.442 98.2037 487.438 98.5603L487.471 111.675ZM485.715 111.457H487.25V98.5762C487.254 98.2483 487.192 97.9232 487.071 97.6195C486.946 97.3162 486.762 97.0403 486.528 96.8087C486.299 96.5766 486.019 96.3937 485.719 96.2699C485.415 96.1462 485.089 96.0845 484.76 96.0882H474.355C474.025 96.0845 473.7 96.1462 473.395 96.2699C473.091 96.3937 472.815 96.5766 472.586 96.8087C472.352 97.0403 472.169 97.3162 472.044 97.6195C471.923 97.9232 471.86 98.2483 471.864 98.5762V111.457H473.4V105.766H485.736L485.715 111.457ZM485.715 104.227H473.379V98.5762C473.383 98.3241 473.483 98.0832 473.662 97.9049C473.842 97.727 474.084 97.6253 474.334 97.6224H484.739C484.993 97.6253 485.235 97.727 485.41 97.9049C485.59 98.0832 485.69 98.3241 485.694 98.5762L485.715 104.227ZM473.616 104.009H485.498V98.5762C485.49 98.3828 485.41 98.1995 485.273 98.0628C485.135 97.9262 484.951 97.847 484.76 97.8408H474.355C474.159 97.847 473.975 97.9262 473.842 98.0628C473.704 98.1995 473.625 98.3828 473.616 98.5762V104.009Z" fill="white"/>
<path d="M487.404 111.626H485.535V105.931H473.554V111.626H471.685V98.579C471.681 98.2294 471.747 97.8827 471.881 97.559C472.01 97.2357 472.206 96.9419 472.457 96.6944C472.703 96.4473 472.999 96.2519 473.32 96.1198C473.646 95.9873 473.992 95.9211 474.342 95.924H484.747C485.097 95.9202 485.444 95.9865 485.769 96.1186C486.094 96.2506 486.386 96.4461 486.637 96.6931C486.883 96.9406 487.079 97.2348 487.212 97.5586C487.342 97.8823 487.409 98.2294 487.404 98.579V111.626ZM485.652 111.511H487.292V98.579C487.296 98.2444 487.229 97.9123 487.104 97.6027C486.979 97.2927 486.791 97.0115 486.553 96.7748C486.315 96.5381 486.036 96.3515 485.723 96.2248C485.414 96.0986 485.081 96.0356 484.747 96.0394H474.355C474.021 96.0361 473.687 96.0998 473.378 96.2261C473.066 96.3527 472.786 96.5394 472.548 96.7761C472.31 97.0123 472.123 97.2936 471.998 97.6031C471.872 97.9127 471.81 98.2444 471.81 98.579V111.511H473.454V105.82H485.665L485.652 111.511ZM485.652 104.179H473.441V98.579C473.445 98.3411 473.541 98.1131 473.708 97.9448C473.875 97.7761 474.104 97.6798 474.342 97.6769H484.747C484.985 97.6798 485.214 97.7756 485.381 97.9444C485.552 98.1127 485.648 98.3406 485.652 98.579V104.179ZM473.554 104.067H485.535V98.579C485.535 98.3681 485.452 98.1661 485.302 98.0169C485.152 97.8677 484.951 97.784 484.739 97.784H474.355C474.142 97.784 473.942 97.8677 473.792 98.0169C473.641 98.1661 473.558 98.3681 473.558 98.579L473.554 104.067Z" fill="white"/>
<path d="M487.525 111.732H485.439V106.041H473.679V111.732H471.589V98.577C471.585 98.2116 471.651 97.8487 471.793 97.5103C471.931 97.172 472.135 96.8649 472.394 96.6074C472.657 96.3495 472.965 96.147 473.303 96.0107C473.645 95.8745 474.008 95.8082 474.375 95.8149H484.78C485.147 95.8082 485.51 95.8745 485.848 96.0107C486.19 96.147 486.499 96.3495 486.758 96.6074C487.016 96.8649 487.221 97.172 487.363 97.5103C487.5 97.8487 487.571 98.2116 487.563 98.577L487.525 111.732ZM485.769 111.402H487.196V98.577C487.2 98.2562 487.141 97.9374 487.02 97.6399C486.899 97.3424 486.72 97.072 486.495 96.8453C486.265 96.6187 485.994 96.4399 485.698 96.3203C485.402 96.2007 485.081 96.1424 484.759 96.1487H474.355C474.033 96.1424 473.712 96.2007 473.416 96.3203C473.116 96.4399 472.844 96.6187 472.619 96.8453C472.39 97.072 472.21 97.3424 472.093 97.6399C471.973 97.9374 471.914 98.2562 471.918 98.577V111.402H473.341V105.707H485.769V111.402ZM485.769 104.288H473.341V98.577C473.345 98.3107 473.454 98.0562 473.645 97.8678C473.833 97.6795 474.088 97.5716 474.355 97.5678H484.759C485.026 97.5716 485.281 97.6795 485.469 97.8678C485.656 98.0562 485.765 98.3107 485.769 98.577V104.288ZM473.679 103.954H485.439V98.577C485.435 98.3982 485.364 98.2274 485.235 98.1016C485.11 97.9753 484.939 97.9037 484.759 97.9016H474.355C474.175 97.9037 474.004 97.9753 473.879 98.1016C473.75 98.2278 473.679 98.3987 473.679 98.577V103.954Z" fill="white"/>
<path d="M508.673 103.168C508.673 103.509 508.606 103.848 508.477 104.164C508.343 104.479 508.151 104.767 507.909 105.008C507.667 105.249 507.384 105.441 507.067 105.571C506.749 105.702 506.412 105.768 506.069 105.767H503.683L508.581 111.569H506.261L501.384 105.767H495.661C495.377 105.754 495.093 105.725 494.814 105.679V111.569H493.062V96.002H506.065C506.407 96.0011 506.745 96.0674 507.062 96.1978C507.379 96.3282 507.667 96.5195 507.909 96.7611C508.147 97.0024 508.339 97.2895 508.472 97.6053C508.602 97.9211 508.669 98.2595 508.669 98.6011L508.673 103.168ZM506.069 103.99C506.286 103.99 506.495 103.904 506.649 103.749C506.804 103.595 506.891 103.386 506.891 103.168V98.6011C506.896 98.3807 506.808 98.1682 506.654 98.0099C506.499 97.8515 506.291 97.7599 506.069 97.7549H495.665C495.44 97.759 495.227 97.8495 495.068 98.0074C494.914 98.1653 494.822 98.3782 494.818 98.6011V103.168C494.826 103.388 494.914 103.597 495.072 103.751C495.231 103.904 495.444 103.99 495.665 103.99H506.069Z" fill="white"/>
<path d="M508.818 111.679H506.211L501.334 105.876H495.66C495.414 105.869 495.168 105.844 494.926 105.805V111.679H492.936V95.8848H506.069C506.787 95.8848 507.475 96.1698 507.984 96.6777C508.493 97.1852 508.777 97.8735 508.777 98.5914V103.158C508.777 103.876 508.493 104.564 507.984 105.071C507.475 105.579 506.787 105.864 506.069 105.864H503.921L508.818 111.679ZM506.315 111.46H508.347L503.449 105.658H506.069C506.728 105.656 507.362 105.394 507.83 104.928C508.297 104.461 508.56 103.829 508.56 103.17V98.6031C508.56 97.9435 508.297 97.3106 507.83 96.8439C507.362 96.3773 506.728 96.1152 506.069 96.1152H493.17V111.46H494.713V105.558L494.939 105.586C495.176 105.623 495.418 105.647 495.664 105.658H501.438L506.315 111.46ZM506.069 104.104H495.664C495.414 104.103 495.176 104.004 494.997 103.83C494.818 103.656 494.717 103.419 494.713 103.17V98.6031C494.713 98.3514 494.813 98.1106 494.993 97.9323C495.168 97.7539 495.41 97.6527 495.664 97.6493H506.069C506.319 97.6556 506.557 97.7585 506.728 97.9369C506.903 98.1148 507.004 98.3539 507.004 98.6031V103.17C507.004 103.417 506.903 103.654 506.728 103.829C506.553 104.004 506.315 104.103 506.069 104.104ZM495.664 97.8718C495.468 97.8768 495.285 97.9564 495.147 98.0931C495.014 98.2302 494.934 98.4143 494.93 98.6073V103.174C494.934 103.364 495.014 103.545 495.151 103.678C495.289 103.811 495.473 103.885 495.664 103.885H506.069C506.257 103.885 506.44 103.81 506.574 103.677C506.707 103.544 506.782 103.363 506.787 103.174V98.6031C506.787 98.4114 506.712 98.2277 506.578 98.0902C506.44 97.9531 506.261 97.8731 506.069 97.8681L495.664 97.8718Z" fill="white"/>
<path d="M508.706 111.626H506.236V111.606L501.359 105.82H495.665C495.414 105.809 495.164 105.786 494.914 105.748H494.876V111.63H493.007V95.9473H506.069C506.774 95.9485 507.45 96.2285 507.947 96.726C508.447 97.2239 508.727 97.8985 508.727 98.6023V103.169C508.727 103.873 508.447 104.547 507.947 105.045C507.45 105.543 506.774 105.823 506.069 105.824H503.808L508.706 111.626ZM506.29 111.511H508.46L503.562 105.709H506.069C506.403 105.709 506.733 105.643 507.041 105.515C507.35 105.387 507.63 105.2 507.867 104.964C508.101 104.729 508.289 104.449 508.418 104.141C508.548 103.833 508.61 103.502 508.61 103.169V98.6023C508.61 97.9285 508.343 97.2819 507.867 96.8052C507.392 96.3281 506.745 96.0598 506.069 96.0585H493.12V111.511H494.764V105.617L494.93 105.637C495.172 105.674 495.419 105.698 495.665 105.709H501.414L506.29 111.511ZM506.069 104.047H495.665C495.427 104.047 495.202 103.955 495.035 103.791C494.868 103.627 494.768 103.404 494.764 103.169V98.6023C494.768 98.3644 494.86 98.1369 495.031 97.9681C495.197 97.7994 495.423 97.7031 495.665 97.7002H506.069C506.303 97.7064 506.528 97.8039 506.691 97.9727C506.858 98.141 506.95 98.3673 506.95 98.6023V103.169C506.95 103.284 506.925 103.398 506.883 103.505C506.837 103.611 506.77 103.708 506.691 103.79C506.608 103.871 506.512 103.936 506.407 103.98C506.299 104.024 506.186 104.047 506.069 104.047ZM495.665 97.8152C495.452 97.8152 495.248 97.8989 495.102 98.0481C494.951 98.1973 494.868 98.3994 494.868 98.6102V103.177C494.876 103.383 494.96 103.578 495.11 103.721C495.26 103.864 495.456 103.944 495.665 103.944H506.069C506.274 103.943 506.466 103.861 506.612 103.718C506.754 103.574 506.837 103.38 506.837 103.177V98.6023C506.837 98.396 506.758 98.1981 506.612 98.0498C506.47 97.9014 506.274 97.8148 506.069 97.8073L495.665 97.8152Z" fill="white"/>
<path d="M508.944 111.731H506.186L501.309 105.929H495.665C495.435 105.921 495.21 105.901 494.985 105.869V111.731H492.899V95.834H506.069C506.808 95.834 507.517 96.1269 508.038 96.6486C508.56 97.1707 508.856 97.8782 508.856 98.6161V103.182C508.848 103.917 508.552 104.619 508.03 105.137C507.509 105.654 506.804 105.944 506.069 105.944H504.042L508.944 111.731ZM506.345 111.401H508.226L503.324 105.599H506.065C506.712 105.598 507.329 105.341 507.784 104.885C508.243 104.429 508.497 103.811 508.502 103.166V98.5998C508.502 97.9548 508.243 97.3365 507.788 96.8802C507.329 96.424 506.712 96.1677 506.065 96.1677H493.228V111.401H494.647V105.491L494.939 105.527C495.177 105.564 495.418 105.587 495.66 105.599H501.459L501.493 105.639L506.345 111.401ZM506.069 104.156H495.665C495.398 104.155 495.143 104.051 494.955 103.866C494.768 103.681 494.659 103.431 494.651 103.166V98.5998C494.655 98.3336 494.764 98.079 494.951 97.8907C495.143 97.7023 495.398 97.5948 495.665 97.5907H506.069C506.332 97.5969 506.582 97.7057 506.77 97.8944C506.954 98.0827 507.058 98.3361 507.058 98.5998V103.166C507.058 103.429 506.954 103.68 506.77 103.865C506.582 104.051 506.332 104.155 506.069 104.156ZM495.665 97.9202C495.485 97.9257 495.314 97.999 495.189 98.1252C495.064 98.2519 494.989 98.4219 494.985 98.5998V103.166C494.993 103.342 495.064 103.509 495.193 103.631C495.318 103.754 495.485 103.822 495.665 103.822H506.069C506.245 103.822 506.411 103.753 506.532 103.63C506.658 103.507 506.724 103.34 506.724 103.166V98.5998C506.724 98.4236 506.658 98.2536 506.537 98.1265C506.411 97.9998 506.245 97.9257 506.069 97.9202H495.665Z" fill="white"/>
<path d="M527.271 95.9825C527.613 95.9792 527.951 96.0442 528.268 96.1734C528.585 96.3025 528.873 96.4938 529.115 96.735C529.357 96.9767 529.549 97.2642 529.678 97.5805C529.811 97.8967 529.874 98.2359 529.874 98.5775V108.97C529.874 109.313 529.811 109.652 529.678 109.968C529.549 110.285 529.357 110.573 529.115 110.814C528.873 111.056 528.585 111.248 528.268 111.377C527.951 111.507 527.613 111.572 527.271 111.57H514.267V95.9825H527.271ZM528.118 98.5775C528.113 98.3546 528.022 98.1421 527.863 97.985C527.705 97.8275 527.492 97.738 527.271 97.735H516.853C516.628 97.738 516.415 97.8275 516.257 97.985C516.098 98.1421 516.011 98.3546 516.007 98.5775V108.97C516.011 109.193 516.098 109.406 516.257 109.563C516.415 109.72 516.628 109.81 516.853 109.813H527.254C527.479 109.81 527.692 109.72 527.851 109.563C528.005 109.406 528.097 109.193 528.101 108.97L528.118 98.5775Z" fill="white"/>
<path d="M527.271 111.679H514.138V95.885H527.271C527.625 95.8804 527.98 95.9475 528.314 96.0821C528.643 96.2167 528.944 96.4158 529.198 96.6679C529.448 96.92 529.649 97.22 529.786 97.5504C529.92 97.8804 529.987 98.2346 529.982 98.5912V108.984C529.987 109.34 529.916 109.692 529.782 110.022C529.644 110.35 529.444 110.649 529.194 110.9C528.939 111.151 528.639 111.349 528.309 111.482C527.98 111.616 527.625 111.683 527.271 111.679ZM514.375 111.46H527.271C527.6 111.464 527.926 111.402 528.23 111.278C528.531 111.155 528.81 110.972 529.039 110.74C529.273 110.508 529.457 110.232 529.582 109.929C529.707 109.625 529.77 109.3 529.765 108.972V98.5796C529.77 98.2512 529.707 97.9262 529.582 97.6225C529.457 97.3192 529.273 97.0433 529.039 96.8117C528.81 96.58 528.531 96.3967 528.23 96.2733C527.926 96.1496 527.6 96.0879 527.271 96.0917H514.375V111.46ZM527.271 109.926H516.853C516.599 109.923 516.357 109.822 516.182 109.643C516.002 109.465 515.902 109.224 515.898 108.972V98.5796C515.902 98.3275 516.002 98.0867 516.182 97.9083C516.357 97.73 516.599 97.6287 516.853 97.6254H527.254C527.508 97.6287 527.746 97.73 527.926 97.9083C528.105 98.0867 528.205 98.3275 528.209 98.5796V108.972C528.205 109.222 528.105 109.46 527.93 109.638C527.759 109.815 527.521 109.919 527.271 109.926ZM516.853 97.8442C516.657 97.8492 516.474 97.9283 516.336 98.065C516.198 98.2021 516.119 98.3858 516.115 98.5796V108.972C516.119 109.166 516.198 109.35 516.336 109.487C516.474 109.623 516.657 109.702 516.853 109.707H527.254C527.446 109.702 527.634 109.623 527.767 109.487C527.905 109.35 527.984 109.166 527.992 108.972V98.5796C527.984 98.3858 527.905 98.2021 527.767 98.065C527.634 97.9283 527.446 97.8492 527.254 97.8442H516.853Z" fill="white"/>
<path d="M527.271 111.626H514.209V95.924H527.271C527.621 95.9202 527.967 95.9865 528.293 96.1186C528.614 96.2506 528.91 96.4461 529.156 96.6931C529.407 96.9406 529.603 97.2348 529.732 97.5586C529.866 97.8823 529.932 98.2294 529.928 98.579V108.972C529.932 109.321 529.866 109.668 529.732 109.992C529.603 110.316 529.407 110.61 529.156 110.857C528.91 111.104 528.614 111.3 528.293 111.432C527.967 111.564 527.621 111.63 527.271 111.626ZM514.321 111.511H527.271C527.605 111.516 527.938 111.453 528.247 111.327C528.56 111.201 528.844 111.014 529.077 110.777C529.315 110.541 529.503 110.259 529.632 109.949C529.757 109.639 529.82 109.306 529.816 108.972V98.579C529.82 98.244 529.757 97.9123 529.628 97.6023C529.503 97.2923 529.315 97.0111 529.077 96.7744C528.839 96.5381 528.56 96.3511 528.247 96.2248C527.938 96.0986 527.605 96.0356 527.271 96.0394H514.321V111.511ZM527.271 109.874H516.854C516.616 109.871 516.386 109.775 516.215 109.606C516.048 109.438 515.952 109.21 515.948 108.972V98.579C515.952 98.3406 516.048 98.1127 516.215 97.9444C516.386 97.7756 516.616 97.6798 516.854 97.6769H527.254C527.492 97.6798 527.721 97.7756 527.888 97.9444C528.059 98.1127 528.155 98.3406 528.159 98.579V108.972C528.155 109.207 528.059 109.433 527.897 109.601C527.73 109.769 527.504 109.867 527.271 109.874ZM516.854 97.7919C516.641 97.7919 516.441 97.8756 516.29 98.0248C516.14 98.174 516.057 98.3761 516.057 98.5869V108.98C516.057 109.191 516.14 109.393 516.29 109.542C516.441 109.691 516.641 109.774 516.854 109.774H527.254C527.467 109.774 527.667 109.691 527.817 109.542C527.968 109.393 528.051 109.191 528.051 108.98V98.579C528.051 98.3681 527.968 98.1661 527.817 98.0169C527.667 97.8677 527.467 97.784 527.254 97.784L516.854 97.7919Z" fill="white"/>
<path d="M527.271 111.734H514.1V95.8168H527.271C527.638 95.8106 528.001 95.8772 528.339 96.0135C528.677 96.1501 528.986 96.3526 529.248 96.6101C529.507 96.8676 529.711 97.1747 529.849 97.5131C529.991 97.851 530.058 98.2135 530.058 98.5789V108.972C530.058 109.337 529.991 109.7 529.849 110.038C529.711 110.376 529.507 110.683 529.248 110.941C528.986 111.198 528.677 111.401 528.339 111.537C528.001 111.673 527.638 111.74 527.271 111.734ZM514.434 111.404H527.271C527.592 111.408 527.909 111.347 528.205 111.226C528.506 111.106 528.773 110.926 529.002 110.7C529.227 110.473 529.407 110.204 529.528 109.907C529.649 109.61 529.711 109.292 529.707 108.972V98.5789C529.711 98.2581 529.653 97.9393 529.532 97.6418C529.411 97.3443 529.232 97.0739 529.006 96.8472C528.777 96.6206 528.506 96.4418 528.21 96.3222C527.909 96.2026 527.592 96.1443 527.271 96.1506H514.434V111.404ZM527.271 109.981H516.854C516.587 109.978 516.328 109.871 516.14 109.682C515.948 109.494 515.844 109.239 515.84 108.972V98.5789C515.844 98.3122 515.953 98.0576 516.14 97.8693C516.332 97.681 516.587 97.5735 516.854 97.5693H527.254C527.521 97.5735 527.776 97.681 527.968 97.8693C528.155 98.0576 528.264 98.3122 528.268 98.5789V108.972C528.264 109.236 528.16 109.489 527.972 109.677C527.788 109.865 527.534 109.974 527.271 109.981ZM516.854 97.9035C516.674 97.9056 516.503 97.9772 516.374 98.1031C516.249 98.2293 516.174 98.4001 516.174 98.5789V108.972C516.174 109.151 516.249 109.322 516.374 109.449C516.503 109.576 516.674 109.648 516.854 109.651H527.254C527.434 109.648 527.605 109.576 527.734 109.449C527.859 109.322 527.93 109.151 527.934 108.972V98.5789C527.93 98.4001 527.859 98.2293 527.734 98.1031C527.605 97.9772 527.434 97.9056 527.254 97.9035H516.854Z" fill="white"/>
</g>
<defs>
<clipPath id="clip0_1197_9469">
<rect width="534" height="125" fill="white"/>
</clipPath>
</defs>
</svg>
