<svg width="1232" height="705" viewBox="0 0 1232 705" fill="none" xmlns="http://www.w3.org/2000/svg">
<mask id="path-1-inside-1_4901_9606" fill="white">
<path fill-rule="evenodd" clip-rule="evenodd" d="M0.938721 704.186V85.5534L73.254 0H1231.15V636.164L1230 635.131L1166.04 704.186H0.938721Z"/>
</mask>
<path fill-rule="evenodd" clip-rule="evenodd" d="M0.938721 704.186V85.5534L73.254 0H1231.15V636.164L1230 635.131L1166.04 704.186H0.938721Z" fill="#083060" fill-opacity="0.37"/>
<path d="M0.938721 85.5534L0.175 84.9078L-0.0612793 85.1874V85.5534H0.938721ZM0.938721 704.186H-0.0612793V705.186H0.938721V704.186ZM73.254 0V-1H72.7899L72.4903 -0.645547L73.254 0ZM1231.15 0H1232.15V-1H1231.15V0ZM1231.15 636.164L1230.48 636.908L1232.15 638.404V636.164H1231.15ZM1230 635.131L1230.67 634.387L1229.94 633.729L1229.27 634.451L1230 635.131ZM1166.04 704.186V705.186H1166.47L1166.77 704.865L1166.04 704.186ZM-0.0612793 85.5534V704.186H1.93872V85.5534H-0.0612793ZM72.4903 -0.645547L0.175 84.9078L1.70244 86.1989L74.0177 0.645547L72.4903 -0.645547ZM1231.15 -1H73.254V1H1231.15V-1ZM1232.15 636.164V0H1230.15V636.164H1232.15ZM1229.33 635.875L1230.48 636.908L1231.82 635.42L1230.67 634.387L1229.33 635.875ZM1166.77 704.865L1230.73 635.811L1229.27 634.451L1165.3 703.506L1166.77 704.865ZM0.938721 705.186H1166.04V703.186H0.938721V705.186Z" fill="#46B0EE" mask="url(#path-1-inside-1_4901_9606)"/>
</svg>
