<svg width="21" height="20" viewBox="0 0 21 20" fill="none" xmlns="http://www.w3.org/2000/svg">
<path d="M12.9982 5.675L13.0195 5.70343L13.0446 5.72855L16.8571 9.54105C17.0164 9.70028 17.0857 9.88678 17.0857 10.0625V10.1131L16.6297 9.64943L12.9422 5.89943L12.5494 5.5H12.5857C12.7762 5.5 12.9245 5.57675 12.9982 5.675ZM17.0857 10.5V17.5C17.0857 17.9114 16.7471 18.25 16.3357 18.25H7.58569C7.17434 18.25 6.83569 17.9114 6.83569 17.5V6.25C6.83569 5.83864 7.17434 5.5 7.58569 5.5H12.0857V6.25V10V10.5H12.5857H16.2732H17.0857ZM7.08569 17.5V18H7.58569H16.3357H16.8357V17.5V11.25V10.75H16.3357H12.5857C12.1743 10.75 11.8357 10.4114 11.8357 10V6.25V5.75H11.3357H7.58569H7.08569V6.25V17.5Z" stroke="white"/>
<path d="M3.83569 11.25H2.58569V2.5C2.58569 1.8125 3.14819 1.25 3.83569 1.25H12.5857V2.5H3.83569V11.25Z" fill="white"/>
</svg>
