<svg width="41" height="40" viewBox="0 0 41 40" fill="none" xmlns="http://www.w3.org/2000/svg">
<path d="M14.4439 30.3315C13.5507 30.2831 12.7101 29.8936 12.0958 29.2434C11.3608 28.5363 10.7049 27.7514 10.1397 26.9024C9.25683 25.6381 8.55894 24.2543 8.06716 22.7928C7.51061 21.2205 7.21782 19.5669 7.20064 17.8991C7.1574 16.2626 7.56268 14.6454 8.37258 13.2227C8.96575 12.1972 9.81184 11.3408 10.8301 10.7353C11.8371 10.1324 12.9862 9.80788 14.1598 9.79495C15.0445 9.84729 15.914 10.0495 16.731 10.393C17.383 10.6799 18.0677 10.8817 18.7709 10.9925C19.5465 10.83 20.3044 10.5921 21.0338 10.2822C21.897 9.94515 22.8109 9.7564 23.737 9.72392C23.8606 9.72392 23.9828 9.72392 24.1007 9.73813C26.132 9.79637 28.0213 10.7936 29.2146 12.4371C28.2833 12.9352 27.5084 13.6818 26.976 14.5939C26.4436 15.5059 26.1746 16.5478 26.1988 17.6036C26.1895 18.4109 26.3514 19.2111 26.6739 19.9513C26.9964 20.6915 27.4721 21.3549 28.0696 21.8979C28.6137 22.416 29.247 22.8314 29.9391 23.1238C29.797 23.5499 29.6336 23.9619 29.4603 24.3767C29.0669 25.2933 28.5814 26.1676 28.0114 26.9862C27.4724 27.8062 26.8451 28.5646 26.1406 29.2477C25.4979 29.8853 24.6413 30.2615 23.737 30.3031C22.9704 30.2692 22.2174 30.0893 21.5182 29.7733C20.7641 29.4448 19.9538 29.2649 19.1317 29.2434C18.2863 29.2601 17.452 29.439 16.6741 29.7704C16.0023 30.0736 15.2845 30.2622 14.5505 30.3287L14.4439 30.3315ZM18.9186 9.72392C18.812 9.72392 18.7055 9.72392 18.599 9.71114C18.5766 9.54205 18.5647 9.37173 18.5635 9.20117C18.6099 7.78225 19.1644 6.42721 20.126 5.38279C20.6639 4.78255 21.3158 4.29532 22.0438 3.94947C22.7221 3.60024 23.4635 3.39015 24.2243 3.33154C24.2456 3.51763 24.2456 3.69946 24.2456 3.87276C24.2256 5.26938 23.7008 6.61158 22.7682 7.65137C22.3167 8.25683 21.7381 8.75611 21.073 9.11415C20.408 9.4722 19.6726 9.68033 18.9186 9.72392Z" fill="white"/>
</svg>
