<svg width="25" height="25" viewBox="0 0 25 25" fill="none" xmlns="http://www.w3.org/2000/svg">
<g clip-path="url(#clip0_1108_10832)">
<path d="M13.6914 10.6544C13.8808 10.3936 14.0315 10.1582 14.2096 9.94634C15.0322 8.96656 16.0906 8.38511 17.3401 8.16949C18.5736 7.95296 19.8418 8.05461 21.0254 8.46486C22.2685 8.89103 23.1379 9.73368 23.6725 10.9236C24.0982 11.8696 24.3086 12.8747 24.3482 13.903C24.4051 15.2913 24.4236 16.6812 24.4324 18.0703C24.4455 20.1281 24.4324 22.186 24.4387 24.2439C24.4387 24.4304 24.3924 24.5009 24.1916 24.4996C22.678 24.492 21.1644 24.492 19.6509 24.4996C19.4404 24.4996 19.3983 24.4237 19.3983 24.2308C19.4033 21.5619 19.4113 18.8931 19.3941 16.2242C19.3849 15.6288 19.3294 15.035 19.2282 14.4482C19.1259 13.8258 18.8577 13.2697 18.3235 12.887C18.0265 12.6724 17.6777 12.5413 17.3131 12.5072C16.4467 12.4228 15.6144 12.5004 14.9169 13.0979C14.4744 13.4777 14.2454 13.9861 14.0968 14.5376C13.9254 15.1731 13.8863 15.8242 13.8863 16.4786C13.8826 19.0492 13.8826 21.6198 13.8863 24.1903C13.8863 24.4945 13.8863 24.495 13.5916 24.495H9.17377C8.89171 24.495 8.89087 24.495 8.89087 24.2232C8.89087 19.061 8.89087 13.8991 8.89087 8.73744C8.89087 8.456 8.89087 8.45473 9.1683 8.45473H13.3937C13.6766 8.45473 13.6775 8.45473 13.6779 8.7328C13.6779 9.29442 13.6779 9.85647 13.6779 10.4185C13.6783 10.4835 13.6855 10.5497 13.6914 10.6544Z" fill="white"/>
<path d="M5.81766 16.4728V24.206C5.81766 24.4942 5.81766 24.4946 5.53013 24.4946H1.0942C0.823083 24.4946 0.822662 24.4946 0.822662 24.2123C0.822662 19.0569 0.822662 13.9014 0.822662 8.74596C0.822662 8.45397 0.822662 8.45312 1.10767 8.45312H5.52255C5.81724 8.45312 5.81724 8.45312 5.81724 8.76073L5.81766 16.4728Z" fill="white"/>
<path d="M0.438694 3.40603C0.44122 1.80429 1.72649 0.505927 3.31487 0.50002C4.90325 0.494112 6.2483 1.82159 6.25251 3.41151C6.25672 5.00144 4.92809 6.33651 3.33213 6.33693C1.71891 6.33567 0.436168 5.03689 0.438694 3.40603Z" fill="white"/>
</g>
<defs>
<clipPath id="clip0_1108_10832">
<rect width="24" height="24" fill="white" transform="translate(0.438721 0.5)"/>
</clipPath>
</defs>
</svg>
