<svg width="28" height="25" viewBox="0 0 28 25" fill="none" xmlns="http://www.w3.org/2000/svg">
<path fill-rule="evenodd" clip-rule="evenodd" d="M0 2.1973C0 1.65391 0.210714 1.13277 0.585786 0.748537C0.960859 0.3643 1.46957 0.148437 2 0.148438H26C26.5304 0.148438 27.0391 0.3643 27.4142 0.748537C27.7893 1.13277 28 1.65391 28 2.1973C28 2.7407 27.7893 3.26183 27.4142 3.64607C27.0391 4.03031 26.5304 4.24617 26 4.24617H2C1.46957 4.24617 0.960859 4.03031 0.585786 3.64607C0.210714 3.26183 0 2.7407 0 2.1973ZM0 12.4416C0 11.8982 0.210714 11.3771 0.585786 10.9929C0.960859 10.6086 1.46957 10.3928 2 10.3928H26C26.5304 10.3928 27.0391 10.6086 27.4142 10.9929C27.7893 11.3771 28 11.8982 28 12.4416C28 12.985 27.7893 13.5062 27.4142 13.8904C27.0391 14.2746 26.5304 14.4905 26 14.4905H2C1.46957 14.4905 0.960859 14.2746 0.585786 13.8904C0.210714 13.5062 0 12.985 0 12.4416ZM0 22.686C0 22.1426 0.210714 21.6214 0.585786 21.2372C0.960859 20.853 1.46957 20.6371 2 20.6371H26C26.5304 20.6371 27.0391 20.853 27.4142 21.2372C27.7893 21.6214 28 22.1426 28 22.686C28 23.2294 27.7893 23.7505 27.4142 24.1347C27.0391 24.519 26.5304 24.7348 26 24.7348H2C1.46957 24.7348 0.960859 24.519 0.585786 24.1347C0.210714 23.7505 0 23.2294 0 22.686Z" fill="white"/>
</svg>
