<svg width="35" height="27" viewBox="0 0 35 27" fill="none" xmlns="http://www.w3.org/2000/svg">
<path d="M34.0452 3.20269C32.8238 3.74391 31.5117 4.10959 30.1324 4.27488C31.5556 3.42326 32.6204 2.08292 33.1281 0.50394C31.7909 1.29819 30.3274 1.85726 28.8013 2.15684C27.775 1.06105 26.4156 0.33474 24.9343 0.0906787C23.4529 -0.153382 21.9324 0.0984568 20.6088 0.807097C19.2853 1.51574 18.2327 2.64153 17.6145 4.00969C16.9963 5.37785 16.8471 6.91183 17.1901 8.37347C14.4806 8.23743 11.83 7.5332 9.41038 6.30649C6.99071 5.07977 4.85602 3.35798 3.14485 1.25286C2.55975 2.26215 2.22332 3.43234 2.22332 4.6786C2.22267 5.80051 2.49895 6.90524 3.02765 7.89477C3.55635 8.8843 4.32113 9.72803 5.25412 10.3511C4.1721 10.3167 3.11395 10.0243 2.16774 9.49832V9.58608C2.16763 11.1596 2.71193 12.6847 3.70827 13.9026C4.70462 15.1205 6.09164 15.9562 7.63399 16.2679C6.63024 16.5395 5.57788 16.5795 4.55639 16.3849C4.99155 17.7388 5.83921 18.9228 6.98069 19.771C8.12217 20.6193 9.50033 21.0893 10.9222 21.1154C8.50847 23.0102 5.52748 24.0381 2.45882 24.0336C1.91524 24.0337 1.37212 24.002 0.83226 23.9385C3.94713 25.9412 7.57306 27.0041 11.2762 27C23.8119 27 30.6648 16.6175 30.6648 7.61285C30.6648 7.3203 30.6575 7.02483 30.6443 6.73228C31.9773 5.7683 33.1279 4.57459 34.0423 3.20708L34.0452 3.20269Z" fill="white"/>
</svg>
