<svg width="41" height="40" viewBox="0 0 41 40" fill="none" xmlns="http://www.w3.org/2000/svg">
<path d="M12.0144 16.3996V23.3792C12.0144 24.3068 11.2854 25.0483 10.3568 25.0483C9.43494 25.0483 8.54297 24.301 8.54297 23.3792V16.3996C8.54297 15.4894 9.43494 14.742 10.3568 14.742C11.2671 14.742 12.0144 15.4894 12.0144 16.3996ZM12.6653 25.8622C12.6653 26.8506 13.4608 27.6461 14.4492 27.6461H15.6488L15.6671 31.3288C15.6671 33.5524 18.9939 33.5351 18.9939 31.3288V27.6461H21.2359V31.3288C21.2359 33.5408 24.581 33.5466 24.581 31.3288V27.6461H25.798C26.0314 27.6454 26.2625 27.5986 26.4778 27.5086C26.6932 27.4185 26.8888 27.2869 27.0533 27.1212C27.2178 26.9555 27.348 26.7591 27.4366 26.543C27.5251 26.327 27.5702 26.0957 27.5694 25.8622V15.0506H12.6653V25.8622ZM27.6118 14.4653H12.5988C12.5988 11.8858 14.1416 9.64383 16.4318 8.47511L15.2805 6.34789C15.1117 6.05282 15.5399 5.86574 15.6845 6.11839L16.8532 8.26393C18.9563 7.32953 21.3738 7.37775 23.3805 8.26393L24.5434 6.12417C24.6938 5.86478 25.1162 6.05764 24.9475 6.35367L23.7961 8.47511C26.068 9.64383 27.6108 11.8868 27.6108 14.4653H27.6118ZM17.3238 11.1202C17.3238 10.9524 17.2571 10.7915 17.1385 10.6729C17.0199 10.5542 16.859 10.4876 16.6912 10.4876C16.3479 10.4876 16.077 10.7769 16.077 11.1202C16.077 11.4634 16.3547 11.7527 16.6912 11.7527C17.047 11.7527 17.3238 11.4634 17.3238 11.1202ZM24.1587 11.1202C24.1595 10.9551 24.0955 10.7964 23.9804 10.6781C23.8653 10.5598 23.7084 10.4914 23.5435 10.4876C23.3757 10.4876 23.2148 10.5542 23.0962 10.6729C22.9775 10.7915 22.9109 10.9524 22.9109 11.1202C22.9109 11.2879 22.9775 11.4488 23.0962 11.5675C23.2148 11.6861 23.3757 11.7527 23.5435 11.7527C23.881 11.7527 24.1587 11.4634 24.1587 11.1202ZM29.8721 14.743C28.9618 14.743 28.2145 15.472 28.2145 16.4006V23.3801C28.2145 24.3078 28.9618 25.0493 29.8721 25.0493C30.8007 25.0493 31.6859 24.302 31.6859 23.3801V16.4006C31.6859 15.473 30.7939 14.743 29.8721 14.743Z" fill="white"/>
</svg>
