<svg width="91" height="91" viewBox="0 0 91 91" fill="none" xmlns="http://www.w3.org/2000/svg">
<path d="M8.52319 8.9375H31.0232V3.3125H2.89819V31.4375H8.52319V8.9375Z" fill="#0348AF"/>
<path d="M31.0232 31.4375V14.5625H14.1482V31.4375H31.0232ZM19.7732 20.1875H25.3982V25.8125H19.7732V20.1875ZM57.7419 8.9375H81.6482V31.4375H87.2732V3.3125H57.7419V8.9375Z" fill="#0348AF"/>
<path d="M76.0232 31.4375V14.5625H59.1482V31.4375H76.0232ZM64.7732 20.1875H70.3982V25.8125H64.7732V20.1875ZM31.0232 82.0625H8.52319V59.5625H2.89819V87.6875H31.0232V82.0625Z" fill="#0348AF"/>
<path d="M31.0232 59.5625H14.1482V76.4375H31.0232V59.5625ZM25.3982 70.8125H19.7732V65.1875H25.3982V70.8125ZM81.6482 82.0625H57.7419V87.6875H87.2732V59.5625H81.6482V82.0625Z" fill="#0348AF"/>
<path d="M47.8982 53.9375H70.3982V65.1875H76.0232V48.3125H47.8982V53.9375Z" fill="#0348AF"/>
<path d="M76.0232 76.4375V70.8125H42.2732V48.3125H14.1482V53.9375H36.6482V76.4375H76.0232ZM36.6482 14.5625H42.2732V31.4375H36.6482V14.5625Z" fill="#0348AF"/>
<path d="M14.1482 42.6875H53.5232V14.5625H47.8982V37.0625H14.1482V42.6875ZM59.1482 37.0625H76.0232V42.6875H59.1482V37.0625ZM59.1482 59.5625H64.7732V65.1875H59.1482V59.5625ZM47.8982 59.5625H53.5232V65.1875H47.8982V59.5625Z" fill="#0348AF"/>
</svg>
