<svg width="121" height="120" viewBox="0 0 121 120" fill="none" xmlns="http://www.w3.org/2000/svg">
<g clip-path="url(#clip0_3029_3130)">
<path d="M60.44 116.85C49.1051 116.85 38.0248 113.488 28.6002 107.191C19.1757 100.894 11.8301 91.9431 7.49243 81.4711C3.15478 70.9991 2.01985 59.4759 4.23117 48.3589C6.44248 37.2418 11.9007 27.0302 19.9157 19.0152C27.9306 11.0003 38.1423 5.54203 49.2593 3.33071C60.3764 1.11939 71.8995 2.25432 82.3716 6.59198C92.8436 10.9296 101.794 18.2752 108.091 27.6998C114.389 37.1244 117.75 48.2047 117.75 59.5395C117.731 74.7334 111.688 89.2997 100.944 100.043C90.2001 110.787 75.6338 116.831 60.44 116.85ZM60.44 3.22952C49.3029 3.22952 38.4159 6.53204 29.1558 12.7195C19.8957 18.9069 12.6783 27.7013 8.41631 37.9906C4.15434 48.2799 3.03922 59.602 5.21195 70.5251C7.38468 81.4481 12.7477 91.4816 20.6228 99.3567C28.4979 107.232 38.5314 112.595 49.4544 114.768C60.3775 116.94 71.6996 115.825 81.9889 111.563C92.2782 107.301 101.073 100.084 107.26 90.8237C113.447 81.5635 116.75 70.6766 116.75 59.5395C116.734 44.6101 110.796 30.2966 100.24 19.7399C89.6829 9.18314 75.3694 3.2454 60.44 3.22952Z" fill="white"/>
<path d="M18.12 102.69C12.377 97.0678 7.8156 90.3544 4.70388 82.9443C1.59216 75.5342 -0.00711537 67.577 2.37967e-05 59.54H4.00002C3.97392 68.2391 5.98058 76.8239 9.86002 84.61C12.6702 90.2688 16.4086 95.4167 20.92 99.84L18.12 102.69Z" fill="white"/>
<path d="M60.44 120V116C74.3862 116.016 87.8407 110.848 98.19 101.5L100.87 104.5C89.7837 114.505 75.3732 120.029 60.44 120Z" fill="white"/>
<path d="M120.88 59.5397H116.88C116.882 56.5596 116.651 53.5839 116.19 50.6397C115.96 49.2197 115.68 47.7897 115.35 46.3997L119.24 45.4697C119.59 46.9697 119.9 48.4697 120.14 50.0197C120.633 53.1691 120.88 56.352 120.88 59.5397Z" fill="white"/>
<path d="M101.37 20.67C98.7919 17.9629 95.955 15.5145 92.9 13.36C86.1364 8.56905 78.3875 5.35058 70.22 3.94L70.91 0C79.6586 1.51755 87.9595 4.96431 95.21 10.09C98.4801 12.3958 101.515 15.0185 104.27 17.92L101.37 20.67Z" fill="white"/>
<path d="M60.44 113.29C49.8093 113.29 39.4173 110.138 30.5781 104.232C21.739 98.3254 14.8497 89.9308 10.7815 80.1093C6.71329 70.2878 5.64886 59.4804 7.72282 49.054C9.79677 38.6275 14.916 29.0501 22.433 21.5331C29.9501 14.016 39.5274 8.89681 49.9539 6.82285C60.3804 4.7489 71.1877 5.81333 81.0093 9.88154C90.8308 13.9497 99.2254 20.839 105.132 29.6782C111.038 38.5173 114.19 48.9093 114.19 59.5401C114.174 73.7906 108.506 87.4529 98.4295 97.5295C88.3528 107.606 74.6905 113.274 60.44 113.29ZM60.44 6.00006C49.8587 6.00006 39.515 9.13778 30.717 15.0164C21.919 20.8951 15.0618 29.2507 11.0125 39.0265C6.96318 48.8023 5.9037 59.5594 7.96801 69.9374C10.0323 80.3154 15.1277 89.8482 22.6098 97.3303C30.0919 104.812 39.6247 109.908 50.0027 111.972C60.3807 114.036 71.1377 112.977 80.9136 108.928C90.6894 104.878 99.045 98.0211 104.924 89.2231C110.802 80.425 113.94 70.0814 113.94 59.5001C113.924 45.3159 108.282 31.7171 98.2527 21.6874C88.2229 11.6576 74.6242 6.01594 60.44 6.00006Z" fill="white"/>
<path d="M60.44 100.74V100.49C68.5533 100.5 76.4871 98.1028 83.2372 93.6014C89.9872 89.1001 95.2501 82.6973 98.3595 75.2035C101.469 67.7097 102.285 59.4618 100.705 51.5039C99.1242 43.546 95.2183 36.2359 89.4813 30.499C83.7444 24.762 76.4343 20.8561 68.4764 19.2757C60.5185 17.6953 52.2707 18.5115 44.7769 21.6209C37.2831 24.7303 30.8802 29.9931 26.3789 36.7432C21.8776 43.4932 19.4801 51.427 19.49 59.5403H19.24C19.238 51.3889 21.6535 43.42 26.181 36.6415C30.7084 29.863 37.1444 24.5795 44.675 21.4592C52.2055 18.3388 60.4923 17.5219 68.4872 19.1117C76.4821 20.7015 83.8259 24.6265 89.5899 30.3905C95.3538 36.1544 99.2789 43.4982 100.869 51.4931C102.458 59.488 101.641 67.7748 98.5212 75.3053C95.4008 82.8359 90.1173 89.2719 83.3388 93.7994C76.5603 98.3268 68.5914 100.742 60.44 100.74Z" fill="white"/>
<path d="M60.44 98.37C50.1466 98.3568 40.2788 94.2612 33.0012 86.9818C25.7236 79.7023 21.6306 69.8334 21.62 59.54H23.62C23.6306 69.303 27.5129 78.6632 34.4154 85.5676C41.3179 92.4719 50.6771 96.3568 60.44 96.37V98.37Z" fill="white"/>
<g style="mix-blend-mode:screen" opacity="0.04">
<path d="M60.44 59.54H110.06C110.063 67.8201 107.995 75.9694 104.042 83.2453C100.09 90.5212 94.3799 96.6924 87.4321 101.197C80.4843 105.701 72.5198 108.395 64.2643 109.033C56.0089 109.671 47.725 108.233 40.1675 104.85C32.61 101.467 26.0192 96.247 20.9957 89.665C15.9721 83.0829 12.6756 75.3484 11.4064 67.1662C10.1372 58.984 10.9358 50.6142 13.7293 42.8196C16.5228 35.025 21.2225 28.0534 27.4 22.54L60.44 59.54Z" fill="white"/>
</g>
<g style="mix-blend-mode:screen" opacity="0.08">
<path d="M60.44 109.66C50.5272 109.66 40.837 106.72 32.5948 101.213C24.3527 95.7059 17.9287 87.8783 14.1352 78.72C10.3417 69.5618 9.34918 59.4843 11.2831 49.762C13.217 40.0397 17.9904 31.1092 24.9998 24.0998C32.0092 17.0903 40.9398 12.3169 50.6621 10.383C60.3844 8.44909 70.4619 9.44164 79.6201 13.2351C88.7784 17.0286 96.606 23.4526 102.113 31.6948C107.621 39.937 110.56 49.6271 110.56 59.5399C110.544 72.8277 105.259 85.5667 95.8627 94.9626C86.4668 104.358 73.7278 109.644 60.44 109.66ZM60.44 10.4199C50.725 10.4199 41.2282 13.3008 33.1504 18.6982C25.0727 24.0955 18.7768 31.767 15.0591 40.7425C11.3413 49.718 10.3686 59.5944 12.2639 69.1228C14.1592 78.6511 18.8374 87.4035 25.7069 94.273C32.5765 101.143 41.3288 105.821 50.8572 107.716C60.3855 109.611 70.2619 108.639 79.2374 104.921C88.213 101.203 95.8844 94.9073 101.282 86.8296C106.679 78.7518 109.56 69.255 109.56 59.5399C109.544 46.5174 104.364 34.0327 95.1556 24.8244C85.9472 15.616 73.4626 10.4358 60.44 10.4199Z" fill="white"/>
</g>
<path d="M60.57 5.91016H60.32V13.9202H60.57V5.91016Z" fill="white"/>
<path d="M60.57 105.15H60.32V113.16H60.57V105.15Z" fill="white"/>
<path d="M56.34 14.1104L55.64 6.13035L55.89 6.11035L56.59 14.0904L56.34 14.1104Z" fill="white"/>
<path d="M64.99 112.97L64.29 104.99L64.54 104.97L65.24 112.95L64.99 112.97Z" fill="white"/>
<path d="M52.4 14.64L51.01 6.74996L51.25 6.70996L52.64 14.6L52.4 14.64Z" fill="white"/>
<path d="M69.63 112.37L68.24 104.48L68.48 104.44L69.88 112.33L69.63 112.37Z" fill="white"/>
<path d="M48.52 15.51L46.44 7.76996L46.68 7.70996L48.76 15.45L48.52 15.51Z" fill="white"/>
<path d="M74.2 111.37L72.13 103.63L72.37 103.57L74.44 111.31L74.2 111.37Z" fill="white"/>
<path d="M44.72 16.7196L41.98 9.18961L42.22 9.09961L44.96 16.6296L44.72 16.7196Z" fill="white"/>
<path d="M78.67 109.97L75.93 102.44L76.16 102.36L78.9 109.89L78.67 109.97Z" fill="white"/>
<path d="M37.8927 10.8846L37.6661 10.9902L41.0512 18.2498L41.2778 18.1441L37.8927 10.8846Z" fill="white"/>
<path d="M79.8334 100.824L79.6069 100.93L82.992 108.189L83.2186 108.084L79.8334 100.824Z" fill="white"/>
<path d="M33.7391 13.0273L33.5226 13.1523L37.5276 20.0892L37.7441 19.9642L33.7391 13.0273Z" fill="white"/>
<path d="M83.3612 98.9736L83.1447 99.0986L87.1497 106.035L87.3662 105.91L83.3612 98.9736Z" fill="white"/>
<path d="M29.7935 15.5392L29.5887 15.6826L34.1831 22.244L34.3879 22.1006L29.7935 15.5392Z" fill="white"/>
<path d="M91.1 103.54L86.5 96.9701L86.71 96.8301L91.3 103.39L91.1 103.54Z" fill="white"/>
<path d="M31.03 24.6799L25.88 18.5399L26.07 18.3799L31.22 24.5199L31.03 24.6799Z" fill="white"/>
<path d="M94.82 100.7L89.67 94.5604L89.86 94.4004L95.01 100.54L94.82 100.7Z" fill="white"/>
<path d="M14.99 55.6902L7.01001 54.9902L7.03001 54.7402L15.01 55.4402L14.99 55.6902Z" fill="white"/>
<path d="M113.85 64.3396L105.87 63.6396L105.89 63.3896L113.88 64.0896L113.85 64.3396Z" fill="white"/>
<path d="M14.83 59.4102H6.82001V59.6602H14.83V59.4102Z" fill="white"/>
<path d="M114.07 59.4102H106.06V59.6602H114.07V59.4102Z" fill="white"/>
<path d="M60.44 103.23C48.8527 103.23 37.74 98.6266 29.5465 90.4331C21.353 82.2396 16.75 71.1269 16.75 59.5396C16.75 47.9523 21.353 36.8396 29.5465 28.6461C37.74 20.4527 48.8527 15.8496 60.44 15.8496V16.3496C51.8978 16.3496 43.5475 18.8827 36.4449 23.6284C29.3424 28.3742 23.8066 35.1196 20.5376 43.0115C17.2687 50.9035 16.4134 59.5875 18.0799 67.9656C19.7464 76.3436 23.8598 84.0393 29.9001 90.0796C35.9403 96.1198 43.636 100.233 52.014 101.9C60.3921 103.566 69.0762 102.711 76.9681 99.442C84.86 96.173 91.6054 90.6373 96.3512 83.5347C101.097 76.4321 103.63 68.0818 103.63 59.5396H104.13C104.117 71.1229 99.5095 82.2279 91.3189 90.4185C83.1283 98.6091 72.0232 103.216 60.44 103.23Z" fill="white"/>
<path d="M45.3199 38.4297V80.2097L83.2599 58.7797L45.3199 38.4297Z" fill="white"/>
</g>
<defs>
<clipPath id="clip0_3029_3130">
<rect width="120.88" height="119.98" fill="white"/>
</clipPath>
</defs>
</svg>
