<svg width="150" height="52" viewBox="0 0 150 52" fill="none" xmlns="http://www.w3.org/2000/svg">
<g clip-path="url(#clip0_0_1)">
<path d="M19.5 37.9823C15.843 37.9823 12.2681 36.8898 9.22741 34.8428C6.18672 32.7958 3.81679 29.8864 2.41731 26.4824C1.01784 23.0784 0.651671 19.3328 1.36512 15.7192C2.07856 12.1055 3.83958 8.78617 6.42548 6.18088C9.01137 3.57559 12.306 1.80136 15.8927 1.08257C19.4795 0.363768 23.1972 0.732681 26.5759 2.14265C29.9545 3.55263 32.8423 5.94034 34.874 9.00383C36.9057 12.0673 37.9902 15.669 37.9902 19.3535C37.9842 24.2923 36.0342 29.0271 32.5679 32.5194C29.1016 36.0117 24.4021 37.9763 19.5 37.9823ZM19.5 1.04967C15.9068 1.04967 12.3943 2.12317 9.40666 4.13442C6.41902 6.14567 4.09045 9.00433 2.71539 12.3489C1.34033 15.6935 0.980555 19.3738 1.68155 22.9244C2.38255 26.475 4.11284 29.7364 6.65361 32.2962C9.19439 34.856 12.4315 36.5993 15.9557 37.3056C19.4798 38.0118 23.1327 37.6494 26.4524 36.264C29.7721 34.8786 32.6095 32.5326 34.6057 29.5225C36.602 26.5125 37.6675 22.9736 37.6675 19.3535C37.6624 14.5006 35.7467 9.84794 32.3407 6.41643C28.9347 2.98492 24.3167 1.05483 19.5 1.04967Z" fill="#46B0EE"/>
<path d="M5.84614 33.3796C3.99324 31.5521 2.52158 29.3699 1.51763 26.9612C0.513685 24.5525 -0.00229566 21.9659 7.67763e-06 19.3535H1.29054C1.28212 22.1812 1.92954 24.9717 3.18118 27.5026C4.08783 29.342 5.29397 31.0154 6.74951 32.4532L5.84614 33.3796Z" fill="#46B0EE"/>
<path d="M19.5 39.0057V37.7055C23.9995 37.7107 28.3404 36.0309 31.6794 32.9922L32.5441 33.9674C28.9673 37.2194 24.3179 39.0152 19.5 39.0057Z" fill="#46B0EE"/>
<path d="M39 19.3528H37.7095C37.71 18.3841 37.6356 17.4169 37.4868 16.4598C37.4126 15.9982 37.3223 15.5334 37.2158 15.0816L38.4709 14.7793C38.5838 15.2669 38.6838 15.7545 38.7613 16.2583C38.9203 17.282 39.0001 18.3166 39 19.3528Z" fill="#46B0EE"/>
<path d="M32.7054 6.71887C31.8736 5.83891 30.9584 5.04306 29.9727 4.34272C27.7906 2.78541 25.2905 1.73923 22.6554 1.28071L22.878 0C25.7006 0.493287 28.3787 1.61367 30.718 3.2798C31.773 4.0293 32.7521 4.88182 33.6411 5.82497L32.7054 6.71887Z" fill="#46B0EE"/>
<path d="M19.5 36.8261C16.0702 36.8261 12.7173 35.8014 9.86554 33.8816C7.01373 31.9618 4.79102 29.2331 3.47847 26.0406C2.16593 22.8481 1.82251 19.3351 2.49164 15.9459C3.16077 12.5568 4.81239 9.44361 7.23766 7.00015C9.66292 4.5567 12.7529 2.89268 16.1168 2.21853C19.4808 1.54439 22.9676 1.89038 26.1363 3.21277C29.3051 4.53516 32.0135 6.77455 33.919 9.64775C35.8245 12.5209 36.8416 15.8989 36.8416 19.3545C36.8365 23.9867 35.0078 28.4277 31.7567 31.7031C28.5056 34.9786 24.0977 36.821 19.5 36.8261ZM19.5 1.95108C16.0861 1.95108 12.7489 2.97101 9.91035 4.88189C7.07181 6.79277 4.85943 9.50878 3.55299 12.6865C2.24655 15.8641 1.90473 19.3608 2.57075 22.7342C3.23676 26.1076 4.88071 29.2063 7.29469 31.6383C9.70867 34.0704 12.7843 35.7267 16.1326 36.3977C19.4809 37.0687 22.9515 36.7243 26.1055 35.4081C29.2595 34.0919 31.9553 31.8629 33.8519 29.0031C35.7486 26.1432 36.7609 22.781 36.7609 19.3415C36.7558 14.7308 34.9356 10.3105 31.6997 7.05031C28.4637 3.7901 24.0763 1.95624 19.5 1.95108Z" fill="#46B0EE"/>
<path d="M19.5 32.746V32.6648C22.1176 32.668 24.6774 31.8887 26.8552 30.4255C29.033 28.9623 30.7309 26.8811 31.7341 24.4452C32.7373 22.0093 33.0006 19.3283 32.4907 16.7415C31.9809 14.1548 30.7207 11.7786 28.8697 9.91381C27.0188 8.04898 24.6603 6.77936 22.0928 6.26564C19.5254 5.75192 16.8643 6.01722 14.4466 7.02794C12.0288 8.03866 9.96303 9.74936 8.51074 11.9435C7.05846 14.1376 6.28496 16.7166 6.28815 19.3538H6.20749C6.20685 16.7042 6.98617 14.1138 8.44688 11.9105C9.90759 9.70709 11.9841 7.98965 14.4137 6.97538C16.8433 5.9611 19.5169 5.69555 22.0963 6.21232C24.6757 6.72908 27.0451 8.00494 28.9047 9.87853C30.7644 11.7521 32.0308 14.1393 32.5437 16.738C33.0566 19.3368 32.793 22.0305 31.7863 24.4783C30.7796 26.9261 29.0749 29.0182 26.8879 30.4899C24.701 31.9615 22.1299 32.7467 19.5 32.746Z" fill="#46B0EE"/>
<path d="M19.5 31.9754C16.179 31.9711 12.9953 30.6398 10.6473 28.2736C8.29931 25.9073 6.97876 22.6994 6.97534 19.3535H7.62061C7.62402 22.527 8.87659 25.5696 11.1036 27.8139C13.3306 30.0582 16.3501 31.321 19.5 31.3253V31.9754Z" fill="#46B0EE"/>
<g style="mix-blend-mode:screen" opacity="0.04">
<path d="M19.5 19.3532H35.5091C35.5102 22.0446 34.8428 24.6936 33.5676 27.0587C32.2925 29.4237 30.4502 31.4297 28.2086 32.8938C25.967 34.3579 23.3974 35.2336 20.7339 35.441C18.0704 35.6484 15.3977 35.181 12.9594 34.0814C10.5211 32.9818 8.39469 31.2849 6.77392 29.1454C5.15316 27.0059 4.08958 24.4917 3.6801 21.8321C3.27061 19.1724 3.52825 16.4518 4.42954 13.9181C5.33082 11.3845 6.84709 9.11831 8.84018 7.32617L19.5 19.3532Z" fill="#46B0EE"/>
</g>
<g style="mix-blend-mode:screen" opacity="0.08">
<path d="M19.5 35.6459C16.3018 35.6459 13.1754 34.6904 10.5162 32.9003C7.857 31.1101 5.7844 28.5657 4.5605 25.5888C3.3366 22.6119 3.01637 19.3361 3.64031 16.1759C4.26425 13.0156 5.80433 10.1127 8.0658 7.83424C10.3273 5.5558 13.2086 4.00417 16.3453 3.37555C19.4821 2.74693 22.7334 3.06956 25.6882 4.30264C28.6429 5.53572 31.1684 7.62387 32.9452 10.303C34.7221 12.9822 35.6704 16.132 35.6704 19.3542C35.6653 23.6735 33.96 27.8143 30.9286 30.8685C27.8971 33.9227 23.7871 35.6408 19.5 35.6459ZM19.5 3.38756C16.3656 3.38756 13.3016 4.32399 10.6955 6.07843C8.0893 7.83287 6.05805 10.3265 4.85857 13.244C3.65909 16.1616 3.34525 19.3719 3.95674 22.4692C4.56823 25.5664 6.07759 28.4114 8.29394 30.6444C10.5103 32.8773 13.3341 34.398 16.4083 35.0141C19.4824 35.6302 22.6689 35.314 25.5647 34.1055C28.4605 32.897 30.9356 30.8505 32.677 28.2248C34.4183 25.5991 35.3478 22.5121 35.3478 19.3542C35.3427 15.1212 33.6714 11.063 30.7004 8.06979C27.7295 5.07658 23.7015 3.39272 19.5 3.38756Z" fill="#46B0EE"/>
</g>
<path d="M19.5419 1.92188H19.4613V4.52556H19.5419V1.92188Z" fill="#46B0EE"/>
<path d="M19.5419 34.1797H19.4613V36.7834H19.5419V34.1797Z" fill="#46B0EE"/>
<path d="M18.1772 4.58676L17.9514 1.99283L18.032 1.98633L18.2579 4.58026L18.1772 4.58676Z" fill="#46B0EE"/>
<path d="M20.968 36.7215L20.7421 34.1276L20.8228 34.1211L21.0486 36.715L20.968 36.7215Z" fill="#46B0EE"/>
<path d="M16.906 4.75932L16.4576 2.19464L16.535 2.18164L16.9835 4.74632L16.906 4.75932Z" fill="#46B0EE"/>
<path d="M22.465 36.5269L22.0165 33.9622L22.094 33.9492L22.5457 36.5139L22.465 36.5269Z" fill="#46B0EE"/>
<path d="M15.6542 5.04128L14.9831 2.52536L15.0606 2.50586L15.7316 5.02178L15.6542 5.04128Z" fill="#46B0EE"/>
<path d="M23.9394 36.2014L23.2716 33.6855L23.349 33.666L24.0169 36.1819L23.9394 36.2014Z" fill="#46B0EE"/>
<path d="M14.4282 5.43394L13.5442 2.98629L13.6216 2.95703L14.5056 5.40469L14.4282 5.43394Z" fill="#46B0EE"/>
<path d="M25.3816 35.7471L24.4976 33.2994L24.5718 33.2734L25.4558 35.7211L25.3816 35.7471Z" fill="#46B0EE"/>
<path d="M12.2254 3.53792L12.1523 3.57227L13.2445 5.932L13.3176 5.89766L12.2254 3.53792Z" fill="#46B0EE"/>
<path d="M25.757 32.7723L25.6839 32.8066L26.7761 35.1664L26.8492 35.132L25.757 32.7723Z" fill="#46B0EE"/>
<path d="M10.8854 4.23476L10.8155 4.27539L12.1077 6.53025L12.1775 6.48961L10.8854 4.23476Z" fill="#46B0EE"/>
<path d="M26.8952 32.1723L26.8253 32.2129L28.1175 34.4677L28.1873 34.4271L26.8952 32.1723Z" fill="#46B0EE"/>
<path d="M9.6124 5.05105L9.54633 5.09766L11.0286 7.23047L11.0947 7.18386L9.6124 5.05105Z" fill="#46B0EE"/>
<path d="M29.392 33.6557L27.9078 31.5201L27.9756 31.4746L29.4565 33.607L29.392 33.6557Z" fill="#46B0EE"/>
<path d="M10.0113 8.02245L8.34976 6.02662L8.41106 5.97461L10.0726 7.97044L10.0113 8.02245Z" fill="#46B0EE"/>
<path d="M30.5922 32.7334L28.9306 30.7376L28.9919 30.6855L30.6535 32.6814L30.5922 32.7334Z" fill="#46B0EE"/>
<path d="M4.83628 18.1018L2.26166 17.8742L2.26811 17.793L4.84273 18.0205L4.83628 18.1018Z" fill="#46B0EE"/>
<path d="M36.7319 20.9143L34.1573 20.6867L34.1637 20.6055L36.7416 20.833L36.7319 20.9143Z" fill="#46B0EE"/>
<path d="M4.78468 19.3105H2.20038V19.3918H4.78468V19.3105Z" fill="#46B0EE"/>
<path d="M36.8029 19.3105H34.2186V19.3918H36.8029V19.3105Z" fill="#46B0EE"/>
<path d="M19.5 33.5556C15.7615 33.5556 12.1762 32.0593 9.5327 29.396C6.88921 26.7327 5.40411 23.1205 5.40411 19.354C5.40411 15.5875 6.88921 11.9752 9.5327 9.3119C12.1762 6.64858 15.7615 5.15234 19.5 5.15234V5.31487C16.744 5.31487 14.0499 6.13825 11.7584 7.68088C9.46684 9.22352 7.68081 11.4161 6.62614 13.9814C5.57146 16.5467 5.29551 19.3695 5.83318 22.0929C6.37085 24.8162 7.69799 27.3177 9.64677 29.2811C11.5956 31.2445 14.0785 32.5816 16.7815 33.1233C19.4845 33.665 22.2863 33.387 24.8325 32.3244C27.3787 31.2618 29.555 29.4624 31.0862 27.1537C32.6173 24.8449 33.4346 22.1306 33.4346 19.354H33.5959C33.5916 23.1191 32.1051 26.7289 29.4626 29.3913C26.82 32.0537 23.2371 33.5513 19.5 33.5556Z" fill="#46B0EE"/>
</g>
<path d="M19 20L38.8023 51H150" stroke="#46B0EE" stroke-width="2"/>
<defs>
<clipPath id="clip0_0_1">
<rect width="39" height="39" rx="19.5" fill="white"/>
</clipPath>
</defs>
</svg>
