<svg width="133" height="91" viewBox="0 0 133 91" fill="none" xmlns="http://www.w3.org/2000/svg">
<g clip-path="url(#clip0_0_1)">
<path d="M113.5 37.9823C109.843 37.9823 106.268 36.8898 103.227 34.8428C100.187 32.7958 97.8168 29.8864 96.4173 26.4824C95.0178 23.0784 94.6517 19.3328 95.3651 15.7192C96.0786 12.1055 97.8396 8.78617 100.425 6.18088C103.011 3.57559 106.306 1.80136 109.893 1.08257C113.479 0.363768 117.197 0.732681 120.576 2.14265C123.955 3.55263 126.842 5.94034 128.874 9.00383C130.906 12.0673 131.99 15.669 131.99 19.3535C131.984 24.2923 130.034 29.0271 126.568 32.5194C123.102 36.0117 118.402 37.9763 113.5 37.9823ZM113.5 1.04967C109.907 1.04967 106.394 2.12317 103.407 4.13442C100.419 6.14567 98.0904 9.00433 96.7154 12.3489C95.3403 15.6935 94.9806 19.3738 95.6816 22.9244C96.3826 26.475 98.1128 29.7364 100.654 32.2962C103.194 34.856 106.432 36.5993 109.956 37.3056C113.48 38.0118 117.133 37.6494 120.452 36.264C123.772 34.8786 126.609 32.5326 128.606 29.5225C130.602 26.5125 131.668 22.9736 131.668 19.3535C131.662 14.5006 129.747 9.84794 126.341 6.41643C122.935 2.98492 118.317 1.05483 113.5 1.04967Z" fill="#46B0EE"/>
<path d="M99.8461 33.3796C97.9932 31.5521 96.5216 29.3699 95.5176 26.9612C94.5137 24.5525 93.9977 21.9659 94 19.3535H95.2905C95.2821 22.1812 95.9295 24.9717 97.1812 27.5026C98.0878 29.342 99.294 31.0154 100.75 32.4532L99.8461 33.3796Z" fill="#46B0EE"/>
<path d="M113.5 39.0057V37.7055C118 37.7107 122.34 36.0309 125.679 32.9922L126.544 33.9674C122.967 37.2194 118.318 39.0152 113.5 39.0057Z" fill="#46B0EE"/>
<path d="M133 19.3528H131.709C131.71 18.3841 131.636 17.4169 131.487 16.4598C131.413 15.9982 131.322 15.5334 131.216 15.0816L132.471 14.7793C132.584 15.2669 132.684 15.7545 132.761 16.2583C132.92 17.282 133 18.3166 133 19.3528Z" fill="#46B0EE"/>
<path d="M126.705 6.71887C125.874 5.83891 124.958 5.04306 123.973 4.34272C121.791 2.78541 119.29 1.73923 116.655 1.28071L116.878 0C119.701 0.493287 122.379 1.61367 124.718 3.2798C125.773 4.0293 126.752 4.88182 127.641 5.82497L126.705 6.71887Z" fill="#46B0EE"/>
<path d="M113.5 36.8261C110.07 36.8261 106.717 35.8014 103.866 33.8816C101.014 31.9618 98.791 29.2331 97.4784 26.0406C96.1659 22.8481 95.8225 19.3351 96.4916 15.9459C97.1607 12.5568 98.8124 9.44361 101.238 7.00015C103.663 4.5567 106.753 2.89268 110.117 2.21853C113.481 1.54439 116.968 1.89038 120.136 3.21277C123.305 4.53516 126.013 6.77455 127.919 9.64775C129.824 12.5209 130.842 15.8989 130.842 19.3545C130.836 23.9867 129.008 28.4277 125.757 31.7031C122.506 34.9786 118.098 36.821 113.5 36.8261ZM113.5 1.95108C110.086 1.95108 106.749 2.97101 103.91 4.88189C101.072 6.79277 98.8594 9.50878 97.553 12.6865C96.2465 15.8641 95.9047 19.3608 96.5707 22.7342C97.2367 26.1076 98.8807 29.2063 101.295 31.6383C103.709 34.0704 106.784 35.7267 110.133 36.3977C113.481 37.0687 116.951 36.7243 120.105 35.4081C123.259 34.0919 125.955 31.8629 127.852 29.0031C129.749 26.1432 130.761 22.781 130.761 19.3415C130.756 14.7308 128.936 10.3105 125.7 7.05031C122.464 3.7901 118.076 1.95624 113.5 1.95108Z" fill="#46B0EE"/>
<path d="M113.5 32.746V32.6648C116.118 32.668 118.677 31.8887 120.855 30.4255C123.033 28.9623 124.731 26.8811 125.734 24.4452C126.737 22.0093 127.001 19.3283 126.491 16.7415C125.981 14.1548 124.721 11.7786 122.87 9.91381C121.019 8.04898 118.66 6.77936 116.093 6.26564C113.525 5.75192 110.864 6.01722 108.447 7.02794C106.029 8.03866 103.963 9.74936 102.511 11.9435C101.058 14.1376 100.285 16.7166 100.288 19.3538H100.207C100.207 16.7042 100.986 14.1138 102.447 11.9105C103.908 9.70709 105.984 7.98965 108.414 6.97538C110.843 5.9611 113.517 5.69555 116.096 6.21232C118.676 6.72908 121.045 8.00494 122.905 9.87853C124.764 11.7521 126.031 14.1393 126.544 16.738C127.057 19.3368 126.793 22.0305 125.786 24.4783C124.78 26.9261 123.075 29.0182 120.888 30.4899C118.701 31.9615 116.13 32.7467 113.5 32.746Z" fill="#46B0EE"/>
<path d="M113.5 31.9754C110.179 31.9711 106.995 30.6398 104.647 28.2736C102.299 25.9073 100.979 22.6994 100.975 19.3535H101.621C101.624 22.527 102.877 25.5696 105.104 27.8139C107.331 30.0582 110.35 31.321 113.5 31.3253V31.9754Z" fill="#46B0EE"/>
<g style="mix-blend-mode:screen" opacity="0.04">
<path d="M113.5 19.3532H129.509C129.51 22.0446 128.843 24.6936 127.568 27.0587C126.292 29.4237 124.45 31.4297 122.209 32.8938C119.967 34.3579 117.397 35.2336 114.734 35.441C112.07 35.6484 109.398 35.181 106.959 34.0814C104.521 32.9818 102.395 31.2849 100.774 29.1454C99.1532 27.0059 98.0896 24.4917 97.6801 21.8321C97.2706 19.1724 97.5283 16.4518 98.4295 13.9181C99.3308 11.3845 100.847 9.11831 102.84 7.32617L113.5 19.3532Z" fill="#46B0EE"/>
</g>
<g style="mix-blend-mode:screen" opacity="0.08">
<path d="M113.5 35.6459C110.302 35.6459 107.175 34.6904 104.516 32.9003C101.857 31.1101 99.7844 28.5657 98.5605 25.5888C97.3366 22.6119 97.0164 19.3361 97.6403 16.1759C98.2642 13.0156 99.8043 10.1127 102.066 7.83424C104.327 5.5558 107.209 4.00417 110.345 3.37555C113.482 2.74693 116.733 3.06956 119.688 4.30264C122.643 5.53572 125.168 7.62387 126.945 10.303C128.722 12.9822 129.67 16.132 129.67 19.3542C129.665 23.6735 127.96 27.8143 124.929 30.8685C121.897 33.9227 117.787 35.6408 113.5 35.6459ZM113.5 3.38756C110.366 3.38756 107.302 4.32399 104.695 6.07843C102.089 7.83287 100.058 10.3265 98.8586 13.244C97.6591 16.1616 97.3453 19.3719 97.9567 22.4692C98.5682 25.5664 100.078 28.4114 102.294 30.6444C104.51 32.8773 107.334 34.398 110.408 35.0141C113.482 35.6302 116.669 35.314 119.565 34.1055C122.461 32.897 124.936 30.8505 126.677 28.2248C128.418 25.5991 129.348 22.5121 129.348 19.3542C129.343 15.1212 127.671 11.063 124.7 8.06979C121.73 5.07658 117.702 3.39272 113.5 3.38756Z" fill="#46B0EE"/>
</g>
<path d="M113.542 1.92188H113.461V4.52556H113.542V1.92188Z" fill="#46B0EE"/>
<path d="M113.542 34.1797H113.461V36.7834H113.542V34.1797Z" fill="#46B0EE"/>
<path d="M112.177 4.58676L111.951 1.99283L112.032 1.98633L112.258 4.58026L112.177 4.58676Z" fill="#46B0EE"/>
<path d="M114.968 36.7215L114.742 34.1276L114.823 34.1211L115.049 36.715L114.968 36.7215Z" fill="#46B0EE"/>
<path d="M110.906 4.75932L110.458 2.19464L110.535 2.18164L110.983 4.74632L110.906 4.75932Z" fill="#46B0EE"/>
<path d="M116.465 36.5269L116.017 33.9622L116.094 33.9492L116.546 36.5139L116.465 36.5269Z" fill="#46B0EE"/>
<path d="M109.654 5.04128L108.983 2.52536L109.061 2.50586L109.732 5.02178L109.654 5.04128Z" fill="#46B0EE"/>
<path d="M117.939 36.2014L117.272 33.6855L117.349 33.666L118.017 36.1819L117.939 36.2014Z" fill="#46B0EE"/>
<path d="M108.428 5.43394L107.544 2.98629L107.622 2.95703L108.506 5.40469L108.428 5.43394Z" fill="#46B0EE"/>
<path d="M119.382 35.7471L118.498 33.2994L118.572 33.2734L119.456 35.7211L119.382 35.7471Z" fill="#46B0EE"/>
<path d="M106.225 3.53792L106.152 3.57227L107.245 5.932L107.318 5.89766L106.225 3.53792Z" fill="#46B0EE"/>
<path d="M119.757 32.7723L119.684 32.8066L120.776 35.1664L120.849 35.132L119.757 32.7723Z" fill="#46B0EE"/>
<path d="M104.885 4.23476L104.815 4.27539L106.108 6.53025L106.177 6.48961L104.885 4.23476Z" fill="#46B0EE"/>
<path d="M120.895 32.1723L120.825 32.2129L122.117 34.4677L122.187 34.4271L120.895 32.1723Z" fill="#46B0EE"/>
<path d="M103.612 5.05105L103.546 5.09766L105.029 7.23047L105.095 7.18386L103.612 5.05105Z" fill="#46B0EE"/>
<path d="M123.392 33.6557L121.908 31.5201L121.976 31.4746L123.456 33.607L123.392 33.6557Z" fill="#46B0EE"/>
<path d="M104.011 8.02245L102.35 6.02662L102.411 5.97461L104.073 7.97044L104.011 8.02245Z" fill="#46B0EE"/>
<path d="M124.592 32.7334L122.931 30.7376L122.992 30.6855L124.653 32.6814L124.592 32.7334Z" fill="#46B0EE"/>
<path d="M98.8363 18.1018L96.2617 17.8742L96.2681 17.793L98.8427 18.0205L98.8363 18.1018Z" fill="#46B0EE"/>
<path d="M130.732 20.9143L128.157 20.6867L128.164 20.6055L130.742 20.833L130.732 20.9143Z" fill="#46B0EE"/>
<path d="M98.7847 19.3105H96.2004V19.3918H98.7847V19.3105Z" fill="#46B0EE"/>
<path d="M130.803 19.3105H128.219V19.3918H130.803V19.3105Z" fill="#46B0EE"/>
<path d="M113.5 33.5556C109.762 33.5556 106.176 32.0593 103.533 29.396C100.889 26.7327 99.4041 23.1205 99.4041 19.354C99.4041 15.5875 100.889 11.9752 103.533 9.3119C106.176 6.64858 109.762 5.15234 113.5 5.15234V5.31487C110.744 5.31487 108.05 6.13825 105.758 7.68088C103.467 9.22352 101.681 11.4161 100.626 13.9814C99.5715 16.5467 99.2955 19.3695 99.8332 22.0929C100.371 24.8162 101.698 27.3177 103.647 29.2811C105.596 31.2445 108.078 32.5816 110.781 33.1233C113.485 33.665 116.286 33.387 118.833 32.3244C121.379 31.2618 123.555 29.4624 125.086 27.1537C126.617 24.8449 127.435 22.1306 127.435 19.354H127.596C127.592 23.1191 126.105 26.7289 123.463 29.3913C120.82 32.0537 117.237 33.5513 113.5 33.5556Z" fill="#46B0EE"/>
</g>
<path d="M0.5 89.5H61L113.5 18.5" stroke="#46B0EE" stroke-width="2"/>
<defs>
<clipPath id="clip0_0_1">
<rect x="94" width="39" height="39" rx="19.5" fill="white"/>
</clipPath>
</defs>
</svg>
