<svg width="225" height="76" viewBox="0 0 225 76" fill="none" xmlns="http://www.w3.org/2000/svg">
<g clip-path="url(#clip0_0_1)">
<path d="M19.5 74.9823C15.843 74.9823 12.2681 73.8898 9.22742 71.8428C6.18673 69.7958 3.8168 66.8864 2.41732 63.4824C1.01785 60.0784 0.651679 56.3328 1.36513 52.7192C2.07857 49.1055 3.83959 45.7862 6.42548 43.1809C9.01138 40.5756 12.306 38.8014 15.8927 38.0826C19.4795 37.3638 23.1972 37.7327 26.5759 39.1427C29.9545 40.5526 32.8423 42.9403 34.874 46.0038C36.9057 49.0673 37.9902 52.669 37.9902 56.3535C37.9842 61.2923 36.0342 66.0271 32.5679 69.5194C29.1016 73.0117 24.4021 74.9763 19.5 74.9823ZM19.5 38.0497C15.9068 38.0497 12.3943 39.1232 9.40666 41.1344C6.41903 43.1457 4.09045 46.0043 2.7154 49.3489C1.34034 52.6935 0.980563 56.3738 1.68156 59.9244C2.38256 63.475 4.11285 66.7364 6.65362 69.2962C9.1944 71.856 12.4315 73.5993 15.9557 74.3056C19.4798 75.0118 23.1327 74.6494 26.4524 73.264C29.7721 71.8786 32.6095 69.5326 34.6057 66.5225C36.602 63.5125 37.6675 59.9736 37.6675 56.3535C37.6624 51.5006 35.7467 46.8479 32.3407 43.4164C28.9348 39.9849 24.3168 38.0548 19.5 38.0497Z" fill="#46B0EE"/>
<path d="M5.84613 70.3796C3.99323 68.5521 2.52157 66.3699 1.51762 63.9612C0.513678 61.5525 -0.00230329 58.9659 4.82369e-08 56.3535H1.29054C1.28211 59.1812 1.92953 61.9717 3.18117 64.5026C4.08782 66.342 5.29396 68.0154 6.7495 69.4532L5.84613 70.3796Z" fill="#46B0EE"/>
<path d="M19.5 76.0057V74.7055C23.9995 74.7107 28.3404 73.0309 31.6794 69.9922L32.5441 70.9674C28.9673 74.2194 24.3179 76.0152 19.5 76.0057Z" fill="#46B0EE"/>
<path d="M39 56.3528H37.7095C37.71 55.3841 37.6356 54.4169 37.4868 53.4598C37.4126 52.9982 37.3223 52.5334 37.2158 52.0816L38.4709 51.7793C38.5838 52.2669 38.6838 52.7545 38.7613 53.2583C38.9203 54.282 39.0001 55.3166 39 56.3528Z" fill="#46B0EE"/>
<path d="M32.7054 43.7189C31.8736 42.8389 30.9584 42.0431 29.9727 41.3427C27.7906 39.7854 25.2905 38.7392 22.6554 38.2807L22.878 37C25.7006 37.4933 28.3787 38.6137 30.718 40.2798C31.773 41.0293 32.7521 41.8818 33.6411 42.825L32.7054 43.7189Z" fill="#46B0EE"/>
<path d="M19.5 73.8261C16.0702 73.8261 12.7173 72.8014 9.86554 70.8816C7.01373 68.9618 4.79102 66.2331 3.47847 63.0406C2.16593 59.8481 1.82251 56.3351 2.49164 52.9459C3.16077 49.5568 4.81239 46.4436 7.23766 44.0002C9.66292 41.5567 12.7529 39.8927 16.1168 39.2185C19.4808 38.5444 22.9676 38.8904 26.1363 40.2128C29.3051 41.5352 32.0135 43.7745 33.919 46.6477C35.8245 49.5209 36.8416 52.8989 36.8416 56.3545C36.8365 60.9867 35.0078 65.4277 31.7567 68.7031C28.5056 71.9786 24.0977 73.821 19.5 73.8261ZM19.5 38.9511C16.0861 38.9511 12.7489 39.971 9.91035 41.8819C7.07181 43.7928 4.85943 46.5088 3.55299 49.6865C2.24655 52.8641 1.90473 56.3608 2.57075 59.7342C3.23676 63.1076 4.88071 66.2063 7.29469 68.6383C9.70867 71.0704 12.7843 72.7267 16.1326 73.3977C19.4809 74.0687 22.9515 73.7243 26.1055 72.4081C29.2595 71.0919 31.9553 68.8629 33.8519 66.0031C35.7486 63.1432 36.7609 59.781 36.7609 56.3415C36.7558 51.7308 34.9356 47.3105 31.6997 44.0503C28.4637 40.7901 24.0763 38.9562 19.5 38.9511Z" fill="#46B0EE"/>
<path d="M19.5 69.746V69.6648C22.1176 69.668 24.6773 68.8887 26.8551 67.4255C29.0329 65.9623 30.7309 63.8811 31.7341 61.4452C32.7373 59.0093 33.0006 56.3283 32.4907 53.7415C31.9808 51.1548 30.7207 48.7786 28.8697 46.9138C27.0188 45.049 24.6603 43.7794 22.0928 43.2656C19.5253 42.7519 16.8643 43.0172 14.4465 44.0279C12.0288 45.0387 9.96302 46.7494 8.51074 48.9435C7.05845 51.1376 6.28495 53.7166 6.28814 56.3538H6.20748C6.20684 53.7042 6.98617 51.1138 8.44688 48.9105C9.90759 46.7071 11.9841 44.9897 14.4137 43.9754C16.8433 42.9611 19.5169 42.6956 22.0963 43.2123C24.6757 43.7291 27.0451 45.0049 28.9047 46.8785C30.7644 48.7521 32.0307 51.1393 32.5437 53.738C33.0566 56.3368 32.793 59.0305 31.7863 61.4783C30.7796 63.9261 29.0749 66.0182 26.8879 67.4899C24.701 68.9615 22.1299 69.7467 19.5 69.746Z" fill="#46B0EE"/>
<path d="M19.5 68.9754C16.179 68.9711 12.9953 67.6398 10.6473 65.2736C8.29931 62.9073 6.97876 59.6994 6.97535 56.3535H7.62062C7.62403 59.527 8.8766 62.5696 11.1036 64.8139C13.3306 67.0582 16.3501 68.321 19.5 68.3253V68.9754Z" fill="#46B0EE"/>
<g style="mix-blend-mode:screen" opacity="0.04">
<path d="M19.5 56.3532H35.5091C35.5102 59.0446 34.8428 61.6936 33.5676 64.0587C32.2925 66.4237 30.4502 68.4297 28.2086 69.8938C25.967 71.3579 23.3973 72.2336 20.7339 72.441C18.0704 72.6484 15.3977 72.181 12.9594 71.0814C10.5211 69.9818 8.39468 68.2849 6.77392 66.1454C5.15315 64.0059 4.08957 61.4917 3.68009 58.8321C3.27061 56.1724 3.52825 53.4518 4.42953 50.9181C5.33081 48.3845 6.84708 46.1183 8.84017 44.3262L19.5 56.3532Z" fill="#46B0EE"/>
</g>
<g style="mix-blend-mode:screen" opacity="0.08">
<path d="M19.5 72.6459C16.3018 72.6459 13.1754 71.6904 10.5162 69.9003C7.85699 68.1101 5.78438 65.5657 4.56048 62.5888C3.33658 59.6119 3.01635 56.3361 3.64029 53.1759C4.26423 50.0156 5.80431 47.1127 8.06579 44.8342C10.3273 42.5558 13.2086 41.0042 16.3453 40.3755C19.4821 39.7469 22.7334 40.0696 25.6882 41.3026C28.6429 42.5357 31.1684 44.6239 32.9452 47.303C34.722 49.9822 35.6704 53.132 35.6704 56.3542C35.6653 60.6735 33.96 64.8143 30.9286 67.8685C27.8971 70.9227 23.7871 72.6408 19.5 72.6459ZM19.5 40.3876C16.3656 40.3876 13.3016 41.324 10.6954 43.0784C8.08929 44.8329 6.05804 47.3265 4.85856 50.244C3.65908 53.1616 3.34524 56.3719 3.95673 59.4692C4.56822 62.5664 6.07757 65.4114 8.29392 67.6444C10.5103 69.8773 13.3341 71.398 16.4083 72.0141C19.4824 72.6302 22.6689 72.314 25.5647 71.1055C28.4605 69.897 30.9356 67.8505 32.677 65.2248C34.4183 62.5991 35.3478 59.5121 35.3478 56.3542C35.3427 52.1212 33.6713 48.063 30.7004 45.0698C27.7295 42.0766 23.7015 40.3927 19.5 40.3876Z" fill="#46B0EE"/>
</g>
<path d="M19.5419 38.9219H19.4613V41.5256H19.5419V38.9219Z" fill="#46B0EE"/>
<path d="M19.5419 71.1797H19.4613V73.7834H19.5419V71.1797Z" fill="#46B0EE"/>
<path d="M18.1772 41.5868L17.9514 38.9928L18.032 38.9863L18.2579 41.5803L18.1772 41.5868Z" fill="#46B0EE"/>
<path d="M20.968 73.7215L20.7421 71.1276L20.8228 71.1211L21.0486 73.715L20.968 73.7215Z" fill="#46B0EE"/>
<path d="M16.906 41.7593L16.4576 39.1946L16.535 39.1816L16.9835 41.7463L16.906 41.7593Z" fill="#46B0EE"/>
<path d="M22.465 73.5269L22.0165 70.9622L22.094 70.9492L22.5457 73.5139L22.465 73.5269Z" fill="#46B0EE"/>
<path d="M15.6542 42.0413L14.9831 39.5254L15.0606 39.5059L15.7316 42.0218L15.6542 42.0413Z" fill="#46B0EE"/>
<path d="M23.9394 73.2014L23.2716 70.6855L23.349 70.666L24.0169 73.1819L23.9394 73.2014Z" fill="#46B0EE"/>
<path d="M14.4282 42.4339L13.5442 39.9863L13.6216 39.957L14.5056 42.4047L14.4282 42.4339Z" fill="#46B0EE"/>
<path d="M25.3816 72.7471L24.4976 70.2994L24.5718 70.2734L25.4558 72.7211L25.3816 72.7471Z" fill="#46B0EE"/>
<path d="M12.2255 40.5379L12.1524 40.5723L13.2445 42.932L13.3176 42.8977L12.2255 40.5379Z" fill="#46B0EE"/>
<path d="M25.757 69.7723L25.6839 69.8066L26.7761 72.1664L26.8492 72.132L25.757 69.7723Z" fill="#46B0EE"/>
<path d="M10.8854 41.2348L10.8155 41.2754L12.1077 43.5302L12.1775 43.4896L10.8854 41.2348Z" fill="#46B0EE"/>
<path d="M26.8952 69.1723L26.8253 69.2129L28.1175 71.4677L28.1873 71.4271L26.8952 69.1723Z" fill="#46B0EE"/>
<path d="M9.6124 42.051L9.54633 42.0977L11.0286 44.2305L11.0947 44.1839L9.6124 42.051Z" fill="#46B0EE"/>
<path d="M29.392 70.6557L27.9078 68.5201L27.9756 68.4746L29.4565 70.607L29.392 70.6557Z" fill="#46B0EE"/>
<path d="M10.0113 45.0225L8.34977 43.0266L8.41107 42.9746L10.0726 44.9704L10.0113 45.0225Z" fill="#46B0EE"/>
<path d="M30.5922 69.7334L28.9306 67.7376L28.9919 67.6855L30.6535 69.6814L30.5922 69.7334Z" fill="#46B0EE"/>
<path d="M4.83628 55.1018L2.26167 54.8742L2.26812 54.793L4.84274 55.0205L4.83628 55.1018Z" fill="#46B0EE"/>
<path d="M36.7319 57.9143L34.1573 57.6867L34.1637 57.6055L36.7416 57.833L36.7319 57.9143Z" fill="#46B0EE"/>
<path d="M4.78466 56.3105H2.20036V56.3918H4.78466V56.3105Z" fill="#46B0EE"/>
<path d="M36.8029 56.3105H34.2186V56.3918H36.8029V56.3105Z" fill="#46B0EE"/>
<path d="M19.5 70.5556C15.7615 70.5556 12.1762 69.0593 9.53271 66.396C6.88922 63.7327 5.40412 60.1205 5.40412 56.354C5.40412 52.5875 6.88922 48.9752 9.53271 46.3119C12.1762 43.6486 15.7615 42.1523 19.5 42.1523V42.3149C16.744 42.3149 14.0499 43.1382 11.7584 44.6809C9.46685 46.2235 7.68082 48.4161 6.62614 50.9814C5.57147 53.5467 5.29552 56.3695 5.83319 59.0929C6.37086 61.8162 7.69799 64.3177 9.64678 66.2811C11.5956 68.2445 14.0785 69.5816 16.7815 70.1233C19.4845 70.665 22.2863 70.387 24.8325 69.3244C27.3787 68.2618 29.555 66.4624 31.0862 64.1537C32.6173 61.8449 33.4346 59.1306 33.4346 56.354H33.5959C33.5916 60.1191 32.1051 63.7289 29.4626 66.3913C26.82 69.0537 23.2372 70.5513 19.5 70.5556Z" fill="#46B0EE"/>
</g>
<path d="M20 60H200L224 1" stroke="#46B0EE" stroke-width="2"/>
<defs>
<clipPath id="clip0_0_1">
<rect y="37" width="39" height="39" rx="19.5" fill="white"/>
</clipPath>
</defs>
</svg>
