<svg width="204" height="85" viewBox="0 0 204 85" fill="none" xmlns="http://www.w3.org/2000/svg">
<g clip-path="url(#clip0_0_1)">
<path d="M19.5 83.9823C15.843 83.9823 12.2681 82.8898 9.22741 80.8428C6.18672 78.7958 3.81679 75.8864 2.41731 72.4824C1.01784 69.0784 0.651671 65.3328 1.36512 61.7192C2.07856 58.1055 3.83958 54.7862 6.42548 52.1809C9.01137 49.5756 12.306 47.8014 15.8927 47.0826C19.4795 46.3638 23.1972 46.7327 26.5759 48.1427C29.9545 49.5526 32.8423 51.9403 34.874 55.0038C36.9057 58.0673 37.9902 61.669 37.9902 65.3535C37.9842 70.2923 36.0342 75.0271 32.5679 78.5194C29.1016 82.0117 24.4021 83.9763 19.5 83.9823ZM19.5 47.0497C15.9068 47.0497 12.3943 48.1232 9.40666 50.1344C6.41902 52.1457 4.09045 55.0043 2.71539 58.3489C1.34033 61.6935 0.980555 65.3738 1.68155 68.9244C2.38255 72.475 4.11284 75.7364 6.65361 78.2962C9.19439 80.856 12.4315 82.5993 15.9557 83.3056C19.4798 84.0118 23.1327 83.6494 26.4524 82.264C29.7721 80.8786 32.6095 78.5326 34.6057 75.5225C36.602 72.5125 37.6675 68.9736 37.6675 65.3535C37.6624 60.5006 35.7467 55.8479 32.3407 52.4164C28.9347 48.9849 24.3167 47.0548 19.5 47.0497Z" fill="#46B0EE"/>
<path d="M5.84614 79.3796C3.99324 77.5521 2.52158 75.3699 1.51763 72.9612C0.513685 70.5525 -0.00229566 67.9659 7.67763e-06 65.3535H1.29054C1.28212 68.1812 1.92954 70.9717 3.18118 73.5026C4.08783 75.342 5.29397 77.0154 6.74951 78.4532L5.84614 79.3796Z" fill="#46B0EE"/>
<path d="M19.5 85.0057V83.7055C23.9995 83.7107 28.3404 82.0309 31.6794 78.9922L32.5441 79.9674C28.9673 83.2194 24.3179 85.0152 19.5 85.0057Z" fill="#46B0EE"/>
<path d="M39 65.3528H37.7094C37.71 64.3841 37.6356 63.4169 37.4868 62.4598C37.4126 61.9982 37.3223 61.5334 37.2158 61.0816L38.4709 60.7793C38.5838 61.2669 38.6838 61.7545 38.7612 62.2583C38.9203 63.282 39.0001 64.3166 39 65.3528Z" fill="#46B0EE"/>
<path d="M32.7054 52.7189C31.8736 51.8389 30.9584 51.0431 29.9727 50.3427C27.7906 48.7854 25.2905 47.7392 22.6554 47.2807L22.878 46C25.7006 46.4933 28.3787 47.6137 30.718 49.2798C31.773 50.0293 32.7521 50.8818 33.6411 51.825L32.7054 52.7189Z" fill="#46B0EE"/>
<path d="M19.5 82.8261C16.0702 82.8261 12.7173 81.8014 9.86554 79.8816C7.01373 77.9618 4.79102 75.2331 3.47847 72.0406C2.16593 68.8481 1.82251 65.3351 2.49164 61.9459C3.16077 58.5568 4.81239 55.4436 7.23766 53.0002C9.66292 50.5567 12.7529 48.8927 16.1168 48.2185C19.4808 47.5444 22.9676 47.8904 26.1363 49.2128C29.3051 50.5352 32.0135 52.7745 33.919 55.6477C35.8245 58.5209 36.8416 61.8989 36.8416 65.3545C36.8365 69.9867 35.0078 74.4277 31.7567 77.7031C28.5056 80.9786 24.0977 82.821 19.5 82.8261ZM19.5 47.9511C16.0861 47.9511 12.7489 48.971 9.91035 50.8819C7.07181 52.7928 4.85943 55.5088 3.55299 58.6865C2.24655 61.8641 1.90473 65.3608 2.57075 68.7342C3.23676 72.1076 4.88071 75.2063 7.29469 77.6383C9.70867 80.0704 12.7843 81.7267 16.1326 82.3977C19.4809 83.0687 22.9515 82.7243 26.1055 81.4081C29.2595 80.0919 31.9553 77.8629 33.8519 75.0031C35.7486 72.1432 36.7609 68.781 36.7609 65.3415C36.7558 60.7308 34.9356 56.3105 31.6997 53.0503C28.4637 49.7901 24.0763 47.9562 19.5 47.9511Z" fill="#46B0EE"/>
<path d="M19.5 78.746V78.6648C22.1176 78.668 24.6774 77.8887 26.8552 76.4255C29.033 74.9623 30.7309 72.8811 31.7341 70.4452C32.7373 68.0093 33.0006 65.3283 32.4907 62.7415C31.9809 60.1548 30.7207 57.7786 28.8697 55.9138C27.0188 54.049 24.6603 52.7794 22.0928 52.2656C19.5254 51.7519 16.8643 52.0172 14.4466 53.0279C12.0288 54.0387 9.96303 55.7494 8.51074 57.9435C7.05846 60.1376 6.28496 62.7166 6.28815 65.3538H6.20749C6.20685 62.7042 6.98617 60.1138 8.44688 57.9105C9.90759 55.7071 11.9841 53.9897 14.4137 52.9754C16.8433 51.9611 19.5169 51.6956 22.0963 52.2123C24.6757 52.7291 27.0451 54.0049 28.9047 55.8785C30.7644 57.7521 32.0308 60.1393 32.5437 62.738C33.0566 65.3368 32.793 68.0305 31.7863 70.4783C30.7796 72.9261 29.0749 75.0182 26.8879 76.4899C24.701 77.9615 22.1299 78.7467 19.5 78.746Z" fill="#46B0EE"/>
<path d="M19.5 77.9754C16.179 77.9711 12.9953 76.6398 10.6473 74.2736C8.29931 71.9073 6.97876 68.6994 6.97534 65.3535H7.62061C7.62402 68.527 8.87659 71.5696 11.1036 73.8139C13.3306 76.0582 16.3501 77.321 19.5 77.3253V77.9754Z" fill="#46B0EE"/>
<g style="mix-blend-mode:screen" opacity="0.04">
<path d="M19.5 65.3532H35.5091C35.5102 68.0446 34.8428 70.6936 33.5676 73.0587C32.2925 75.4237 30.4502 77.4297 28.2086 78.8938C25.967 80.3579 23.3974 81.2336 20.7339 81.441C18.0704 81.6484 15.3977 81.181 12.9594 80.0814C10.5211 78.9818 8.39469 77.2849 6.77392 75.1454C5.15316 73.0059 4.08958 70.4917 3.6801 67.8321C3.27061 65.1724 3.52825 62.4518 4.42954 59.9181C5.33082 57.3845 6.84709 55.1183 8.84018 53.3262L19.5 65.3532Z" fill="#46B0EE"/>
</g>
<g style="mix-blend-mode:screen" opacity="0.08">
<path d="M19.5 81.6459C16.3018 81.6459 13.1754 80.6904 10.5162 78.9003C7.857 77.1101 5.7844 74.5657 4.5605 71.5888C3.3366 68.6119 3.01637 65.3361 3.64031 62.1759C4.26425 59.0156 5.80433 56.1127 8.0658 53.8342C10.3273 51.5558 13.2086 50.0042 16.3453 49.3755C19.4821 48.7469 22.7334 49.0696 25.6882 50.3026C28.6429 51.5357 31.1684 53.6239 32.9452 56.303C34.7221 58.9822 35.6704 62.132 35.6704 65.3542C35.6653 69.6735 33.96 73.8143 30.9286 76.8685C27.8971 79.9227 23.7871 81.6408 19.5 81.6459ZM19.5 49.3876C16.3656 49.3876 13.3016 50.324 10.6955 52.0784C8.0893 53.8329 6.05805 56.3265 4.85857 59.244C3.65909 62.1616 3.34525 65.3719 3.95674 68.4692C4.56823 71.5664 6.07759 74.4114 8.29394 76.6444C10.5103 78.8773 13.3341 80.398 16.4083 81.0141C19.4824 81.6302 22.6689 81.314 25.5647 80.1055C28.4605 78.897 30.9356 76.8505 32.677 74.2248C34.4183 71.5991 35.3478 68.5121 35.3478 65.3542C35.3427 61.1212 33.6714 57.063 30.7004 54.0698C27.7295 51.0766 23.7015 49.3927 19.5 49.3876Z" fill="#46B0EE"/>
</g>
<path d="M19.5419 47.9219H19.4613V50.5256H19.5419V47.9219Z" fill="#46B0EE"/>
<path d="M19.5419 80.1797H19.4613V82.7834H19.5419V80.1797Z" fill="#46B0EE"/>
<path d="M18.1772 50.5868L17.9514 47.9928L18.032 47.9863L18.2579 50.5803L18.1772 50.5868Z" fill="#46B0EE"/>
<path d="M20.968 82.7215L20.7421 80.1276L20.8228 80.1211L21.0486 82.715L20.968 82.7215Z" fill="#46B0EE"/>
<path d="M16.906 50.7593L16.4576 48.1946L16.535 48.1816L16.9834 50.7463L16.906 50.7593Z" fill="#46B0EE"/>
<path d="M22.465 82.5269L22.0165 79.9622L22.094 79.9492L22.5457 82.5139L22.465 82.5269Z" fill="#46B0EE"/>
<path d="M15.6542 51.0413L14.9831 48.5254L15.0606 48.5059L15.7316 51.0218L15.6542 51.0413Z" fill="#46B0EE"/>
<path d="M23.9395 82.2014L23.2716 79.6855L23.349 79.666L24.0169 82.1819L23.9395 82.2014Z" fill="#46B0EE"/>
<path d="M14.4282 51.4339L13.5442 48.9863L13.6216 48.957L14.5056 51.4047L14.4282 51.4339Z" fill="#46B0EE"/>
<path d="M25.3816 81.7471L24.4976 79.2994L24.5718 79.2734L25.4558 81.7211L25.3816 81.7471Z" fill="#46B0EE"/>
<path d="M12.2254 49.5379L12.1523 49.5723L13.2445 51.932L13.3176 51.8977L12.2254 49.5379Z" fill="#46B0EE"/>
<path d="M25.757 78.7723L25.6839 78.8066L26.7761 81.1664L26.8492 81.132L25.757 78.7723Z" fill="#46B0EE"/>
<path d="M10.8854 50.2348L10.8155 50.2754L12.1077 52.5302L12.1775 52.4896L10.8854 50.2348Z" fill="#46B0EE"/>
<path d="M26.8952 78.1723L26.8253 78.2129L28.1175 80.4677L28.1873 80.4271L26.8952 78.1723Z" fill="#46B0EE"/>
<path d="M9.6124 51.051L9.54633 51.0977L11.0286 53.2305L11.0947 53.1839L9.6124 51.051Z" fill="#46B0EE"/>
<path d="M29.392 79.6557L27.9078 77.5201L27.9756 77.4746L29.4565 79.607L29.392 79.6557Z" fill="#46B0EE"/>
<path d="M10.0113 54.0225L8.34976 52.0266L8.41106 51.9746L10.0726 53.9704L10.0113 54.0225Z" fill="#46B0EE"/>
<path d="M30.5922 78.7334L28.9306 76.7376L28.9919 76.6855L30.6535 78.6814L30.5922 78.7334Z" fill="#46B0EE"/>
<path d="M4.83628 64.1018L2.26166 63.8742L2.26811 63.793L4.84273 64.0205L4.83628 64.1018Z" fill="#46B0EE"/>
<path d="M36.7319 66.9143L34.1573 66.6867L34.1637 66.6055L36.7416 66.833L36.7319 66.9143Z" fill="#46B0EE"/>
<path d="M4.78468 65.3105H2.20038V65.3918H4.78468V65.3105Z" fill="#46B0EE"/>
<path d="M36.8029 65.3105H34.2186V65.3918H36.8029V65.3105Z" fill="#46B0EE"/>
<path d="M19.5 79.5556C15.7615 79.5556 12.1762 78.0593 9.5327 75.396C6.88921 72.7327 5.40411 69.1205 5.40411 65.354C5.40411 61.5875 6.88921 57.9752 9.5327 55.3119C12.1762 52.6486 15.7615 51.1523 19.5 51.1523V51.3149C16.744 51.3149 14.0499 52.1382 11.7584 53.6809C9.46684 55.2235 7.68081 57.4161 6.62614 59.9814C5.57146 62.5467 5.29551 65.3695 5.83318 68.0929C6.37085 70.8162 7.69799 73.3177 9.64677 75.2811C11.5956 77.2445 14.0785 78.5816 16.7815 79.1233C19.4845 79.665 22.2863 79.387 24.8325 78.3244C27.3787 77.2618 29.555 75.4624 31.0862 73.1537C32.6173 70.8449 33.4346 68.1306 33.4346 65.354H33.5959C33.5916 69.1191 32.1051 72.7289 29.4626 75.3913C26.82 78.0537 23.2371 79.5513 19.5 79.5556Z" fill="#46B0EE"/>
</g>
<path d="M26 58L134.799 1H204" stroke="#46B0EE" stroke-width="2"/>
<defs>
<clipPath id="clip0_0_1">
<rect y="46" width="39" height="39" rx="19.5" fill="white"/>
</clipPath>
</defs>
</svg>
